<svg xmlns="http://www.w3.org/2000/svg" width="103.815" height="56.755" viewBox="0 0 103.815 56.755">
  <g id="Group_1136" data-name="Group 1136" transform="translate(0 3)">
    <circle id="Ellipse_38" data-name="Ellipse 38" cx="25.378" cy="25.378" r="25.378" fill="#006cca"/>
    <circle id="Ellipse_39" data-name="Ellipse 39" cx="25.378" cy="25.378" r="25.378" transform="translate(50.06)" fill="#006cca"/>
    <path id="Ellipse_39_-_Outline" data-name="Ellipse 39 - Outline" d="M25.378,0A25.378,25.378,0,1,0,50.755,25.378,25.378,25.378,0,0,0,25.378,0m0-3A28.37,28.37,0,0,1,45.444,45.444,28.378,28.378,0,1,1,14.331-.769,28.2,28.2,0,0,1,25.378-3Z" transform="translate(50.06)" fill="#fff"/>
    <path id="Path_1900" data-name="Path 1900" d="M1.361,18V6.1H5.694a5.411,5.411,0,0,1,3.063.73A2.349,2.349,0,0,1,9.828,8.886a2.436,2.436,0,0,1-.652,1.685,3.423,3.423,0,0,1-1.664,1v.033a3.3,3.3,0,0,1,2.03.938,2.623,2.623,0,0,1,.76,1.9,3.177,3.177,0,0,1-1.17,2.594,4.9,4.9,0,0,1-3.2.959ZM4.042,8.072v2.822H5.221a1.965,1.965,0,0,0,1.307-.4,1.372,1.372,0,0,0,.477-1.108q0-1.312-1.959-1.312Zm0,4.814v3.138H5.5a2.236,2.236,0,0,0,1.457-.432,1.442,1.442,0,0,0,.527-1.179,1.345,1.345,0,0,0-.519-1.121,2.3,2.3,0,0,0-1.448-.407ZM14.46,15.825h5.047V18H11.588v-.9a4.173,4.173,0,0,1,.307-1.639,5.44,5.44,0,0,1,.772-1.3,6.7,6.7,0,0,1,1.017-1.021q.552-.444,1.05-.8.523-.374.917-.714a5.227,5.227,0,0,0,.664-.677,2.572,2.572,0,0,0,.4-.681,2.024,2.024,0,0,0,.133-.735,1.476,1.476,0,0,0-.432-1.154,1.919,1.919,0,0,0-1.32-.39,4.433,4.433,0,0,0-2.938,1.22V6.9a6.308,6.308,0,0,1,3.5-1,5.173,5.173,0,0,1,1.623.237,3.433,3.433,0,0,1,1.216.677,2.885,2.885,0,0,1,.76,1.067,3.6,3.6,0,0,1,.261,1.4,3.944,3.944,0,0,1-.253,1.461A4.489,4.489,0,0,1,18.6,11.9a6.1,6.1,0,0,1-.967.959q-.548.436-1.137.843-.4.282-.768.56a7.279,7.279,0,0,0-.652.548,2.974,2.974,0,0,0-.448.527A.91.91,0,0,0,14.46,15.825ZM22.039,18V6.1h4.333a5.411,5.411,0,0,1,3.063.73,2.349,2.349,0,0,1,1.071,2.059,2.436,2.436,0,0,1-.652,1.685,3.423,3.423,0,0,1-1.664,1v.033a3.3,3.3,0,0,1,2.03.938,2.623,2.623,0,0,1,.76,1.9,3.177,3.177,0,0,1-1.17,2.594,4.9,4.9,0,0,1-3.2.959ZM24.72,8.072v2.822H25.9a1.965,1.965,0,0,0,1.307-.4,1.372,1.372,0,0,0,.477-1.108q0-1.312-1.959-1.312Zm0,4.814v3.138h1.453a2.236,2.236,0,0,0,1.457-.432,1.442,1.442,0,0,0,.527-1.179,1.345,1.345,0,0,0-.519-1.121,2.3,2.3,0,0,0-1.448-.407Z" transform="translate(9.039 13.21)" fill="#fff"/>
    <path id="Path_1901" data-name="Path 1901" d="M1.361,18V6.1H5.694a5.411,5.411,0,0,1,3.063.73A2.349,2.349,0,0,1,9.828,8.886a2.436,2.436,0,0,1-.652,1.685,3.423,3.423,0,0,1-1.664,1v.033a3.3,3.3,0,0,1,2.03.938,2.623,2.623,0,0,1,.76,1.9,3.177,3.177,0,0,1-1.17,2.594,4.9,4.9,0,0,1-3.2.959ZM4.042,8.072v2.822H5.221a1.965,1.965,0,0,0,1.307-.4,1.372,1.372,0,0,0,.477-1.108q0-1.312-1.959-1.312Zm0,4.814v3.138H5.5a2.236,2.236,0,0,0,1.457-.432,1.442,1.442,0,0,0,.527-1.179,1.345,1.345,0,0,0-.519-1.121,2.3,2.3,0,0,0-1.448-.407ZM14.46,15.825h5.047V18H11.588v-.9a4.173,4.173,0,0,1,.307-1.639,5.44,5.44,0,0,1,.772-1.3,6.7,6.7,0,0,1,1.017-1.021q.552-.444,1.05-.8.523-.374.917-.714a5.227,5.227,0,0,0,.664-.677,2.572,2.572,0,0,0,.4-.681,2.024,2.024,0,0,0,.133-.735,1.476,1.476,0,0,0-.432-1.154,1.919,1.919,0,0,0-1.32-.39,4.433,4.433,0,0,0-2.938,1.22V6.9a6.308,6.308,0,0,1,3.5-1,5.173,5.173,0,0,1,1.623.237,3.433,3.433,0,0,1,1.216.677,2.885,2.885,0,0,1,.76,1.067,3.6,3.6,0,0,1,.261,1.4,3.944,3.944,0,0,1-.253,1.461A4.489,4.489,0,0,1,18.6,11.9a6.1,6.1,0,0,1-.967.959q-.548.436-1.137.843-.4.282-.768.56a7.279,7.279,0,0,0-.652.548,2.974,2.974,0,0,0-.448.527A.91.91,0,0,0,14.46,15.825Zm16.112,1.751a7.849,7.849,0,0,1-3.4.631A5.737,5.737,0,0,1,22.86,16.6a5.886,5.886,0,0,1-1.569-4.292,6.289,6.289,0,0,1,1.764-4.632A6.17,6.17,0,0,1,27.633,5.9a8.561,8.561,0,0,1,2.938.44V8.919a5.207,5.207,0,0,0-2.723-.714,3.612,3.612,0,0,0-2.706,1.054,3.912,3.912,0,0,0-1.029,2.855,3.837,3.837,0,0,0,.971,2.752A3.431,3.431,0,0,0,27.7,15.892a5.577,5.577,0,0,0,2.872-.764Z" transform="translate(59.099 13.21)" fill="#fff"/>
  </g>
</svg>
