<svg xmlns="http://www.w3.org/2000/svg" xmlns:xlink="http://www.w3.org/1999/xlink" width="278.242" height="149.556" viewBox="0 0 278.242 149.556">
  <defs>
    <clipPath id="clip-path">
      <rect id="Rectangle_1027" data-name="Rectangle 1027" width="139.472" height="149.556" fill="#0088d6"/>
    </clipPath>
    <clipPath id="clip-path-2">
      <rect id="Rectangle_1023" data-name="Rectangle 1023" width="278.242" height="76.289" fill="#fff"/>
    </clipPath>
  </defs>
  <g id="Group_1154" data-name="Group 1154" transform="translate(-726.758 -3815.222)">
    <g id="Group_1147" data-name="Group 1147" transform="translate(777.528 3815.222)">
      <g id="Group_1146" data-name="Group 1146" transform="translate(0 0)" clip-path="url(#clip-path)">
        <path id="Path_1898" data-name="Path 1898" d="M137,32.462c-14.98-24.468-47.065-20.06-75,.7-56.294,41.844-53.98,85.1-53.98,85.1-2.971-3.109-19.166-34.5,23.3-81.664A115.065,115.065,0,0,1,94.06,1.057c21.378-4.166,39.232,3.511,42.941,31.4" transform="translate(2.471 0)" fill="#0088d6"/>
        <path id="Path_1899" data-name="Path 1899" d="M0,104.441c15.841,23.92,47.75,18.374,74.925-3.368C129.7,57.251,125.846,14.1,125.846,14.1c3.078,3,20.381,33.8-20.377,82.442A115.053,115.053,0,0,1,44.031,134.3C22.813,139.221,4.7,132.186,0,104.441" transform="translate(0 13.808)" fill="#0088d6"/>
      </g>
    </g>
    <g id="Group_1148" data-name="Group 1148" transform="translate(726.758 3851.855)">
      <g id="Group_1134" data-name="Group 1134" clip-path="url(#clip-path-2)">
        <text id="_" data-name="®" transform="translate(267.046 26.165)" fill="#fff" font-size="9" font-family="MyanmarText-Bold, Myanmar Text" font-weight="700"><tspan x="0" y="0">®</tspan></text>
        <path id="Path_1892" data-name="Path 1892" d="M10.051,26.247H0l1.52-7.083H30.408a9.062,9.062,0,0,1-3.873,5.762c-2.318,1.367-7.778,1.321-7.778,1.321L13.164,53.18s-.435,1.809-3.048,3.183a12.241,12.241,0,0,1-6.626,1.477Z" transform="translate(0 -4.902)" fill="#fff"/>
        <path id="Path_1893" data-name="Path 1893" d="M53.571,42.264c0,9.245-6.554,17.136-16.236,17.136-7.365,0-11.291-4.62-11.291-10.4,0-9.082,6.536-17.161,16.39-17.161,7.662,0,11.138,5.084,11.138,10.425M34.427,48.8c0,2.742,1.219,4.9,3.991,4.9,4.314,0,6.769-7.067,6.769-11.635,0-2.252-.967-4.514-3.883-4.514-4.415,0-6.9,7.018-6.877,11.254" transform="translate(-6.662 -8.144)" fill="#fff"/>
        <path id="Path_1894" data-name="Path 1894" d="M93.509,32.573l-3.7,17.846c-.7,3.278-1.147,6.206-1.535,8.623h-7.2l.448-4.075-.119-.04a11.894,11.894,0,0,1-9.269,4.66c-4.406,0-6.863-2.477-6.863-7.016a24.72,24.72,0,0,1,.611-5.056L68.99,32.573H77.2l-3,14.432a19.8,19.8,0,0,0-.476,3.726c0,1.569.7,2.769,2.6,2.769,2.575,0,5.26-2.91,6.271-7.733L85.3,32.573Z" transform="translate(-16.695 -8.332)" fill="#fff"/>
        <path id="Path_1895" data-name="Path 1895" d="M102.106,58.855l3.417-16.413c.759-3.694,1.149-7.718,1.477-10.057h7.081c-.139,1.669-.278,3.341-.5,5.125h.194c2.07-3.467,5.113-5.671,8.631-5.671a13.163,13.163,0,0,1,1.473.079l-1.589,7.349c-.335-.032-.839-.058-1.3-.058-4.772,0-7.159,3.7-8.5,9.094s-1.552,10.552-8.5,10.552Z" transform="translate(-26.118 -8.144)" fill="#fff"/>
        <path id="Path_1896" data-name="Path 1896" d="M154.8,84.053a8.877,8.877,0,0,1-2.293,6.078,5.99,5.99,0,0,1-4.312,1.756c-3.251,0-4.771-2.449-4.771-5.121a8.968,8.968,0,0,1,2.4-6.167,6.145,6.145,0,0,1,4.22-1.706C153.425,78.895,154.8,81.36,154.8,84.053Zm-7.837-2.591a7.931,7.931,0,0,0-1.91,5.183c0,2.045.908,3.934,3.371,3.934a4.048,4.048,0,0,0,2.873-1.258,8.034,8.034,0,0,0,1.874-5.2c0-1.783-.586-3.917-3.334-3.917A4.042,4.042,0,0,0,146.959,81.462Zm8.676,10.221,1.207-6.4c.2-1,.324-1.88.426-2.628h1.391l-.233,1.773h.037a3.976,3.976,0,0,1,3.349-1.979,2.217,2.217,0,0,1,2.283,2.507,9.125,9.125,0,0,1-.161,1.457l-1,5.27h-1.545l.988-5.217a6.849,6.849,0,0,0,.122-1.155c0-.906-.349-1.573-1.415-1.573-1.111,0-2.678,1.323-3.088,3.556l-.814,4.389Zm9.974,0,2.528-13.255h1.548l-2.531,13.255Zm4.271,0,1.725-9.029h1.545l-1.725,9.029Zm2.011-11.55a1.028,1.028,0,0,1,1.018-1.048.9.9,0,0,1,.922.972,1.026,1.026,0,0,1-1.05,1.043A.883.883,0,0,1,171.89,80.133Zm2.265,11.55,1.208-6.4c.2-1,.323-1.88.426-2.628h1.391l-.233,1.773h.037a3.977,3.977,0,0,1,3.349-1.979,2.216,2.216,0,0,1,2.283,2.507,9.122,9.122,0,0,1-.161,1.457l-1,5.27h-1.545l.988-5.217a6.848,6.848,0,0,0,.123-1.155c0-.906-.35-1.573-1.415-1.573-1.111,0-2.678,1.323-3.088,3.556l-.814,4.389Zm13.5.2c-2.4,0-3.435-1.635-3.435-3.633,0-2.719,2.02-5.8,4.926-5.8a2.348,2.348,0,0,1,2.652,2.316c0,2.372-2.672,3-6.01,2.933a3.736,3.736,0,0,0,.183,1.718,2.041,2.041,0,0,0,2.009,1.214,5.018,5.018,0,0,0,2.432-.618l.229,1.154A6.362,6.362,0,0,1,187.651,91.879Zm1.273-8.226c-1.474,0-2.588,1.44-2.965,2.853,2.433.028,4.338-.3,4.338-1.7C190.3,84.061,189.731,83.653,188.924,83.653Zm11.419-3.208h-3.675l.266-1.346h8.91l-.261,1.346h-3.695l-2.129,11.238h-1.545ZM212.393,86.2c0,2.789-1.98,5.684-5.016,5.684a3.441,3.441,0,0,1-3.525-3.707c0-2.983,2.07-5.732,5.008-5.732A3.449,3.449,0,0,1,212.393,86.2Zm-6.943,1.916c0,1.467.816,2.541,2.14,2.541,1.821,0,3.2-2.361,3.2-4.461,0-1.055-.487-2.524-2.1-2.524C206.739,83.676,205.448,86.05,205.449,88.12Zm16.832-5.465-1.218,6.4c-.191,1-.317,1.879-.4,2.628h-1.4l.234-1.7-.037,0a4.019,4.019,0,0,1-3.186,1.912c-1.16,0-2.384-.559-2.384-2.614a7.852,7.852,0,0,1,.174-1.52l.976-5.1h1.545l-.959,5.033a7.176,7.176,0,0,0-.153,1.324c0,.933.383,1.571,1.443,1.571,1.128,0,2.566-1.317,2.941-3.3l.88-4.63Zm1.014,9.029,1.1-5.816c.222-1.177.359-2.376.458-3.213h1.364c-.073.627-.147,1.258-.252,1.962h.054a3.285,3.285,0,0,1,2.768-2.167,2.736,2.736,0,0,1,.442.034l-.3,1.528a2.281,2.281,0,0,0-.421-.032c-1.34,0-2.534,1.625-2.925,3.722l-.746,3.983Zm11.741-12.407a13.633,13.633,0,0,1,2.7-.26,4.148,4.148,0,0,1,2.9.863,2.434,2.434,0,0,1,.9,1.959,3.407,3.407,0,0,1-2.71,3.139v.05a2.772,2.772,0,0,1,2.064,2.793,3.628,3.628,0,0,1-1.506,2.913,6.7,6.7,0,0,1-4.073,1.034,15.349,15.349,0,0,1-2.608-.179Zm-.595,11.154a8.519,8.519,0,0,0,1.273.082c1.833.01,3.552-.758,3.552-2.769,0-1.477-1.247-2.125-2.658-2.125h-1.26Zm1.152-5.991h1.152c1.8,0,3.195-.935,3.195-2.465,0-1.212-.915-1.73-2.283-1.73a5.219,5.219,0,0,0-1.286.115ZM251.039,86.2c0,2.789-1.98,5.684-5.017,5.684a3.441,3.441,0,0,1-3.525-3.707c0-2.983,2.071-5.732,5.008-5.732A3.449,3.449,0,0,1,251.039,86.2ZM244.1,88.12c0,1.467.815,2.541,2.14,2.541,1.821,0,3.2-2.361,3.2-4.461,0-1.055-.487-2.524-2.1-2.524C245.386,83.676,244.094,86.05,244.1,88.12ZM260.841,86.2c0,2.789-1.98,5.684-5.016,5.684a3.441,3.441,0,0,1-3.525-3.707c0-2.983,2.07-5.732,5.008-5.732A3.448,3.448,0,0,1,260.841,86.2ZM253.9,88.12c0,1.467.815,2.541,2.14,2.541,1.821,0,3.205-2.361,3.205-4.461,0-1.055-.487-2.524-2.1-2.524C255.187,83.676,253.9,86.05,253.9,88.12Zm8.028,3.563,2.519-13.255h1.54l-1.586,8.31h.037c.275-.317.608-.661.845-.91l3.182-3.173h1.914l-3.94,3.706,2.7,5.323h-1.7l-2.174-4.456-1.143,1.019-.649,3.438Zm8.639,0,1.725-9.029h1.544l-1.724,9.029Zm2.011-11.55a1.027,1.027,0,0,1,1.018-1.048.9.9,0,0,1,.922.972,1.026,1.026,0,0,1-1.05,1.043A.882.882,0,0,1,272.575,80.133Zm2.265,11.55,1.208-6.4c.2-1,.323-1.88.426-2.628h1.391l-.233,1.773h.037a3.977,3.977,0,0,1,3.349-1.979,2.217,2.217,0,0,1,2.283,2.507,9.123,9.123,0,0,1-.161,1.457l-1,5.27h-1.545l.988-5.217a6.848,6.848,0,0,0,.123-1.155c0-.906-.35-1.573-1.415-1.573-1.111,0-2.678,1.323-3.088,3.556l-.814,4.389Zm10.048,2.051a4.734,4.734,0,0,0,2.4.591c1.518,0,2.71-.77,3.246-3.216l.3-1.35h-.047a3.605,3.605,0,0,1-3.139,1.919,2.847,2.847,0,0,1-2.751-3.128,5.89,5.89,0,0,1,5.733-6.1,7.355,7.355,0,0,1,2.9.63l-1.385,7.461c-.362,1.914-.88,3.232-1.821,4.043a4.8,4.8,0,0,1-3.153,1,5.218,5.218,0,0,1-2.707-.638ZM291.828,84a3.6,3.6,0,0,0-1.494-.308c-2.259,0-3.816,2.362-3.825,4.593-.006,1,.354,2.164,1.73,2.164,1.331,0,2.678-1.678,3.013-3.44Z" transform="translate(-36.685 -20.061)" fill="#fff"/>
        <path id="Path_1897" data-name="Path 1897" d="M160.294,11.978c11.109,0,15.606,8.087,15.606,16.923,0,7.153-2.623,15.049-7.522,19.94A19.653,19.653,0,0,1,154.233,54.6c-10.664,0-15.651-8.036-15.651-16.8,0-7.254,2.843-15.314,7.871-20.23a20.157,20.157,0,0,1,13.841-5.595Zm-.674,4.292A13.258,13.258,0,0,0,150.19,20.4c-3.97,3.981-6.265,11.235-6.265,17,0,6.711,2.979,12.906,11.057,12.906a13.284,13.284,0,0,0,9.427-4.126c3.9-3.907,6.146-11.321,6.146-17.065,0-5.849-1.922-12.849-10.936-12.849Zm19.027,37.659,3.961-21c.657-3.295,1.061-6.166,1.4-8.62h4.561L187.8,30.13h.123c2.664-4.168,6.649-6.492,10.985-6.492,3.516,0,7.489,2.026,7.489,8.223a29.957,29.957,0,0,1-.527,4.78l-3.29,17.287h-5.068l3.238-17.112a22.439,22.439,0,0,0,.4-3.79c0-2.972-1.146-5.162-4.642-5.162-3.644,0-8.785,4.341-10.129,11.665l-2.669,14.4Zm32.715,0,8.292-43.481h5.078l-8.3,43.481Zm14.01,0,5.658-29.617H236.1l-5.657,29.617Zm6.594-37.887a3.373,3.373,0,0,1,3.341-3.438,2.959,2.959,0,0,1,3.024,3.19,3.365,3.365,0,0,1-3.444,3.418A2.9,2.9,0,0,1,231.965,16.041Zm7.429,37.887,3.96-21c.657-3.295,1.061-6.166,1.4-8.62h4.562l-.764,5.818h.122c2.664-4.168,6.65-6.492,10.986-6.492,3.516,0,7.489,2.026,7.489,8.223a29.963,29.963,0,0,1-.527,4.78l-3.29,17.287h-5.068L261.5,36.817a22.442,22.442,0,0,0,.4-3.79c0-2.972-1.146-5.162-4.642-5.162-3.644,0-8.785,4.341-10.129,11.665l-2.67,14.4Zm44.269.643c-7.869,0-11.269-5.362-11.269-11.917,0-8.919,6.625-19.016,16.16-19.016,5.634,0,8.693,3.359,8.7,7.6,0,7.778-8.765,9.827-19.713,9.62a12.267,12.267,0,0,0,.6,5.636,6.7,6.7,0,0,0,6.59,3.981,16.437,16.437,0,0,0,7.979-2.03l.749,3.788A20.865,20.865,0,0,1,283.664,54.571Zm4.175-26.982c-4.837,0-8.489,4.723-9.727,9.358,7.981.093,14.231-.97,14.231-5.587C292.343,28.925,290.485,27.589,287.839,27.589Z" transform="translate(-35.448 -2.672)" fill="#fff"/>
      </g>
    </g>
  </g>
</svg>
