<svg xmlns="http://www.w3.org/2000/svg" width="278" height="103" viewBox="0 0 278 103">
  <g id="Group_1155" data-name="Group 1155" transform="translate(-496 -2757)">
    <path id="Path_1910" data-name="Path 1910" d="M51.5,0A51.5,51.5,0,1,1,0,51.5,51.5,51.5,0,0,1,51.5,0Z" transform="translate(496 2757)" fill="#0088d6"/>
    <path id="Path_1908" data-name="Path 1908" d="M51.5,0A51.5,51.5,0,1,1,0,51.5,51.5,51.5,0,0,1,51.5,0Z" transform="translate(587 2757)" fill="#40bd66"/>
    <path id="Path_1909" data-name="Path 1909" d="M51.5,0A51.5,51.5,0,1,1,0,51.5,51.5,51.5,0,0,1,51.5,0Z" transform="translate(671 2757)" fill="#ee8041"/>
    <path id="Path_1911" data-name="Path 1911" d="M25.964,17.112a5.862,5.862,0,0,1-2.9-.736,5.5,5.5,0,0,1-2.1-2.056,5.746,5.746,0,0,1-.776-2.968,5.7,5.7,0,0,1,.776-2.96,5.519,5.519,0,0,1,2.1-2.048,6.1,6.1,0,0,1,5.808,0,5.4,5.4,0,0,1,2.08,2.048,5.8,5.8,0,0,1,.76,2.96,5.793,5.793,0,0,1-.768,2.968,5.461,5.461,0,0,1-2.08,2.056A5.818,5.818,0,0,1,25.964,17.112Zm0-2.5a2.756,2.756,0,0,0,2.152-.9,3.4,3.4,0,0,0,.808-2.368,3.4,3.4,0,0,0-.808-2.376,2.768,2.768,0,0,0-2.152-.888,2.8,2.8,0,0,0-2.168.88,3.389,3.389,0,0,0-.808,2.384,3.4,3.4,0,0,0,.808,2.376A2.787,2.787,0,0,0,25.964,14.616ZM38.956,17,36.62,12.76h-.656V17H33.228V5.768H37.82a5.055,5.055,0,0,1,2.264.464,3.2,3.2,0,0,1,1.4,1.272,3.549,3.549,0,0,1,.464,1.8,3.343,3.343,0,0,1-.632,2,3.4,3.4,0,0,1-1.864,1.248L42.044,17Zm-2.992-6.176h1.7a1.553,1.553,0,0,0,1.128-.368,1.389,1.389,0,0,0,.376-1.04,1.346,1.346,0,0,0-.376-1.008A1.553,1.553,0,0,0,37.66,8.04h-1.7Zm14.688,4.192H46.46L45.788,17H42.924L46.988,5.768h3.168L54.22,17h-2.9Zm-.7-2.112L48.556,8.792,47.18,12.9ZM65.5,17H62.764l-4.576-6.928V17H55.452V5.768h2.736l4.576,6.96V5.768H65.5Zm9.44-7.68a2.046,2.046,0,0,0-.872-.856,2.853,2.853,0,0,0-1.336-.3A2.749,2.749,0,0,0,70.6,9.04a3.309,3.309,0,0,0-.8,2.328,3.349,3.349,0,0,0,.84,2.424,3.059,3.059,0,0,0,2.312.872,2.8,2.8,0,0,0,1.7-.512,2.9,2.9,0,0,0,1.016-1.472H72.2V10.664h5.952v2.544a5.367,5.367,0,0,1-1.032,1.9,5.445,5.445,0,0,1-1.848,1.424,5.712,5.712,0,0,1-2.528.544,5.984,5.984,0,0,1-2.968-.728,5.185,5.185,0,0,1-2.032-2.024,5.939,5.939,0,0,1-.728-2.96A5.984,5.984,0,0,1,67.748,8.4a5.185,5.185,0,0,1,2.024-2.032,5.939,5.939,0,0,1,2.96-.728,5.751,5.751,0,0,1,3.4.976,4.606,4.606,0,0,1,1.832,2.7Zm7.472-1.36v2.272h3.664v2.112H82.412v2.464h4.144V17h-6.88V5.768h6.88V7.96ZM38.484,25.768v7.648a3.615,3.615,0,0,1-1,2.736,3.73,3.73,0,0,1-2.7.96A3.988,3.988,0,0,1,31.94,36.1a3.741,3.741,0,0,1-1.072-2.864h2.72a1.676,1.676,0,0,0,.288,1.064,1,1,0,0,0,.832.36.953.953,0,0,0,.768-.32,1.4,1.4,0,0,0,.272-.928V25.768Zm4.9,0v6.72a2.224,2.224,0,0,0,.5,1.552,1.871,1.871,0,0,0,1.456.544A1.924,1.924,0,0,0,46.8,34.04a2.179,2.179,0,0,0,.512-1.552v-6.72h2.736v6.7a4.766,4.766,0,0,1-.64,2.544,4.1,4.1,0,0,1-1.72,1.568,5.409,5.409,0,0,1-2.408.528,5.274,5.274,0,0,1-2.376-.52,3.877,3.877,0,0,1-1.656-1.568,5.008,5.008,0,0,1-.608-2.552v-6.7Zm11.328,0V37H51.972V25.768Zm1.52,5.6a6.037,6.037,0,0,1,.72-2.968,5.146,5.146,0,0,1,2.008-2.032,5.83,5.83,0,0,1,2.92-.728A5.587,5.587,0,0,1,65.3,26.7a5.071,5.071,0,0,1,1.9,2.88H64.2a2.429,2.429,0,0,0-.952-1.072,2.677,2.677,0,0,0-1.4-.368,2.613,2.613,0,0,0-2.048.88,3.405,3.405,0,0,0-.784,2.352A3.405,3.405,0,0,0,59.8,33.72a2.613,2.613,0,0,0,2.048.88,2.677,2.677,0,0,0,1.4-.368A2.429,2.429,0,0,0,64.2,33.16H67.2a5.034,5.034,0,0,1-1.9,2.872,5.617,5.617,0,0,1-3.424,1.048,5.83,5.83,0,0,1-2.92-.728,5.16,5.16,0,0,1-2.008-2.024A5.992,5.992,0,0,1,56.228,31.368ZM71.62,27.96v2.272h3.664v2.112H71.62v2.464h4.144V37h-6.88V25.768h6.88V27.96Z" transform="translate(668 2786)" fill="#fff"/>
    <path id="Path_1912" data-name="Path 1912" d="M33.636,17,31.3,12.76h-.656V17H27.908V5.768H32.5a5.055,5.055,0,0,1,2.264.464,3.2,3.2,0,0,1,1.4,1.272,3.549,3.549,0,0,1,.464,1.8,3.343,3.343,0,0,1-.632,2,3.4,3.4,0,0,1-1.864,1.248L36.724,17Zm-2.992-6.176h1.7a1.553,1.553,0,0,0,1.128-.368,1.389,1.389,0,0,0,.376-1.04,1.346,1.346,0,0,0-.376-1.008A1.553,1.553,0,0,0,32.34,8.04h-1.7Zm13.008,6.288a5.862,5.862,0,0,1-2.9-.736,5.5,5.5,0,0,1-2.1-2.056,5.746,5.746,0,0,1-.776-2.968,5.7,5.7,0,0,1,.776-2.96,5.519,5.519,0,0,1,2.1-2.048,6.1,6.1,0,0,1,5.808,0,5.4,5.4,0,0,1,2.08,2.048,5.8,5.8,0,0,1,.76,2.96,5.793,5.793,0,0,1-.768,2.968,5.461,5.461,0,0,1-2.08,2.056A5.818,5.818,0,0,1,43.652,17.112Zm0-2.5a2.756,2.756,0,0,0,2.152-.9,3.4,3.4,0,0,0,.808-2.368A3.4,3.4,0,0,0,45.8,8.976a2.768,2.768,0,0,0-2.152-.888,2.8,2.8,0,0,0-2.168.88,3.389,3.389,0,0,0-.808,2.384,3.4,3.4,0,0,0,.808,2.376A2.787,2.787,0,0,0,43.652,14.616Zm16.9-8.848-3.888,7.52V17H53.924V13.288l-3.888-7.52h3.1l2.176,4.7,2.16-4.7Zm8.1,9.248H64.452L63.78,17H60.916L64.98,5.768h3.168L72.212,17h-2.9Zm-.7-2.112L66.548,8.792,65.172,12.9Zm8.24,1.984h3.584V17h-6.32V5.768H76.18ZM42.236,31.24a2.612,2.612,0,0,1,1.568.968,2.944,2.944,0,0,1-.392,3.968A4.151,4.151,0,0,1,40.668,37H35.436V25.768h5.056a4.146,4.146,0,0,1,2.68.784,2.843,2.843,0,0,1,.448,3.776A2.689,2.689,0,0,1,42.236,31.24Zm-4.064-.928h1.792a1.586,1.586,0,0,0,1.032-.3,1.063,1.063,0,0,0,.36-.872,1.087,1.087,0,0,0-.36-.88,1.557,1.557,0,0,0-1.032-.3H38.172Zm2.016,4.48a1.622,1.622,0,0,0,1.064-.312,1.108,1.108,0,0,0,.376-.9,1.157,1.157,0,0,0-.392-.928,1.606,1.606,0,0,0-1.08-.336H38.172v2.48Zm8.528.1H52.3V37H45.98V25.768h2.736Zm7.584-9.12v6.72a2.224,2.224,0,0,0,.5,1.552,1.871,1.871,0,0,0,1.456.544,1.924,1.924,0,0,0,1.472-.544,2.179,2.179,0,0,0,.512-1.552v-6.72h2.736v6.7a4.766,4.766,0,0,1-.64,2.544,4.1,4.1,0,0,1-1.72,1.568,5.409,5.409,0,0,1-2.408.528,5.274,5.274,0,0,1-2.376-.52,3.877,3.877,0,0,1-1.656-1.568,5.007,5.007,0,0,1-.608-2.552v-6.7ZM67.628,27.96v2.272h3.664v2.112H67.628v2.464h4.144V37h-6.88V25.768h6.88V27.96Z" transform="translate(493 2786)" fill="#fff"/>
    <path id="Path_1913" data-name="Path 1913" d="M31.948,5.768V7.96H27.372v2.368H30.8v2.128H27.372V17H24.636V5.768ZM38.7,17.112a5.862,5.862,0,0,1-2.9-.736,5.5,5.5,0,0,1-2.1-2.056,5.746,5.746,0,0,1-.776-2.968,5.7,5.7,0,0,1,.776-2.96,5.519,5.519,0,0,1,2.1-2.048,6.1,6.1,0,0,1,5.808,0,5.4,5.4,0,0,1,2.08,2.048,5.8,5.8,0,0,1,.76,2.96,5.793,5.793,0,0,1-.768,2.968,5.461,5.461,0,0,1-2.08,2.056A5.818,5.818,0,0,1,38.7,17.112Zm0-2.5a2.756,2.756,0,0,0,2.152-.9,3.4,3.4,0,0,0,.808-2.368,3.4,3.4,0,0,0-.808-2.376A2.768,2.768,0,0,0,38.7,8.088a2.8,2.8,0,0,0-2.168.88,3.389,3.389,0,0,0-.808,2.384,3.4,3.4,0,0,0,.808,2.376A2.787,2.787,0,0,0,38.7,14.616ZM51.692,17l-2.336-4.24H48.7V17H45.964V5.768h4.592a5.055,5.055,0,0,1,2.264.464A3.2,3.2,0,0,1,54.22,7.5a3.549,3.549,0,0,1,.464,1.8,3.343,3.343,0,0,1-.632,2,3.4,3.4,0,0,1-1.864,1.248L54.78,17ZM48.7,10.824h1.7a1.553,1.553,0,0,0,1.128-.368,1.389,1.389,0,0,0,.376-1.04,1.346,1.346,0,0,0-.376-1.008A1.553,1.553,0,0,0,50.4,8.04H48.7ZM59.132,7.96v2.272H62.8v2.112H59.132v2.464h4.144V17H56.4V5.768h6.88V7.96Zm9.984,9.152a5.778,5.778,0,0,1-2.208-.4,3.6,3.6,0,0,1-1.56-1.184,3.235,3.235,0,0,1-.616-1.888h2.912a1.413,1.413,0,0,0,.432.952,1.389,1.389,0,0,0,.96.328,1.5,1.5,0,0,0,.96-.28.936.936,0,0,0,.352-.776.919.919,0,0,0-.28-.688,2.259,2.259,0,0,0-.688-.448,11.066,11.066,0,0,0-1.16-.4,12.63,12.63,0,0,1-1.776-.672,3.281,3.281,0,0,1-1.184-.992,2.764,2.764,0,0,1-.5-1.712A2.944,2.944,0,0,1,65.9,6.5a4.668,4.668,0,0,1,2.96-.888,4.722,4.722,0,0,1,2.992.888,3.179,3.179,0,0,1,1.216,2.472h-2.96a1.158,1.158,0,0,0-.4-.856,1.409,1.409,0,0,0-.944-.312,1.177,1.177,0,0,0-.8.264.952.952,0,0,0-.3.76.942.942,0,0,0,.512.848,8.393,8.393,0,0,0,1.6.656,14.8,14.8,0,0,1,1.768.7,3.366,3.366,0,0,1,1.176.976,2.613,2.613,0,0,1,.5,1.648,3.234,3.234,0,0,1-.488,1.744,3.418,3.418,0,0,1-1.416,1.248A4.847,4.847,0,0,1,69.116,17.112ZM82.972,5.768V7.96H80V17H77.26V7.96H74.284V5.768Zm-52.872,20a6.533,6.533,0,0,1,3.1.7,5.03,5.03,0,0,1,2.056,1.976,6.268,6.268,0,0,1,0,5.864A5,5,0,0,1,33.2,36.3a6.545,6.545,0,0,1-3.1.7H25.892V25.768Zm-.176,8.864a3.3,3.3,0,0,0,2.416-.848,3.211,3.211,0,0,0,.864-2.4,3,3,0,0,0-3.28-3.28h-1.3v6.528ZM43.252,37l-2.336-4.24H40.26V37H37.524V25.768h4.592a5.055,5.055,0,0,1,2.264.464,3.2,3.2,0,0,1,1.4,1.272,3.549,3.549,0,0,1,.464,1.8,3.343,3.343,0,0,1-.632,2,3.4,3.4,0,0,1-1.864,1.248L46.34,37ZM40.26,30.824h1.7a1.553,1.553,0,0,0,1.128-.368,1.389,1.389,0,0,0,.376-1.04,1.346,1.346,0,0,0-.376-1.008,1.553,1.553,0,0,0-1.128-.368h-1.7ZM50.692,27.96v2.272h3.664v2.112H50.692v2.464h4.144V37h-6.88V25.768h6.88V27.96ZM63.6,35.016H59.412L58.74,37H55.876L59.94,25.768h3.168L67.172,37h-2.9ZM62.9,32.9l-1.392-4.112L60.132,32.9Zm18.224-7.136V37H78.388V30.264L75.876,37H73.668L71.14,30.248V37H68.4V25.768h3.232l3.152,7.776,3.12-7.776Z" transform="translate(582 2786)" fill="#fff"/>
  </g>
</svg>
