<svg xmlns="http://www.w3.org/2000/svg" width="278" height="103" viewBox="0 0 278 103">
  <g id="Group_1157" data-name="Group 1157" transform="translate(-167 -2757)">
    <path id="Path_1916" data-name="Path 1916" d="M51.5,0A51.5,51.5,0,1,1,0,51.5,51.5,51.5,0,0,1,51.5,0Z" transform="translate(167 2757)" fill="#0088d6"/>
    <path id="Path_1914" data-name="Path 1914" d="M51.5,0A51.5,51.5,0,1,1,0,51.5,51.5,51.5,0,0,1,51.5,0Z" transform="translate(258 2757)" fill="#40bd66"/>
    <path id="Path_1915" data-name="Path 1915" d="M51.5,0A51.5,51.5,0,1,1,0,51.5,51.5,51.5,0,0,1,51.5,0Z" transform="translate(342 2757)" fill="#ee8041"/>
    <path id="Path_1917" data-name="Path 1917" d="M46.348,5.768v7.648a3.615,3.615,0,0,1-1,2.736,3.73,3.73,0,0,1-2.7.96A3.988,3.988,0,0,1,39.8,16.1a3.741,3.741,0,0,1-1.072-2.864h2.72A1.676,1.676,0,0,0,41.74,14.3a1,1,0,0,0,.832.36.953.953,0,0,0,.768-.32,1.4,1.4,0,0,0,.272-.928V5.768Zm4.9,0v6.72a2.224,2.224,0,0,0,.5,1.552,1.871,1.871,0,0,0,1.456.544,1.924,1.924,0,0,0,1.472-.544,2.179,2.179,0,0,0,.512-1.552V5.768h2.736v6.7a4.766,4.766,0,0,1-.64,2.544,4.1,4.1,0,0,1-1.72,1.568,5.409,5.409,0,0,1-2.408.528,5.274,5.274,0,0,1-2.376-.52,3.877,3.877,0,0,1-1.656-1.568,5.008,5.008,0,0,1-.608-2.552v-6.7ZM63.9,17.112a5.778,5.778,0,0,1-2.208-.4,3.6,3.6,0,0,1-1.56-1.184,3.235,3.235,0,0,1-.616-1.888h2.912a1.413,1.413,0,0,0,.432.952,1.389,1.389,0,0,0,.96.328,1.5,1.5,0,0,0,.96-.28.936.936,0,0,0,.352-.776.919.919,0,0,0-.28-.688,2.259,2.259,0,0,0-.688-.448,11.067,11.067,0,0,0-1.16-.4,12.63,12.63,0,0,1-1.776-.672,3.281,3.281,0,0,1-1.184-.992,2.764,2.764,0,0,1-.5-1.712A2.944,2.944,0,0,1,60.684,6.5a4.668,4.668,0,0,1,2.96-.888,4.722,4.722,0,0,1,2.992.888,3.179,3.179,0,0,1,1.216,2.472h-2.96a1.158,1.158,0,0,0-.4-.856,1.409,1.409,0,0,0-.944-.312,1.177,1.177,0,0,0-.8.264.952.952,0,0,0-.3.76.942.942,0,0,0,.512.848,8.393,8.393,0,0,0,1.6.656,14.8,14.8,0,0,1,1.768.7,3.366,3.366,0,0,1,1.176.976,2.613,2.613,0,0,1,.5,1.648,3.234,3.234,0,0,1-.488,1.744,3.418,3.418,0,0,1-1.416,1.248A4.847,4.847,0,0,1,63.9,17.112ZM17.276,25.768a6.533,6.533,0,0,1,3.1.7,5.03,5.03,0,0,1,2.056,1.976,6.268,6.268,0,0,1,0,5.864A5,5,0,0,1,20.372,36.3a6.545,6.545,0,0,1-3.1.7H13.068V25.768ZM17.1,34.632a3.3,3.3,0,0,0,2.416-.848,3.211,3.211,0,0,0,.864-2.4,3.266,3.266,0,0,0-.864-2.416A3.266,3.266,0,0,0,17.1,28.1H15.8v6.528ZM26.6,24.2,26.4,27.736h-1.84L24.348,24.2Zm6.944,12.912a5.862,5.862,0,0,1-2.9-.736,5.5,5.5,0,0,1-2.1-2.056,6.049,6.049,0,0,1,0-5.928,5.519,5.519,0,0,1,2.1-2.048,6.1,6.1,0,0,1,5.808,0,5.4,5.4,0,0,1,2.08,2.048,6.132,6.132,0,0,1-.008,5.928,5.461,5.461,0,0,1-2.08,2.056A5.818,5.818,0,0,1,33.548,37.112Zm0-2.5a2.756,2.756,0,0,0,2.152-.9,3.4,3.4,0,0,0,.808-2.368,3.4,3.4,0,0,0-.808-2.376,2.768,2.768,0,0,0-2.152-.888,2.8,2.8,0,0,0-2.168.88,3.389,3.389,0,0,0-.808,2.384,3.4,3.4,0,0,0,.808,2.376A2.787,2.787,0,0,0,33.548,34.616ZM46.54,37,44.2,32.76h-.656V37H40.812V25.768H45.4a5.055,5.055,0,0,1,2.264.464,3.2,3.2,0,0,1,1.4,1.272,3.549,3.549,0,0,1,.464,1.8,3.343,3.343,0,0,1-.632,2,3.4,3.4,0,0,1-1.864,1.248L49.628,37Zm-2.992-6.176h1.7a1.553,1.553,0,0,0,1.128-.368,1.389,1.389,0,0,0,.376-1.04,1.346,1.346,0,0,0-.376-1.008,1.553,1.553,0,0,0-1.128-.368h-1.7Zm14.688,4.192H54.044L53.372,37H50.508l4.064-11.232H57.74L61.8,37h-2.9Zm-.7-2.112L56.14,28.792,54.764,32.9ZM73.084,37H70.348l-4.576-6.928V37H63.036V25.768h2.736l4.576,6.96v-6.96h2.736Zm9.44-7.68a2.046,2.046,0,0,0-.872-.856,2.853,2.853,0,0,0-1.336-.3,2.749,2.749,0,0,0-2.128.872,3.309,3.309,0,0,0-.8,2.328,3.349,3.349,0,0,0,.84,2.424,3.059,3.059,0,0,0,2.312.872,2.8,2.8,0,0,0,1.7-.512A2.9,2.9,0,0,0,83.26,32.68H79.788V30.664H85.74v2.544a5.367,5.367,0,0,1-1.032,1.9,5.445,5.445,0,0,1-1.848,1.424,5.712,5.712,0,0,1-2.528.544,5.984,5.984,0,0,1-2.968-.728,5.185,5.185,0,0,1-2.032-2.024,6.4,6.4,0,0,1,0-5.928,5.185,5.185,0,0,1,2.024-2.032,5.939,5.939,0,0,1,2.96-.728,5.751,5.751,0,0,1,3.4.976,4.606,4.606,0,0,1,1.832,2.7ZM90,27.96v2.272H93.66v2.112H90v2.464H94.14V37H87.26V25.768h6.88V27.96Z" transform="translate(339 2786)" fill="#fff"/>
    <path id="Path_1918" data-name="Path 1918" d="M42.236,11.24a2.612,2.612,0,0,1,1.568.968,2.749,2.749,0,0,1,.592,1.736,2.759,2.759,0,0,1-.984,2.232A4.151,4.151,0,0,1,40.668,17H35.436V5.768h5.056a4.146,4.146,0,0,1,2.68.784A2.593,2.593,0,0,1,44.14,8.68a2.57,2.57,0,0,1-.52,1.648A2.689,2.689,0,0,1,42.236,11.24Zm-4.064-.928h1.792a1.587,1.587,0,0,0,1.032-.3,1.063,1.063,0,0,0,.36-.872,1.087,1.087,0,0,0-.36-.88,1.557,1.557,0,0,0-1.032-.3H38.172Zm2.016,4.48a1.622,1.622,0,0,0,1.064-.312,1.108,1.108,0,0,0,.376-.9,1.157,1.157,0,0,0-.392-.928,1.606,1.606,0,0,0-1.08-.336H38.172v2.48Zm8.528.1H52.3V17H45.98V5.768h2.736ZM56.348,7.96v2.272h3.664v2.112H56.348v2.464h4.144V17h-6.88V5.768h6.88V7.96Zm8.608-2.192v6.72a2.224,2.224,0,0,0,.5,1.552,1.871,1.871,0,0,0,1.456.544,1.924,1.924,0,0,0,1.472-.544,2.179,2.179,0,0,0,.512-1.552V5.768h2.736v6.7a4.766,4.766,0,0,1-.64,2.544,4.1,4.1,0,0,1-1.72,1.568,5.409,5.409,0,0,1-2.408.528,5.274,5.274,0,0,1-2.376-.52,3.877,3.877,0,0,1-1.656-1.568,5.008,5.008,0,0,1-.608-2.552v-6.7ZM33.636,37,31.3,32.76h-.656V37H27.908V25.768H32.5a5.055,5.055,0,0,1,2.264.464,3.2,3.2,0,0,1,1.4,1.272,3.549,3.549,0,0,1,.464,1.8,3.343,3.343,0,0,1-.632,2,3.4,3.4,0,0,1-1.864,1.248L36.724,37Zm-2.992-6.176h1.7a1.553,1.553,0,0,0,1.128-.368,1.389,1.389,0,0,0,.376-1.04,1.346,1.346,0,0,0-.376-1.008,1.553,1.553,0,0,0-1.128-.368h-1.7Zm13.008,6.288a5.862,5.862,0,0,1-2.9-.736,5.5,5.5,0,0,1-2.1-2.056,6.049,6.049,0,0,1,0-5.928,5.519,5.519,0,0,1,2.1-2.048,6.1,6.1,0,0,1,5.808,0,5.4,5.4,0,0,1,2.08,2.048,6.132,6.132,0,0,1-.008,5.928,5.461,5.461,0,0,1-2.08,2.056A5.818,5.818,0,0,1,43.652,37.112Zm0-2.5a2.756,2.756,0,0,0,2.152-.9,3.4,3.4,0,0,0,.808-2.368,3.4,3.4,0,0,0-.808-2.376,2.768,2.768,0,0,0-2.152-.888,2.8,2.8,0,0,0-2.168.88,3.389,3.389,0,0,0-.808,2.384,3.4,3.4,0,0,0,.808,2.376A2.787,2.787,0,0,0,43.652,34.616Zm16.9-8.848-3.888,7.52V37H53.924V33.288l-3.888-7.52h3.1l2.176,4.7,2.16-4.7Zm8.1,9.248H64.452L63.78,37H60.916L64.98,25.768h3.168L72.212,37h-2.9Zm-.7-2.112-1.392-4.112L65.172,32.9Zm8.24,1.984h3.584V37h-6.32V25.768H76.18Z" transform="matrix(1, -0.017, 0.017, 1, 163.467, 2786.938)" fill="#fff"/>
    <path id="Path_1919" data-name="Path 1919" d="M36.868,5.768V7.96H32.292v2.368h3.424v2.128H32.292V17H29.556V5.768ZM43.62,17.112a5.862,5.862,0,0,1-2.9-.736,5.5,5.5,0,0,1-2.1-2.056,5.746,5.746,0,0,1-.776-2.968,5.7,5.7,0,0,1,.776-2.96,5.519,5.519,0,0,1,2.1-2.048,6.1,6.1,0,0,1,5.808,0A5.4,5.4,0,0,1,48.6,8.392a5.8,5.8,0,0,1,.76,2.96A5.793,5.793,0,0,1,48.6,14.32a5.461,5.461,0,0,1-2.08,2.056A5.818,5.818,0,0,1,43.62,17.112Zm0-2.5a2.756,2.756,0,0,0,2.152-.9,3.4,3.4,0,0,0,.808-2.368,3.4,3.4,0,0,0-.808-2.376,2.768,2.768,0,0,0-2.152-.888,2.8,2.8,0,0,0-2.168.88,3.389,3.389,0,0,0-.808,2.384,3.4,3.4,0,0,0,.808,2.376A2.787,2.787,0,0,0,43.62,14.616ZM56.612,17l-2.336-4.24H53.62V17H50.884V5.768h4.592a5.055,5.055,0,0,1,2.264.464A3.2,3.2,0,0,1,59.14,7.5,3.549,3.549,0,0,1,59.6,9.3a3.343,3.343,0,0,1-.632,2,3.4,3.4,0,0,1-1.864,1.248L59.7,17ZM53.62,10.824h1.7a1.553,1.553,0,0,0,1.128-.368,1.389,1.389,0,0,0,.376-1.04,1.346,1.346,0,0,0-.376-1.008,1.553,1.553,0,0,0-1.128-.368h-1.7ZM64.052,7.96v2.272h3.664v2.112H64.052v2.464H68.2V17h-6.88V5.768H68.2V7.96Zm.624-4.144L62.2,5.128V3.24l2.48-1.264,2.48,1.264V5.128ZM78.052,5.768V7.96H75.076V17H72.34V7.96H69.364V5.768Zm-50.9,20a6.533,6.533,0,0,1,3.1.7,5.03,5.03,0,0,1,2.056,1.976,6.268,6.268,0,0,1,0,5.864A5,5,0,0,1,30.244,36.3a6.545,6.545,0,0,1-3.1.7H22.94V25.768Zm-.176,8.864a3.3,3.3,0,0,0,2.416-.848,3.211,3.211,0,0,0,.864-2.4,3,3,0,0,0-3.28-3.28h-1.3v6.528ZM37.308,27.96v2.272h3.664v2.112H37.308v2.464h4.144V37h-6.88V25.768h6.88V27.96ZM52.348,37l-2.336-4.24h-.656V37H46.62V25.768h4.592a5.055,5.055,0,0,1,2.264.464,3.2,3.2,0,0,1,1.4,1.272,3.549,3.549,0,0,1,.464,1.8,3.343,3.343,0,0,1-.632,2,3.4,3.4,0,0,1-1.864,1.248L55.436,37Zm-2.992-6.176h1.7a1.553,1.553,0,0,0,1.128-.368,1.389,1.389,0,0,0,.376-1.04,1.346,1.346,0,0,0-.376-1.008,1.553,1.553,0,0,0-1.128-.368h-1.7ZM59.788,27.96v2.272h3.664v2.112H59.788v2.464h4.144V37h-6.88V25.768h6.88V27.96Zm.624-4.144-2.48,1.312V23.24l2.48-1.264,2.48,1.264v1.888Zm15.84,1.952L72.268,37H68.844L64.86,25.768h2.912l2.784,8.48,2.8-8.48Zm3.872,2.192v2.272h3.664v2.112H80.124v2.464h4.144V37h-6.88V25.768h6.88V27.96Z" transform="translate(253 2786)" fill="#fff"/>
  </g>
</svg>
