<svg xmlns="http://www.w3.org/2000/svg" xmlns:xlink="http://www.w3.org/1999/xlink" width="302.969" height="149.556" viewBox="0 0 302.969 149.556">
  <defs>
    <clipPath id="clip-path">
      <rect id="Rectangle_1027" data-name="Rectangle 1027" width="139.472" height="149.556" fill="#e5e5e5"/>
    </clipPath>
    <clipPath id="clip-path-2">
      <rect id="Rectangle_1023" data-name="Rectangle 1023" width="302.969" height="83.069" fill="none"/>
    </clipPath>
  </defs>
  <g id="Group_1151" data-name="Group 1151" transform="translate(-335.512 -279.417)">
    <g id="Group_1149" data-name="Group 1149" transform="translate(401.761 279.417)">
      <g id="Group_1146" data-name="Group 1146" transform="translate(0 0)" clip-path="url(#clip-path)">
        <path id="Path_1898" data-name="Path 1898" d="M137,32.462c-14.98-24.468-47.065-20.06-75,.7-56.294,41.844-53.98,85.1-53.98,85.1-2.971-3.109-19.166-34.5,23.3-81.664A115.065,115.065,0,0,1,94.06,1.057c21.378-4.166,39.232,3.511,42.941,31.4" transform="translate(2.471 0)" fill="#e5e5e5"/>
        <path id="Path_1899" data-name="Path 1899" d="M0,104.441c15.841,23.92,47.75,18.374,74.925-3.368C129.7,57.251,125.846,14.1,125.846,14.1c3.078,3,20.381,33.8-20.377,82.442A115.053,115.053,0,0,1,44.031,134.3C22.813,139.221,4.7,132.186,0,104.441" transform="translate(0 13.808)" fill="#e5e5e5"/>
      </g>
    </g>
    <g id="Group_1150" data-name="Group 1150" transform="translate(335.512 312.661)">
      <g id="Group_1134" data-name="Group 1134" clip-path="url(#clip-path-2)">
        <text id="_" data-name="®" transform="translate(290.778 28.601)" fill="#006cb7" font-size="10" font-family="MyanmarText-Bold, Myanmar Text" font-weight="700"><tspan x="0" y="0">®</tspan></text>
        <path id="Path_1892" data-name="Path 1892" d="M10.945,26.876H0l1.655-7.712H33.111a9.868,9.868,0,0,1-4.217,6.274c-2.524,1.489-8.469,1.438-8.469,1.438L14.333,56.2s-.474,1.97-3.319,3.466A13.328,13.328,0,0,1,3.8,61.278Z" transform="translate(0 -3.635)" fill="#006cb7"/>
        <path id="Path_1893" data-name="Path 1893" d="M56.017,43.19c0,10.066-7.136,18.659-17.679,18.659-8.02,0-12.295-5.031-12.295-11.324,0-9.889,7.116-18.687,17.846-18.687,8.343,0,12.128,5.535,12.128,11.351M35.172,50.306c0,2.986,1.327,5.33,4.346,5.33,4.7,0,7.371-7.7,7.371-12.669,0-2.452-1.053-4.916-4.228-4.916-4.807,0-7.512,7.642-7.488,12.254" transform="translate(-4.939 -6.038)" fill="#006cb7"/>
        <path id="Path_1894" data-name="Path 1894" d="M96.019,32.573,91.987,52.005c-.765,3.57-1.249,6.757-1.671,9.389H82.478l.488-4.437-.13-.044a12.951,12.951,0,0,1-10.093,5.074c-4.8,0-7.473-2.7-7.473-7.639a26.917,26.917,0,0,1,.665-5.505l3.386-16.271h8.935L74.989,48.288a21.554,21.554,0,0,0-.519,4.057c0,1.708.759,3.015,2.826,3.015,2.8,0,5.728-3.168,6.828-8.42l2.961-14.367Z" transform="translate(-12.379 -6.178)" fill="#006cb7"/>
        <path id="Path_1895" data-name="Path 1895" d="M102.106,61.255l3.72-17.871c.827-4.022,1.251-8.4,1.609-10.95h7.71c-.152,1.817-.3,3.638-.545,5.58h.211c2.254-3.775,5.567-6.175,9.4-6.175a14.333,14.333,0,0,1,1.6.086l-1.73,8c-.365-.035-.913-.063-1.421-.063-5.2,0-7.795,4.03-9.253,9.9s-1.69,11.49-9.261,11.49Z" transform="translate(-19.365 -6.038)" fill="#006cb7"/>
        <path id="Path_1896" data-name="Path 1896" d="M155.807,84.553a9.665,9.665,0,0,1-2.5,6.618,6.522,6.522,0,0,1-4.7,1.912c-3.54,0-5.2-2.667-5.2-5.576a9.765,9.765,0,0,1,2.613-6.715,6.691,6.691,0,0,1,4.595-1.857C154.314,78.936,155.807,81.621,155.807,84.553Zm-8.534-2.822a8.636,8.636,0,0,0-2.079,5.644c0,2.227.989,4.283,3.67,4.283a4.408,4.408,0,0,0,3.129-1.369,8.748,8.748,0,0,0,2.04-5.664c0-1.942-.639-4.265-3.63-4.265A4.4,4.4,0,0,0,147.273,81.732Zm9.447,11.129,1.314-6.97c.219-1.093.353-2.047.464-2.861h1.515l-.254,1.931h.04a4.33,4.33,0,0,1,3.647-2.155,2.414,2.414,0,0,1,2.486,2.729,9.935,9.935,0,0,1-.175,1.587l-1.092,5.739h-1.682l1.075-5.681a7.457,7.457,0,0,0,.133-1.258c0-.986-.38-1.713-1.54-1.713-1.21,0-2.916,1.441-3.362,3.872l-.887,4.779Zm10.86,0,2.753-14.433h1.686l-2.756,14.433Zm4.651,0,1.878-9.831h1.682l-1.878,9.831Zm2.19-12.577a1.119,1.119,0,0,1,1.109-1.141.982.982,0,0,1,1,1.058,1.117,1.117,0,0,1-1.143,1.135A.961.961,0,0,1,174.421,80.285Zm2.466,12.577,1.315-6.97c.218-1.093.352-2.047.464-2.861h1.515l-.254,1.931h.04a4.331,4.331,0,0,1,3.647-2.155,2.413,2.413,0,0,1,2.486,2.729,9.933,9.933,0,0,1-.175,1.587l-1.092,5.739H183.15l1.075-5.681a7.456,7.456,0,0,0,.134-1.258c0-.986-.381-1.713-1.541-1.713-1.21,0-2.916,1.441-3.362,3.872l-.887,4.779Zm14.7.213c-2.612,0-3.741-1.78-3.741-3.956,0-2.96,2.2-6.312,5.364-6.312,1.871,0,2.886,1.115,2.887,2.522,0,2.583-2.909,3.262-6.544,3.194a4.068,4.068,0,0,0,.2,1.87,2.222,2.222,0,0,0,2.187,1.322,5.464,5.464,0,0,0,2.648-.673l.249,1.257A6.927,6.927,0,0,1,191.582,93.074Zm1.386-8.957c-1.605,0-2.818,1.568-3.228,3.107,2.649.031,4.724-.323,4.724-1.854C194.463,84.562,193.846,84.117,192.968,84.117ZM205.4,80.625h-4l.289-1.465h9.7l-.284,1.465h-4.023l-2.318,12.236h-1.682Zm13.12,6.27c0,3.037-2.156,6.189-5.462,6.189a3.746,3.746,0,0,1-3.839-4.036c0-3.248,2.254-6.241,5.453-6.241C217.325,82.806,218.522,84.812,218.522,86.895Zm-7.561,2.087c0,1.6.888,2.767,2.331,2.767,1.983,0,3.489-2.571,3.489-4.857,0-1.148-.53-2.749-2.291-2.749C212.366,84.143,210.96,86.728,210.962,88.981Zm18.328-5.951L227.963,90c-.207,1.093-.345,2.046-.439,2.861H226l.255-1.856-.041,0a4.376,4.376,0,0,1-3.469,2.082c-1.263,0-2.6-.609-2.6-2.847a8.549,8.549,0,0,1,.19-1.655L221.4,83.03h1.682l-1.045,5.48a7.814,7.814,0,0,0-.167,1.442c0,1.016.417,1.711,1.571,1.711,1.229,0,2.794-1.434,3.2-3.591l.958-5.041Zm1.1,9.831,1.2-6.333c.242-1.281.391-2.587.5-3.5h1.485c-.079.683-.16,1.37-.274,2.136h.059a3.577,3.577,0,0,1,3.014-2.36,2.979,2.979,0,0,1,.481.036l-.327,1.664a2.484,2.484,0,0,0-.459-.035c-1.459,0-2.759,1.769-3.185,4.053l-.812,4.337Zm12.784-13.509a14.845,14.845,0,0,1,2.938-.284,4.517,4.517,0,0,1,3.16.94,2.65,2.65,0,0,1,.983,2.133,3.709,3.709,0,0,1-2.95,3.418v.054a3.018,3.018,0,0,1,2.248,3.041,3.95,3.95,0,0,1-1.64,3.172,7.292,7.292,0,0,1-4.435,1.126,16.713,16.713,0,0,1-2.839-.194ZM242.529,91.5a9.277,9.277,0,0,0,1.386.089c2,.011,3.868-.825,3.868-3.015,0-1.609-1.357-2.314-2.894-2.314h-1.372Zm1.254-6.523h1.254c1.965,0,3.479-1.018,3.479-2.684,0-1.32-1-1.883-2.486-1.883a5.683,5.683,0,0,0-1.4.126Zm16.82,1.921c0,3.037-2.156,6.189-5.463,6.189a3.746,3.746,0,0,1-3.839-4.036c0-3.248,2.255-6.241,5.453-6.241C259.406,82.806,260.6,84.812,260.6,86.895Zm-7.561,2.087c0,1.6.887,2.767,2.331,2.767,1.983,0,3.489-2.571,3.489-4.857,0-1.148-.53-2.749-2.291-2.749C254.447,84.143,253.041,86.728,253.043,88.981Zm18.233-2.087c0,3.037-2.156,6.189-5.462,6.189a3.746,3.746,0,0,1-3.839-4.036c0-3.248,2.254-6.241,5.453-6.241C270.079,82.806,271.276,84.812,271.276,86.895Zm-7.56,2.087c0,1.6.887,2.767,2.33,2.767,1.983,0,3.49-2.571,3.49-4.857,0-1.148-.531-2.749-2.292-2.749C265.119,84.143,263.714,86.728,263.716,88.981Zm8.741,3.88L275.2,78.428h1.677l-1.727,9.048h.041c.3-.345.662-.72.92-.991l3.464-3.455h2.084l-4.29,4.036,2.935,5.8h-1.856l-2.367-4.852-1.245,1.109-.707,3.743Zm9.406,0,1.878-9.831h1.681l-1.878,9.831Zm2.19-12.577a1.119,1.119,0,0,1,1.109-1.141.982.982,0,0,1,1,1.058,1.117,1.117,0,0,1-1.143,1.135A.961.961,0,0,1,284.053,80.285Zm2.466,12.577,1.315-6.97c.218-1.093.352-2.047.464-2.861h1.514l-.254,1.931h.041a4.331,4.331,0,0,1,3.647-2.155,2.414,2.414,0,0,1,2.486,2.729,9.933,9.933,0,0,1-.175,1.587l-1.092,5.739h-1.682l1.075-5.681a7.46,7.46,0,0,0,.134-1.258c0-.986-.381-1.713-1.541-1.713-1.21,0-2.916,1.441-3.362,3.872l-.887,4.779Zm10.941,2.233a5.155,5.155,0,0,0,2.609.643c1.653,0,2.95-.839,3.535-3.5l.325-1.47h-.051a3.926,3.926,0,0,1-3.418,2.089c-1.975,0-2.993-1.663-3-3.406a6.414,6.414,0,0,1,6.242-6.643,8.009,8.009,0,0,1,3.155.686l-1.508,8.125c-.395,2.084-.959,3.519-1.983,4.4a5.227,5.227,0,0,1-3.433,1.091,5.682,5.682,0,0,1-2.947-.694Zm7.556-10.6a3.922,3.922,0,0,0-1.627-.335c-2.46,0-4.155,2.572-4.165,5-.006,1.09.386,2.356,1.884,2.356,1.45,0,2.916-1.827,3.28-3.746Z" transform="translate(-27.2 -14.874)" fill="#006cb7"/>
        <path id="Path_1897" data-name="Path 1897" d="M162.223,12.114c12.1,0,16.993,8.806,16.993,18.427,0,7.789-2.856,16.387-8.19,21.712a21.4,21.4,0,0,1-15.4,6.274c-11.611,0-17.042-8.75-17.042-18.293,0-7.9,3.1-16.675,8.57-22.028a21.949,21.949,0,0,1,15.071-6.092Zm-.734,4.673a14.436,14.436,0,0,0-10.267,4.5C146.9,25.62,144.4,33.519,144.4,39.8c0,7.307,3.244,14.053,12.039,14.053A14.464,14.464,0,0,0,166.7,49.36c4.243-4.254,6.693-12.327,6.693-18.582,0-6.369-2.093-13.991-11.908-13.991Zm20.718,41.005L186.52,34.93c.716-3.587,1.156-6.714,1.523-9.386h4.967l-.831,6.335h.134c2.9-4.538,7.24-7.069,11.962-7.069,3.829,0,8.154,2.207,8.154,8.954a32.62,32.62,0,0,1-.574,5.2l-3.583,18.824h-5.518l3.526-18.632a24.434,24.434,0,0,0,.438-4.126c0-3.237-1.248-5.621-5.055-5.621-3.967,0-9.566,4.727-11.03,12.7l-2.907,15.677Zm35.622,0,9.029-47.345h5.53l-9.041,47.345Zm15.255,0,6.16-32.249h5.518L238.6,57.792Zm7.18-41.254a3.673,3.673,0,0,1,3.638-3.744,3.222,3.222,0,0,1,3.293,3.473,3.664,3.664,0,0,1-3.75,3.722A3.154,3.154,0,0,1,240.264,16.538Zm8.09,41.254,4.312-22.862c.716-3.587,1.156-6.714,1.523-9.386h4.967l-.831,6.335h.133c2.9-4.538,7.24-7.069,11.962-7.069,3.829,0,8.155,2.207,8.155,8.954a32.627,32.627,0,0,1-.574,5.2l-3.583,18.824H268.9l3.526-18.632a24.437,24.437,0,0,0,.438-4.126c0-3.237-1.248-5.621-5.055-5.621-3.968,0-9.566,4.727-11.03,12.7l-2.908,15.677Zm48.2.7c-8.569,0-12.27-5.839-12.27-12.976,0-9.711,7.214-20.706,17.6-20.706,6.135,0,9.466,3.657,9.47,8.273,0,8.47-9.543,10.7-21.465,10.475a13.357,13.357,0,0,0,.652,6.137c1.3,2.907,3.857,4.335,7.176,4.335a17.9,17.9,0,0,0,8.688-2.211l.815,4.125A22.719,22.719,0,0,1,296.556,58.492Zm4.546-29.38c-5.266,0-9.244,5.142-10.591,10.19,8.69.1,15.5-1.057,15.5-6.083C306.007,30.567,303.984,29.112,301.1,29.112Z" transform="translate(-26.283 -1.981)" fill="#333133"/>
      </g>
    </g>
  </g>
</svg>
