<?xml version="1.0" encoding="utf-8"?>
<!-- Generator: Adobe Illustrator 26.2.1, SVG Export Plug-In . SVG Version: 6.00 Build 0)  -->
<svg version="1.1" id="Group_22" xmlns="http://www.w3.org/2000/svg" xmlns:xlink="http://www.w3.org/1999/xlink" x="0px" y="0px"
	 viewBox="0 0 216.3 116.9" style="enable-background:new 0 0 216.3 116.9;" xml:space="preserve">
<style type="text/css">
	.st0{fill:#FFFFFF;}
	.st1{fill:url(#Path_68_00000058584921265478101140000005689493222713337241_);}
	.st2{fill:url(#Path_69_00000078743364181033109900000015877188375425393316_);}
	.st3{fill:url(#Path_70_00000021114947681908143280000009482017425100416958_);}
	.st4{fill:url(#Path_71_00000130617868586700644970000000154316051222474635_);}
	.st5{fill:url(#Path_72_00000002360816249539352820000012392674926700336025_);}
	.st6{fill:url(#Path_73_00000036223157798622925380000009127214043316212892_);}
	.st7{fill:url(#Path_74_00000078755222760492692810000014368841686547061389_);}
	.st8{fill:url(#Path_76_00000176026380897412489930000001942984744779755423_);}
</style>
<g id="Group_19" transform="translate(30.467 66.218)">
	<path id="Path_41" class="st0" d="M2.2,12.3H0L1.5,0.1h2.2L2.2,12.3z"/>
	<path id="Path_42" class="st0" d="M7.5,0.1c0.1,0,0.1,0,0.2,0.1c0.1,0,0.1,0.1,0.1,0.1c0,0.1,0.1,0.1,0.1,0.2l4.7,8.3
		c0-0.2,0-0.3,0-0.5s0-0.3,0-0.4l0.9-7.8h1.9l-1.5,12.2H13c-0.1,0-0.3,0-0.4-0.1c-0.1-0.1-0.2-0.2-0.3-0.3L7.6,3.6
		c0,0.1,0,0.3,0,0.4c0,0.1,0,0.2,0,0.4l-1,8H4.6L6.1,0.1h1.1C7.4,0.1,7.4,0.1,7.5,0.1z"/>
	<path id="Path_43" class="st0" d="M29,0.1l-0.2,1.8h-3.3l-1.3,10.4H22l1.3-10.4h-3.3l0.2-1.8H29z"/>
	<path id="Path_44" class="st0" d="M31.6,7.5L31,12.3h-2.2l1.5-12.2h3.5c0.6,0,1.2,0.1,1.8,0.2C36,0.5,36.4,0.7,36.8,1
		c0.3,0.3,0.6,0.6,0.7,1c0.2,0.4,0.2,0.8,0.2,1.2c0,0.5-0.1,0.9-0.2,1.3c-0.3,0.8-0.8,1.5-1.5,2c-0.4,0.3-0.8,0.5-1.2,0.6
		c0.1,0.1,0.2,0.2,0.4,0.3c0.1,0.1,0.2,0.3,0.3,0.4l2.2,4.5h-2c-0.2,0-0.3,0-0.5-0.1c-0.1-0.1-0.2-0.2-0.3-0.3l-1.8-4
		c-0.1-0.1-0.1-0.2-0.2-0.3c-0.1-0.1-0.3-0.1-0.5-0.1L31.6,7.5z M32.3,1.8L31.8,6h1.3c0.4,0,0.8-0.1,1.1-0.2
		c0.3-0.1,0.6-0.3,0.8-0.5c0.2-0.2,0.4-0.5,0.5-0.8c0.1-0.3,0.2-0.6,0.2-1c0-0.5-0.2-0.9-0.5-1.2c-0.4-0.3-1-0.5-1.5-0.4L32.3,1.8z"
		/>
	<path id="Path_45" class="st0" d="M48.8,12.3h-1.7c-0.2,0-0.3,0-0.5-0.1c-0.1-0.1-0.2-0.2-0.2-0.4l-0.5-2.5h-4.5l-1.1,2.5
		c-0.1,0.1-0.2,0.3-0.3,0.3c-0.1,0.1-0.3,0.2-0.5,0.2h-1.7l5.9-12.2h2.2L48.8,12.3z M42,7.7h3.5l-0.8-4.2c0-0.2-0.1-0.4-0.1-0.6
		s-0.1-0.5-0.1-0.8c-0.1,0.3-0.2,0.5-0.3,0.8c-0.1,0.2-0.2,0.4-0.3,0.6L42,7.7z"/>
	<path id="Path_46" class="st0" d="M50.2,0.1h1.7c0.2,0,0.3,0,0.5,0.1c0.1,0.1,0.2,0.2,0.2,0.4l1.6,7.6c0.1,0.3,0.1,0.5,0.2,0.8
		s0.1,0.6,0.1,0.9c0.1-0.3,0.2-0.6,0.3-0.9c0.1-0.3,0.2-0.5,0.3-0.8l3.5-7.6c0.1-0.1,0.2-0.3,0.3-0.3c0.1-0.1,0.3-0.2,0.5-0.2h1.8
		l-6,12.2h-2L50.2,0.1z"/>
	<path id="Path_47" class="st0" d="M69.4,0.1l-0.2,1.7h-4.9l-0.4,3.5h3.8L67.5,7h-3.8l-0.4,3.6h4.9l-0.2,1.7h-7.1l1.5-12.2L69.4,0.1
		z"/>
	<path id="Path_48" class="st0" d="M72,10.5h4.4l-0.2,1.8h-6.6l1.5-12.2h2.2L72,10.5z"/>
	<path id="Path_49" class="st0" d="M88.1,2.3c-0.1,0.1-0.1,0.2-0.2,0.2c-0.1,0.1-0.2,0.1-0.3,0.1c-0.1,0-0.2-0.1-0.3-0.1
		c-0.1-0.1-0.3-0.2-0.4-0.3c-0.2-0.1-0.4-0.2-0.6-0.3c-0.3-0.1-0.5-0.1-0.8-0.1c-0.3,0-0.6,0-0.8,0.1c-0.2,0.1-0.4,0.2-0.6,0.4
		c-0.2,0.2-0.3,0.3-0.4,0.6c-0.1,0.2-0.1,0.5-0.1,0.7c0,0.2,0.1,0.5,0.2,0.6c0.1,0.2,0.3,0.3,0.5,0.4C84.5,4.8,84.8,4.9,85,5
		c0.3,0.1,0.6,0.2,0.8,0.3c0.3,0.1,0.6,0.2,0.8,0.4C87,5.8,87.2,6,87.4,6.2c0.2,0.2,0.4,0.5,0.5,0.8c0.1,0.3,0.2,0.7,0.2,1.1
		c0,0.6-0.1,1.1-0.3,1.7c-0.2,0.5-0.5,1-0.9,1.4c-0.4,0.4-0.9,0.7-1.4,0.9c-0.6,0.2-1.2,0.4-1.8,0.3c-0.4,0-0.7,0-1-0.1
		c-0.3-0.1-0.7-0.2-1-0.3c-0.3-0.1-0.6-0.3-0.8-0.5c-0.3-0.2-0.5-0.4-0.7-0.7l0.8-1c0.1-0.1,0.1-0.1,0.2-0.2c0.1,0,0.2-0.1,0.3-0.1
		c0.1,0,0.2,0,0.3,0.1c0.1,0.1,0.2,0.1,0.3,0.2c0.1,0.1,0.2,0.2,0.3,0.3c0.1,0.1,0.3,0.2,0.4,0.3c0.2,0.1,0.3,0.2,0.5,0.2
		c0.2,0.1,0.5,0.1,0.7,0.1c1,0.1,1.9-0.7,2-1.7c0-0.1,0-0.2,0-0.3c0-0.2-0.1-0.5-0.2-0.7c-0.1-0.2-0.3-0.3-0.5-0.5
		c-0.2-0.1-0.5-0.2-0.7-0.3c-0.3-0.1-0.5-0.2-0.8-0.3c-0.3-0.1-0.6-0.2-0.8-0.4c-0.3-0.1-0.5-0.3-0.7-0.5c-0.2-0.2-0.4-0.5-0.5-0.8
		c-0.1-0.4-0.2-0.8-0.2-1.2c0-0.5,0.1-1,0.3-1.5C82,2,82.3,1.6,82.6,1.2c0.4-0.4,0.8-0.7,1.3-0.9C84.5,0.1,85.1,0,85.7,0
		c0.3,0,0.6,0,1,0.1c0.3,0.1,0.6,0.2,0.9,0.3c0.3,0.1,0.5,0.3,0.7,0.4c0.2,0.2,0.4,0.4,0.6,0.6L88.1,2.3z"/>
	<path id="Path_50" class="st0" d="M100.7,5.4c0,0.6-0.1,1.3-0.2,1.9c-0.1,0.6-0.4,1.2-0.6,1.7c-0.3,0.5-0.6,1-1,1.4
		c-0.4,0.4-0.8,0.8-1.3,1.1c-0.5,0.3-1,0.5-1.6,0.7c-0.6,0.2-1.2,0.2-1.8,0.2c-0.7,0-1.4-0.1-2.1-0.4c-0.6-0.3-1.1-0.7-1.6-1.1
		c-0.4-0.5-0.8-1.1-1-1.7c-0.2-0.7-0.4-1.4-0.3-2.1c0-0.6,0.1-1.3,0.2-1.9c0.1-0.6,0.4-1.2,0.6-1.7c0.3-0.5,0.6-1,1-1.4
		c0.4-0.4,0.8-0.8,1.3-1.1c0.5-0.3,1-0.5,1.6-0.7C94.5,0.1,95.1,0,95.7,0c0.7,0,1.4,0.1,2.1,0.4c0.6,0.3,1.1,0.7,1.6,1.1
		c0.4,0.5,0.8,1.1,1,1.7C100.6,4,100.7,4.7,100.7,5.4z M98.5,5.5c0-0.5-0.1-1-0.2-1.5c-0.1-0.4-0.3-0.8-0.6-1.2
		c-0.3-0.3-0.6-0.6-1-0.7c-0.4-0.2-0.8-0.3-1.3-0.3c-1.1,0-2.2,0.5-2.9,1.4c-0.4,0.5-0.6,1.1-0.8,1.6c-0.2,0.7-0.3,1.4-0.3,2.1
		c0,0.5,0.1,1,0.2,1.5c0.1,0.4,0.3,0.8,0.6,1.2c0.3,0.3,0.6,0.6,0.9,0.7c0.4,0.2,0.8,0.3,1.3,0.3c1.1,0,2.2-0.5,2.9-1.4
		c0.4-0.5,0.7-1,0.8-1.6C98.4,6.9,98.5,6.2,98.5,5.5L98.5,5.5z"/>
	<path id="Path_51" class="st0" d="M109.8,1.9h-4.9l-0.5,3.7h4.1l-0.2,1.7h-4.1l-0.6,5h-2.2L103,0.1h7.1L109.8,1.9z"/>
	<path id="Path_52" class="st0" d="M119.6,0.1l-0.2,1.8H116l-1.3,10.4h-2.2l1.3-10.4h-3.3l0.2-1.8H119.6z"/>
	<path id="Path_53" class="st0" d="M119.9,0.1h1.7c0.2,0,0.3,0,0.5,0.1c0.1,0.1,0.2,0.2,0.2,0.4l1.1,7.5c0,0.2,0,0.4,0.1,0.6
		c0,0.2,0,0.4,0,0.7c0.1-0.5,0.3-0.9,0.4-1.2l3-7.5c0.1-0.1,0.2-0.3,0.3-0.3c0.1-0.1,0.3-0.2,0.5-0.2h0.5c0.2,0,0.3,0,0.5,0.1
		c0.1,0.1,0.2,0.2,0.2,0.4l1.2,7.5c0,0.2,0.1,0.4,0.1,0.6s0,0.4,0.1,0.6c0.1-0.2,0.1-0.4,0.2-0.6s0.1-0.4,0.2-0.6l2.9-7.5
		c0.1-0.1,0.2-0.3,0.3-0.3c0.1-0.1,0.3-0.2,0.5-0.2h1.7l-5,12.2h-2l-1.4-8.5c0-0.1,0-0.2-0.1-0.3s0-0.3,0-0.4c0,0.1-0.1,0.3-0.1,0.4
		s-0.1,0.2-0.1,0.3l-3.4,8.5h-2L119.9,0.1z"/>
	<path id="Path_54" class="st0" d="M145.4,12.3h-1.7c-0.2,0-0.3,0-0.5-0.1c-0.1-0.1-0.2-0.2-0.2-0.4l-0.5-2.5H138l-1.1,2.5
		c-0.1,0.1-0.2,0.3-0.3,0.3c-0.1,0.1-0.3,0.2-0.5,0.2h-1.7l5.9-12.2h2.2L145.4,12.3z M138.7,7.7h3.5l-0.8-4.2c0-0.2-0.1-0.4-0.1-0.6
		c0-0.2-0.1-0.5-0.1-0.8c-0.1,0.3-0.2,0.5-0.3,0.8c-0.1,0.2-0.2,0.4-0.3,0.6L138.7,7.7z"/>
	<path id="Path_55" class="st0" d="M149.2,7.5l-0.6,4.8h-2.2l1.5-12.2h3.5c0.6,0,1.2,0.1,1.8,0.2c0.4,0.1,0.9,0.3,1.2,0.6
		c0.3,0.3,0.6,0.6,0.7,1c0.2,0.4,0.2,0.8,0.2,1.2c0,0.5-0.1,0.9-0.2,1.3c-0.3,0.8-0.8,1.5-1.5,2c-0.4,0.3-0.8,0.5-1.2,0.6
		c0.1,0.1,0.2,0.2,0.4,0.3c0.1,0.1,0.2,0.3,0.3,0.4l2.2,4.5h-2c-0.2,0-0.3,0-0.5-0.1c-0.1-0.1-0.2-0.2-0.3-0.3l-1.8-4
		c-0.1-0.1-0.1-0.2-0.2-0.3c-0.1-0.1-0.3-0.1-0.5-0.1L149.2,7.5z M149.9,1.8L149.4,6h1.3c0.4,0,0.8-0.1,1.1-0.2
		c0.3-0.1,0.6-0.3,0.8-0.5c0.2-0.2,0.4-0.5,0.5-0.8c0.1-0.3,0.2-0.6,0.2-1c0-0.5-0.2-0.9-0.5-1.2c-0.4-0.3-1-0.5-1.5-0.4L149.9,1.8z
		"/>
	<path id="Path_56" class="st0" d="M165.1,0.1l-0.2,1.7H160l-0.4,3.5h3.8L163.2,7h-3.8l-0.4,3.6h4.9l-0.2,1.7h-7.1l1.5-12.2
		L165.1,0.1z"/>
	<path id="Path_57" class="st0" d="M36.1,25.7c0,1-0.2,1.9-0.5,2.8c-0.3,0.8-0.8,1.6-1.4,2.2c-0.6,0.6-1.3,1.1-2.1,1.4
		c-0.8,0.3-1.7,0.5-2.6,0.5h-4.3l1.5-12.2h4.3c0.7,0,1.4,0.1,2.1,0.4c0.6,0.3,1.1,0.6,1.6,1.1c0.4,0.5,0.8,1.1,1,1.7
		C36,24.2,36.1,24.9,36.1,25.7z M33.9,25.7c0-0.5-0.1-1-0.2-1.5c-0.1-0.4-0.3-0.8-0.6-1.1c-0.3-0.3-0.6-0.6-0.9-0.7
		c-0.4-0.2-0.8-0.3-1.3-0.3h-2.1l-1.1,8.7h2.1c0.6,0,1.1-0.1,1.7-0.4c0.5-0.2,0.9-0.6,1.3-1c0.4-0.5,0.7-1,0.8-1.6
		C33.8,27.2,33.9,26.4,33.9,25.7L33.9,25.7z"/>
	<path id="Path_58" class="st0" d="M45.5,20.4l-0.2,1.7h-4.9l-0.4,3.5h3.8l-0.2,1.7h-3.8l-0.4,3.6h4.9L44,32.6h-7.1l1.5-12.2
		L45.5,20.4z"/>
	<path id="Path_59" class="st0" d="M46.2,20.4h1.7c0.2,0,0.3,0,0.5,0.1c0.1,0.1,0.2,0.2,0.2,0.4l1.6,7.6c0.1,0.3,0.1,0.5,0.2,0.8
		s0.1,0.6,0.1,0.9c0.1-0.3,0.2-0.6,0.3-0.9c0.1-0.3,0.2-0.5,0.3-0.8l3.5-7.6c0.1-0.1,0.2-0.3,0.3-0.3c0.1-0.1,0.3-0.2,0.5-0.2h1.8
		l-6,12.2h-2L46.2,20.4z"/>
	<path id="Path_60" class="st0" d="M65.4,20.4l-0.2,1.7h-4.9l-0.4,3.5h3.8l-0.2,1.7h-3.8l-0.4,3.6h4.9l-0.2,1.7h-7.1l1.5-12.2
		L65.4,20.4z"/>
	<path id="Path_61" class="st0" d="M68,30.8h4.4l-0.2,1.8h-6.6l1.5-12.2h2.2L68,30.8z"/>
	<path id="Path_62" class="st0" d="M85.2,25.7c0,0.6-0.1,1.3-0.2,1.9c-0.1,0.6-0.4,1.2-0.6,1.7c-0.3,0.5-0.6,1-1,1.4
		c-0.8,0.8-1.8,1.5-2.9,1.8c-0.6,0.2-1.2,0.2-1.8,0.2c-0.7,0-1.4-0.1-2.1-0.4C76,32,75.4,31.6,75,31.2c-0.4-0.5-0.8-1.1-1-1.7
		c-0.2-0.7-0.4-1.4-0.3-2.1c0-0.6,0.1-1.3,0.2-1.9c0.1-0.6,0.4-1.2,0.6-1.7c0.3-0.5,0.6-1,1-1.4c0.4-0.4,0.8-0.8,1.3-1.1
		c0.5-0.3,1-0.5,1.6-0.7c0.6-0.2,1.2-0.2,1.8-0.2c0.7,0,1.4,0.1,2.1,0.4c0.6,0.3,1.1,0.7,1.6,1.1c0.4,0.5,0.8,1.1,1,1.7
		C85.1,24.2,85.2,24.9,85.2,25.7z M83,25.7c0-0.5-0.1-1-0.2-1.5c-0.1-0.4-0.3-0.8-0.6-1.2c-0.3-0.3-0.6-0.6-1-0.7
		c-0.4-0.2-0.8-0.3-1.3-0.3c-1.1,0-2.2,0.5-2.9,1.4c-0.4,0.5-0.6,1.1-0.8,1.6c-0.2,0.7-0.3,1.4-0.3,2.1c0,0.5,0.1,1,0.2,1.5
		c0.1,0.4,0.3,0.8,0.6,1.2c0.3,0.3,0.6,0.6,0.9,0.7c0.4,0.2,0.8,0.3,1.3,0.3c1.1,0,2.2-0.5,2.9-1.4c0.4-0.5,0.6-1,0.8-1.6
		C82.9,27.2,83,26.4,83,25.7L83,25.7z"/>
	<path id="Path_63" class="st0" d="M88.7,28.2l-0.5,4.3H86l1.5-12.2h3.7c0.6,0,1.2,0.1,1.8,0.2c0.5,0.1,0.9,0.4,1.2,0.7
		c0.3,0.3,0.6,0.7,0.7,1.1c0.2,0.4,0.2,0.9,0.2,1.3c0,0.6-0.1,1.2-0.3,1.8c-0.2,0.5-0.5,1-0.9,1.4c-0.4,0.4-1,0.7-1.5,0.9
		c-0.7,0.2-1.4,0.4-2.1,0.3L88.7,28.2z M89.4,22.1l-0.6,4.5h1.5c0.4,0,0.8-0.1,1.1-0.2c0.3-0.1,0.6-0.3,0.8-0.5
		c0.2-0.2,0.4-0.5,0.5-0.8c0.1-0.3,0.2-0.7,0.1-1.1c0-0.3,0-0.5-0.1-0.8c-0.1-0.2-0.2-0.4-0.4-0.6c-0.2-0.2-0.4-0.3-0.6-0.4
		c-0.3-0.1-0.6-0.1-0.9-0.1L89.4,22.1z"/>
	<path id="Path_64" class="st0" d="M102.1,28.1c0,0.2,0.1,0.3,0.1,0.5c0.1-0.2,0.1-0.3,0.2-0.5c0.1-0.2,0.2-0.3,0.3-0.4l4.2-7
		c0-0.1,0.1-0.1,0.2-0.2c0,0,0.1-0.1,0.2-0.1c0.1,0,0.1,0,0.2,0c0.1,0,0.2,0,0.3,0h1.7l-1.5,12.2h-1.9l1-7.9c0-0.1,0-0.3,0.1-0.5
		c0-0.2,0.1-0.4,0.1-0.5l-4.2,7c-0.1,0.1-0.2,0.3-0.4,0.4c-0.1,0.1-0.3,0.1-0.5,0.1h-0.3c-0.2,0-0.3,0-0.4-0.1
		c-0.1-0.1-0.2-0.2-0.3-0.4l-2.5-6.9c0,0.2,0,0.3,0,0.5s0,0.3,0,0.4l-1,8h-1.9l1.5-12.2h1.6c0.1,0,0.2,0,0.3,0c0.1,0,0.1,0,0.2,0
		c0.1,0,0.1,0.1,0.1,0.1c0,0.1,0.1,0.1,0.1,0.2l2.5,7C102,27.8,102.1,28,102.1,28.1z"/>
	<path id="Path_65" class="st0" d="M118.6,20.4l-0.2,1.7h-4.9l-0.4,3.5h3.8l-0.2,1.7h-3.8l-0.4,3.6h4.9l-0.2,1.7H110l1.5-12.2
		L118.6,20.4z"/>
	<path id="Path_66" class="st0" d="M121.8,20.4c0.1,0,0.1,0,0.2,0.1c0.1,0,0.1,0.1,0.1,0.1c0,0.1,0.1,0.1,0.1,0.2l4.7,8.3
		c0-0.2,0-0.3,0-0.5s0-0.3,0-0.4l0.9-7.8h1.9l-1.5,12.2h-1.1c-0.1,0-0.3,0-0.4-0.1c-0.1-0.1-0.2-0.2-0.3-0.3l-4.7-8.3
		c0,0.1,0,0.3,0,0.4s0,0.2,0,0.4l-1,8h-1.9l1.5-12.2h1.1C121.6,20.4,121.7,20.4,121.8,20.4z"/>
	<path id="Path_67" class="st0" d="M140,20.4l-0.2,1.8h-3.3l-1.3,10.4H133l1.3-10.4h-3.3l0.2-1.8H140z"/>
</g>
<g id="Group_20" transform="translate(36.957 19.87)">
	
		<linearGradient id="Path_68_00000141433106872248615590000009479269999450659996_" gradientUnits="userSpaceOnUse" x1="20.6339" y1="17.5667" x2="186.0516" y2="-22.0789">
		<stop  offset="2.488078e-06" style="stop-color:#FFC050"/>
		<stop  offset="1" style="stop-color:#FF7700"/>
	</linearGradient>
	<path id="Path_68" style="fill:url(#Path_68_00000141433106872248615590000009479269999450659996_);" d="M17.5,0
		c1.5,0,3,0.2,4.4,0.7c1.2,0.4,2.3,1.1,3.2,1.9c0.8,0.8,1.5,1.7,2,2.8c0.4,1.1,0.7,2.2,0.7,3.3c0,1.2-0.1,2.4-0.4,3.5
		c-0.2,0.9-0.7,1.8-1.2,2.6c-0.6,0.7-1.3,1.3-2.1,1.8c-0.9,0.5-1.9,0.9-2.9,1.2c1.6,0.6,2.9,1.6,3.9,2.9c0.9,1.3,1.3,2.9,1.3,4.5
		c0,1.3-0.2,2.6-0.6,3.9c-0.4,1.1-0.9,2.2-1.5,3.2c-0.6,0.9-1.4,1.8-2.3,2.5c-0.9,0.7-1.9,1.3-3,1.8c-1.1,0.5-2.2,0.9-3.4,1.1
		c-1.2,0.2-2.4,0.4-3.6,0.4c-1.6,0-3.1-0.2-4.6-0.6c-1.3-0.3-2.4-1-3.5-1.8c-1-0.8-1.8-1.9-2.4-3.1C0.8,31.1,0.3,29.6,0,28l3.6-1.4
		c0.3-0.1,0.6-0.2,0.9-0.3c0.3-0.1,0.6-0.1,0.9-0.1c0.5,0,0.9,0.1,1.4,0.3c0.4,0.2,0.7,0.5,0.8,0.9c0.4,1.2,1.1,2.3,2,3.2
		c0.9,0.7,2,1.1,3.2,1c0.9,0,1.8-0.2,2.6-0.5c0.7-0.3,1.4-0.8,1.9-1.4c0.5-0.6,0.9-1.3,1.2-2.1c0.3-0.8,0.4-1.6,0.4-2.5
		c0-0.6-0.1-1.1-0.3-1.7c-0.2-0.5-0.6-1-1.1-1.3c-0.7-0.4-1.4-0.7-2.2-0.8c-1.2-0.2-2.5-0.3-3.7-0.3l0.7-5.3c1.3,0,2.6-0.1,3.8-0.4
		c0.9-0.2,1.7-0.6,2.5-1.1c0.6-0.5,1-1.1,1.3-1.8c0.3-0.8,0.4-1.6,0.4-2.4c0.1-1.1-0.3-2.1-1-2.9c-0.8-0.7-1.9-1.1-3-1
		c-1.2,0-2.3,0.3-3.2,1c-0.9,0.6-1.6,1.5-2,2.5c-0.3,0.6-0.7,1.2-1.2,1.6c-0.5,0.3-1.1,0.5-1.7,0.5c-0.2,0-0.3,0-0.5,0
		c-0.2,0-0.4,0-0.5-0.1L3.1,11c0.4-1.7,1.2-3.3,2.1-4.8c0.9-1.3,2-2.5,3.3-3.4c1.2-0.9,2.7-1.6,4.1-2.1C14.2,0.2,15.9,0,17.5,0z"/>
	
		<linearGradient id="Path_69_00000045602435437978973810000014437985796312148614_" gradientUnits="userSpaceOnUse" x1="22.1598" y1="23.9334" x2="187.5775" y2="-15.7121">
		<stop  offset="2.488078e-06" style="stop-color:#FFC050"/>
		<stop  offset="1" style="stop-color:#FF7700"/>
	</linearGradient>
	<path id="Path_69" style="fill:url(#Path_69_00000045602435437978973810000014437985796312148614_);" d="M45.3,0
		c1.6,0,3.2,0.3,4.7,0.9c1.4,0.6,2.7,1.6,3.6,2.8c1.1,1.4,1.9,3,2.3,4.7c0.6,2.2,0.9,4.4,0.8,6.6c0.1,3.4-0.4,6.8-1.2,10.1
		c-0.7,2.6-1.8,5-3.4,7.1c-1.3,1.8-3.1,3.2-5.1,4.2c-2,0.9-4.1,1.4-6.3,1.4c-1.6,0-3.2-0.3-4.7-0.9c-1.4-0.6-2.7-1.6-3.6-2.8
		c-1.1-1.4-1.9-3-2.3-4.7c-0.6-2.2-0.9-4.4-0.8-6.6c-0.1-3.4,0.4-6.8,1.2-10.1c0.7-2.6,1.8-5,3.4-7.1c1.3-1.8,3.1-3.2,5.1-4.2
		C40.9,0.5,43.1,0,45.3,0z M41.6,31.8c1,0,2.1-0.4,2.9-1c1-0.8,1.8-1.9,2.3-3.1c0.7-1.6,1.2-3.4,1.5-5.2c0.4-2.4,0.6-4.9,0.5-7.3
		c0-1.5-0.1-3-0.4-4.5c-0.2-1-0.5-1.9-1-2.8c-0.3-0.6-0.8-1.1-1.4-1.5c-0.5-0.3-1.1-0.4-1.7-0.4c-1,0-2.1,0.4-2.9,1
		c-1,0.8-1.8,1.9-2.3,3.1c-0.7,1.7-1.2,3.4-1.5,5.2c-0.4,2.4-0.6,4.8-0.5,7.3c0,1.5,0.1,3,0.4,4.5c0.2,1,0.5,1.9,1,2.8
		c0.3,0.6,0.8,1.1,1.4,1.5C40.5,31.6,41,31.8,41.6,31.8L41.6,31.8z"/>
</g>
<g id="Group_21" transform="translate(100.39 32.374)">
	
		<linearGradient id="Path_70_00000134231949159905946770000007678739658265016450_" gradientUnits="userSpaceOnUse" x1="-38.7896" y1="21.7919" x2="126.6281" y2="-17.8537">
		<stop  offset="2.488078e-06" style="stop-color:#FFC050"/>
		<stop  offset="1" style="stop-color:#FF7700"/>
	</linearGradient>
	<path id="Path_70" style="fill:url(#Path_70_00000134231949159905946770000007678739658265016450_);" d="M15.6,0.2
		c-0.4,0-0.8,0.1-1.2,0.4c-0.3,0.2-0.5,0.5-0.7,0.8L10.1,8C9.8,8.4,9.6,8.9,9.3,9.3C9.2,9.5,9.1,9.8,8.9,10C8.9,9.8,8.8,9.5,8.7,9.3
		C8.6,8.9,8.5,8.5,8.4,8L6.3,1.4C6.2,1.1,6,0.8,5.7,0.5C5.4,0.3,5,0.2,4.6,0.2H0l5.7,13.7l-1.1,8.5h5.2l1-8.5L20,0.2L15.6,0.2z"/>
	
		<linearGradient id="Path_71_00000085961705192785486330000014346682101473327264_" gradientUnits="userSpaceOnUse" x1="-37.6424" y1="26.5787" x2="127.7754" y2="-13.0668">
		<stop  offset="2.488078e-06" style="stop-color:#FFC050"/>
		<stop  offset="1" style="stop-color:#FF7700"/>
	</linearGradient>
	<path id="Path_71" style="fill:url(#Path_71_00000085961705192785486330000014346682101473327264_);" d="M23.8,18.3l0.6-5.1h6.1
		l0.5-4h-6.2l0.6-4.9h8.1l0.5-4.1H20.8l-2.7,22l0,0.2h13.4l0.5-4.1L23.8,18.3z"/>
	
		<linearGradient id="Path_72_00000089562548951675518890000004918721496699558811_" gradientUnits="userSpaceOnUse" x1="-36.4878" y1="31.396" x2="128.9299" y2="-8.2495">
		<stop  offset="2.488078e-06" style="stop-color:#FFC050"/>
		<stop  offset="1" style="stop-color:#FF7700"/>
	</linearGradient>
	<path id="Path_72" style="fill:url(#Path_72_00000089562548951675518890000004918721496699558811_);" d="M47.4,0.2h-5.2L31.6,22.4
		h4.1c0.4,0,0.8-0.1,1.2-0.4c0.3-0.2,0.6-0.5,0.7-0.8l1.6-3.8h7.1l0.6,3.8c0.1,0.4,0.2,0.7,0.5,0.9c0.3,0.2,0.7,0.3,1.1,0.3h4
		L47.4,0.3L47.4,0.2z M40.6,13.7l2.5-6c0-0.1,0.1-0.3,0.2-0.5c0.1-0.3,0.2-0.5,0.4-0.8s0.3-0.6,0.4-0.9l0.1-0.2
		c0,0.3,0.1,0.5,0.2,0.8c0.1,0.5,0.2,1.1,0.3,1.6l1,6L40.6,13.7z"/>
	
		<linearGradient id="Path_73_00000091721664809566468510000012304269010838917540_" gradientUnits="userSpaceOnUse" x1="-35.6276" y1="34.9853" x2="129.7901" y2="-4.6603">
		<stop  offset="2.488078e-06" style="stop-color:#FFC050"/>
		<stop  offset="1" style="stop-color:#FF7700"/>
	</linearGradient>
	<path id="Path_73" style="fill:url(#Path_73_00000091721664809566468510000012304269010838917540_);" d="M69.1,10.4
		c0.4-0.6,0.7-1.3,1-2c0.2-0.8,0.3-1.6,0.3-2.3c0-0.8-0.1-1.6-0.4-2.3c-0.3-0.7-0.8-1.4-1.4-1.8c-0.7-0.6-1.5-1-2.4-1.2
		c-1.1-0.3-2.3-0.5-3.5-0.4H56l-2.7,22.2h5.2l1-8.2h0.9c0.2,0,0.5,0,0.7,0.1c0.2,0.1,0.3,0.3,0.4,0.5l2.4,6.5
		c0.1,0.3,0.4,0.6,0.7,0.8c0.3,0.2,0.7,0.3,1.1,0.3h4.7l-3.3-7.9c-0.1-0.4-0.4-0.7-0.7-1c-0.2-0.2-0.4-0.3-0.6-0.5
		c0.6-0.3,1.2-0.6,1.7-1C68.2,11.6,68.7,11,69.1,10.4z M65,8.2c-0.1,0.4-0.3,0.8-0.6,1.2c-0.3,0.4-0.7,0.6-1.1,0.8
		c-0.5,0.2-1.1,0.3-1.7,0.3H60l0.8-6.3h1.6c0.4,0,0.9,0.1,1.3,0.2c0.3,0.1,0.6,0.3,0.9,0.5c0.2,0.2,0.4,0.5,0.5,0.8
		c0.1,0.3,0.2,0.7,0.2,1.1C65.2,7.2,65.1,7.7,65,8.2L65,8.2z"/>
	
		<linearGradient id="Path_74_00000068652542665574851520000014771916035182087813_" gradientUnits="userSpaceOnUse" x1="-34.7574" y1="38.6159" x2="130.6603" y2="-1.0296">
		<stop  offset="2.488078e-06" style="stop-color:#FFC050"/>
		<stop  offset="1" style="stop-color:#FF7700"/>
	</linearGradient>
	<path id="Path_74" style="fill:url(#Path_74_00000068652542665574851520000014771916035182087813_);" d="M84.4,11
		c-0.4-0.4-0.8-0.7-1.3-1c-0.5-0.3-1-0.5-1.5-0.7c-0.5-0.2-1-0.4-1.4-0.6c-0.4-0.2-0.8-0.3-1.2-0.6c-0.3-0.2-0.6-0.4-0.8-0.7
		c-0.2-0.3-0.3-0.6-0.3-0.9c0-0.3,0.1-0.7,0.2-1c0.1-0.3,0.3-0.5,0.5-0.7c0.2-0.2,0.5-0.4,0.8-0.5c0.4-0.1,0.8-0.2,1.1-0.2
		c0.4,0,0.8,0.1,1.2,0.2c0.3,0.1,0.6,0.3,0.9,0.5c0.3,0.2,0.5,0.3,0.8,0.5c0.4,0.3,1,0.3,1.5,0.1c0.2-0.2,0.4-0.3,0.6-0.6L87,2.8
		l-0.1-0.1c-0.3-0.4-0.7-0.8-1.1-1.1c-0.4-0.3-0.9-0.6-1.4-0.8c-0.5-0.2-1.1-0.4-1.7-0.6C81-0.2,79.2,0,77.5,0.6
		c-0.9,0.4-1.8,1-2.5,1.7c-0.7,0.7-1.2,1.5-1.6,2.4c-0.4,0.9-0.6,1.9-0.6,2.9c0,0.7,0.1,1.5,0.3,2.2c0.4,1.1,1.2,2,2.2,2.5
		c0.5,0.2,1,0.5,1.5,0.6c0.5,0.2,1,0.3,1.4,0.5c0.4,0.1,0.8,0.3,1.2,0.5c0.3,0.2,0.6,0.4,0.8,0.7c0.2,0.3,0.3,0.6,0.3,1
		c0.1,0.8-0.2,1.5-0.7,2.1c-0.5,0.5-1.2,0.7-2,0.7c-0.5,0-1-0.1-1.5-0.3c-0.4-0.2-0.7-0.4-1.1-0.6l-0.9-0.6
		c-0.5-0.4-1.1-0.4-1.6-0.1c-0.2,0.1-0.4,0.3-0.6,0.5l-1.8,2.4l0.1,0.1c0.4,0.5,0.8,0.9,1.3,1.2c0.5,0.4,1.1,0.7,1.7,0.9
		c0.6,0.3,1.2,0.5,1.9,0.6c1.8,0.4,3.7,0.2,5.4-0.4c1-0.4,1.9-1,2.6-1.8c0.7-0.7,1.3-1.6,1.7-2.6c0.4-1,0.6-2.1,0.6-3.2
		c0-0.7-0.1-1.4-0.3-2C85.2,11.9,84.8,11.4,84.4,11z"/>
</g>
<path id="Path_75" class="st0" d="M66.2,116.9h91.6c32.3,0,58.4-26.2,58.4-58.4c0-30.5-23.4-55.8-53.8-58.2l-1.3-0.1V0h-95
	C48.7,0.1,32.1,8,21,21.5h4.7c10.4-11.4,25.1-17.9,40.6-18h91.7l1.4,0c30.3,0.8,54.2,26,53.4,56.3c-0.8,29.7-25.1,53.4-54.9,53.4
	H66.2c-28.5,0-52.2-21.8-54.7-50.2H8C10.4,93.5,35.8,116.9,66.2,116.9z"/>
<linearGradient id="Path_76_00000078005592450670193610000012272206820221401781_" gradientUnits="userSpaceOnUse" x1="56.3668" y1="32.3291" x2="221.7845" y2="-7.3165">
	<stop  offset="2.488078e-06" style="stop-color:#FFC050"/>
	<stop  offset="1" style="stop-color:#FF7700"/>
</linearGradient>
<path id="Path_76" style="fill:url(#Path_76_00000078005592450670193610000012272206820221401781_);" d="M18.7,37.7
	c1.1-3.3,2.5-6.5,4.1-9.5l0.8-1.6h-7.7l-0.3,0.6c-1.7,3.4-3.3,6.9-4.5,10.5l-9,0l-0.2,0.8c-0.6,1.9-1.1,3.8-1.5,5.7L0,45.5h8.7
	l-0.2,0.8c-0.8,3.4-1.4,6.8-1.7,10.2l-0.1,1.1L14,58l0.1-1c0.4-3.3,0.9-6.5,1.7-9.7c0.1-0.5,0.3-1.1,0.5-1.8l9.8,0l0.2-0.8
	c0.6-1.9,1.2-3.8,1.8-5.6l0.5-1.4L18.7,37.7z"/>
</svg>
