<svg width="80" height="79" viewBox="0 0 80 79" fill="none" xmlns="http://www.w3.org/2000/svg">
<path d="M40.0078 59.1514C40.0078 59.1514 42.2576 75.5354 42.2578 76.6787C42.2578 77.8206 41.252 78.75 40.0117 78.75C38.7715 78.75 37.7667 77.8247 37.7666 76.6816C37.7666 75.5385 40.0078 59.1514 40.0078 59.1514ZM24.5244 72.4287C25.8589 72.4288 26.9404 73.5112 26.9404 74.8457C26.9402 76.18 25.8587 77.2617 24.5244 77.2617C23.1901 77.2617 22.1086 76.18 22.1084 74.8457C22.1084 73.5112 23.1899 72.4287 24.5244 72.4287ZM54.4707 72.4287C55.805 72.4289 56.8867 73.5113 56.8867 74.8457C56.8865 76.1799 55.8049 77.2615 54.4707 77.2617C53.1363 77.2617 52.0539 76.18 52.0537 74.8457C52.0537 73.5112 53.1362 72.4287 54.4707 72.4287ZM41.1074 42.1514C41.1476 42.23 52.6785 64.7962 53.3389 66.4326C54.0001 68.0689 53.6053 69.7718 52.4561 70.2354C51.305 70.7013 49.8373 69.7513 49.1758 68.1133C48.5152 66.4772 41.1373 42.2496 41.1074 42.1514ZM38.8447 42.1309C38.8447 42.1309 31.0156 66.325 30.3252 67.9512C29.6347 69.5757 28.1505 70.5009 27.0088 70.0166C25.867 69.5309 25.5017 67.8192 26.1895 66.1943C26.8815 64.5674 38.8447 42.1309 38.8447 42.1309ZM25.1045 54.2598C25.1045 54.2598 15.8605 66.6763 15.1045 67.4297C14.3498 68.1857 13.0252 68.0857 12.1484 67.209C11.2719 66.3309 11.1741 65.0085 11.9287 64.2539C12.6847 63.4992 25.1045 54.2598 25.1045 54.2598ZM53.9902 53.3535C54.0711 53.4148 67.1702 63.3516 67.9736 64.1562C68.7833 64.9648 68.7263 66.33 67.8496 67.208C66.9729 68.0845 65.6069 68.141 64.7998 67.334C63.9939 66.5306 54.0528 53.4359 53.9902 53.3535ZM40 41.0508C40 41.0508 42.2471 55.1227 42.2471 56.1045C42.2468 57.0861 41.2388 57.8809 40 57.8809C38.7612 57.8809 37.7532 57.0874 37.7529 56.1045C37.7529 55.1214 40 41.0508 40 41.0508ZM75.2285 52.3516C76.5629 52.3516 77.6453 53.4333 77.6455 54.7676C77.6455 56.1021 76.563 57.1846 75.2285 57.1846C73.8942 57.1844 72.8125 56.102 72.8125 54.7676C72.8127 53.4334 73.8943 52.3517 75.2285 52.3516ZM4.44727 51.6719C5.78091 51.672 6.8623 52.7532 6.8623 54.0869C6.86225 55.4205 5.78088 56.5018 4.44727 56.502C3.11353 56.502 2.03228 55.4206 2.03223 54.0869C2.03223 52.7531 3.1135 51.6719 4.44727 51.6719ZM42.7217 40.5645C42.7217 40.5645 66.9124 48.3921 68.54 49.082C70.1649 49.7724 71.0908 51.2589 70.6064 52.3994C70.122 53.5423 68.4089 53.9084 66.7842 53.2168C65.1593 52.5277 42.7217 40.5645 42.7217 40.5645ZM38.8369 40.5703C38.8369 40.5703 30.4749 52.1074 29.7832 52.8018C29.0889 53.496 27.8162 53.3474 26.9395 52.4707C26.0616 51.5927 25.9132 50.3203 26.6074 49.626C27.2991 48.9317 38.8369 40.5703 38.8369 40.5703ZM41.1631 40.5703C41.1631 40.5703 52.7009 48.9317 53.3926 49.626C54.0868 50.3203 53.9384 51.5927 53.0605 52.4707C52.1838 53.3474 50.9111 53.496 50.2168 52.8018C49.5251 52.1074 41.1631 40.5703 41.1631 40.5703ZM37.2578 40.5166C37.1833 40.5547 14.6119 52.0876 12.9766 52.748C11.3387 53.4107 9.63549 53.0143 9.1709 51.8633C8.70633 50.7149 9.65793 49.2455 11.2959 48.584C12.9301 47.9236 37.1654 40.5447 37.2578 40.5166ZM23.3047 37.1621C24.2828 37.1621 38.2899 39.3976 38.3564 39.4082C38.2748 39.4212 24.2823 41.6553 23.3047 41.6553C22.3232 41.6551 21.5285 40.6482 21.5283 39.4082C21.5283 38.1693 22.3231 37.1623 23.3047 37.1621ZM56.6963 37.1621C57.6767 37.1621 58.4736 38.1692 58.4736 39.4082C58.4735 40.6483 57.6779 41.6553 56.6963 41.6553C55.7172 41.6552 41.7251 39.4212 41.6436 39.4082C41.71 39.3976 55.7167 37.1621 56.6963 37.1621ZM2.55957 37.1396C3.62532 37.1396 18.9424 39.3828 18.9424 39.3828C18.9424 39.3828 3.62532 41.6315 2.55957 41.6328C1.48991 41.6328 0.625 40.6257 0.625 39.3867C0.625044 38.1465 1.48994 37.1397 2.55957 37.1396ZM77.3057 37.1172C78.4486 37.1162 79.375 38.1235 79.375 39.3623C79.3761 40.6024 78.4507 41.6084 77.3076 41.6084C76.1627 41.6095 59.7764 39.3672 59.7764 39.3672C59.7764 39.3672 76.1625 37.1172 77.3057 37.1172ZM67.0234 26.0703C68.6614 25.4077 70.3645 25.8054 70.8291 26.9551C71.2936 28.1048 70.342 29.5729 68.7041 30.2344C67.0694 30.8936 42.8292 38.2753 42.7422 38.3018C42.8071 38.2686 65.3878 26.7309 67.0234 26.0703ZM9.39355 26.418C9.87787 25.2774 11.591 24.9112 13.2158 25.6016C14.8407 26.2893 37.2783 38.2539 37.2783 38.2539C37.2783 38.2539 13.0859 30.4251 11.46 29.7344C9.83512 29.0453 8.9093 27.5611 9.39355 26.418ZM26.9395 26.3486C27.8162 25.4719 29.0889 25.3236 29.7832 26.0166C30.4749 26.7096 38.8369 38.248 38.8369 38.248C38.8369 38.248 27.2991 29.8867 26.6074 29.1924C25.9132 28.4994 26.0614 27.2254 26.9395 26.3486ZM50.2168 26.0166C50.9111 25.3236 52.1838 25.4719 53.0605 26.3486C53.9386 27.2254 54.0868 28.4994 53.3926 29.1924C52.7009 29.8867 41.1631 38.248 41.1631 38.248C41.1631 38.248 49.5251 26.7096 50.2168 26.0166ZM40 20.9355C41.239 20.9355 42.2471 21.7311 42.2471 22.7129C42.247 23.6929 40.0108 37.698 40 37.7656C39.9892 37.698 37.753 23.6916 37.7529 22.7129C37.7529 21.7325 38.761 20.9355 40 20.9355ZM49.6748 10.8691C50.3652 9.24295 51.8493 8.31842 52.9912 8.80273C54.1331 9.28705 54.4996 10.9978 53.8105 12.624C53.1199 14.2474 41.2191 36.5669 41.1553 36.6865C41.1966 36.5589 48.9859 12.491 49.6748 10.8691ZM27.5439 8.58105C28.695 8.11643 30.1627 9.06808 30.8242 10.7061C31.4857 12.3414 38.8926 36.6689 38.8926 36.6689C38.8926 36.6689 27.3239 14.0282 26.6611 12.3877C25.9997 10.7499 26.3945 9.04588 27.5439 8.58105ZM75.2285 22.4072C76.5623 22.4072 77.6436 23.4885 77.6436 24.8223C77.6434 26.1559 76.5622 27.2373 75.2285 27.2373C73.895 27.2371 72.8136 26.1558 72.8135 24.8223C72.8135 23.4886 73.8949 22.4074 75.2285 22.4072ZM4.44727 21.7256C5.78085 21.7257 6.8622 22.807 6.8623 24.1406C6.8623 25.4743 5.78091 26.5555 4.44727 26.5557C3.1135 26.5557 2.03223 25.4744 2.03223 24.1406C2.03233 22.8069 3.11356 21.7256 4.44727 21.7256ZM64.7998 11.416C65.6069 10.6077 66.9729 10.6642 67.8496 11.542C68.7264 12.4187 68.7834 13.7856 67.9736 14.5928C67.1692 15.3971 54.0511 25.3493 53.9902 25.3955C54.0322 25.3402 63.993 12.2215 64.7998 11.416ZM12.1484 11.541C13.0252 10.663 14.3498 10.5643 15.1045 11.3203C15.8588 12.072 25.0623 24.4317 25.1045 24.4883C25.0584 24.454 12.6833 15.2494 11.9287 14.4961C11.1741 13.7402 11.2719 12.4178 12.1484 11.541ZM39.9883 0C41.2285 4.43353e-05 42.2334 0.865246 42.2334 1.93359C42.233 3.00437 39.9932 18.3164 39.9932 18.3164C39.9932 18.3164 37.7422 3.00163 37.7422 1.93457C37.7422 0.867533 38.748 0 39.9883 0ZM25.2051 1.64844C26.5388 1.64844 27.6201 2.72972 27.6201 4.06348C27.6201 5.39724 26.5388 6.47852 25.2051 6.47852C23.8715 6.47829 22.79 5.3971 22.79 4.06348C22.7901 2.72986 23.8715 1.64867 25.2051 1.64844ZM55.1514 1.64844C56.4851 1.64844 57.5664 2.72972 57.5664 4.06348C57.5664 5.39724 56.4851 6.47852 55.1514 6.47852C53.8177 6.47845 52.7363 5.3972 52.7363 4.06348C52.7363 2.72976 53.8177 1.64851 55.1514 1.64844Z" fill="url(#paint0_linear_5_381)"/>
<defs>
<linearGradient id="paint0_linear_5_381" x1="40" y1="78.375" x2="1" y2="17.375" gradientUnits="userSpaceOnUse">
<stop stop-color="#DD8E06"/>
<stop offset="1" stop-color="#FFBF51"/>
</linearGradient>
</defs>
</svg>
