<svg width="63" height="41" viewBox="0 0 63 41" fill="none" xmlns="http://www.w3.org/2000/svg">
<rect width="63" height="41" rx="10" fill="#005BAA"/>
<path d="M44.5263 0H53C58.5229 0 63 4.47715 63 10V26L9 0H44.5263Z" fill="#3EA5FF"/>
<path d="M24.3201 26H22.0801L17.0081 18.336V26H14.7681V14.816H17.0081L22.0801 22.496V14.816H24.3201V26ZM28.7737 16.576V19.472H32.5337V21.2H28.7737V24.224H33.0137V26H26.5337V14.816H33.0137V16.576H28.7737ZM49.9773 14.832L46.8573 26H44.2173L42.1213 18.048L39.9293 26L37.3053 26.016L34.2973 14.832H36.6973L38.6653 23.504L40.9373 14.832H43.4333L45.5773 23.456L47.5613 14.832H49.9773Z" fill="white"/>
</svg>
