<svg xmlns="http://www.w3.org/2000/svg" width="44.186" height="44.186" viewBox="0 0 44.186 44.186">
  <path id="Path_140" data-name="Path 140" d="M13533.428,909.557a22.093,22.093,0,1,0,22.093,22.093A22.094,22.094,0,0,0,13533.428,909.557Zm-4.587,31.138h-4.42V927.434h4.42Zm-2.21-15.231a2.451,2.451,0,1,1,2.432-2.451A2.441,2.441,0,0,1,13526.631,925.465Zm17.682,15.231h-4.416v-6.323c0-4.157-4.425-3.806-4.425,0V940.7h-4.421V927.434h4.421v2.416c1.928-3.572,8.841-3.837,8.841,3.422Z" transform="translate(-13511.335 -909.557)" fill="#005baa"/>
</svg>
