<?xml version="1.0" encoding="utf-8"?>
<!-- Generator: Adobe Illustrator 25.2.2, SVG Export Plug-In . SVG Version: 6.00 Build 0)  -->
<svg version="1.1" id="Layer_1" xmlns="http://www.w3.org/2000/svg" xmlns:xlink="http://www.w3.org/1999/xlink" x="0px" y="0px"
	 viewBox="0 0 300 117" style="enable-background:new 0 0 300 117;" xml:space="preserve">
<style type="text/css">
	.st0{fill:#323031;}
	.st1{fill:#006CB7;}
	.st2{fill:#FFFFFF;}
</style>
<path class="st0" d="M101.4,95.3h1.7l-2,13.6h4.6l-0.2,1.4h-6.3L101.4,95.3z"/>
<path class="st0" d="M113.4,109.8c-0.8,0.4-1.7,0.7-2.7,0.7c-2.5,0-3.3-1.7-3.5-3.9c-0.2-2.9,1.4-7.3,4.8-7.3c1.7,0,2.5,1.2,2.5,2.4
	c0.1,2.6-2.3,3.8-5.6,3.8c0,0.3,0,1.5,0.2,2.1c0.3,0.9,0.9,1.4,1.9,1.4c0.9,0,1.5-0.3,2-0.6L113.4,109.8z M111.7,100.8
	c-1,0-2.1,1.2-2.6,3.5c1.9,0,3.9-0.6,3.8-2.3C112.8,101.2,112.4,100.8,111.7,100.8z"/>
<path class="st0" d="M115.8,108.7c0.4,0.2,1,0.5,1.8,0.5c1.2,0,1.8-0.8,1.8-1.8c0-0.9-0.6-1.5-1.3-2.1c-0.8-0.7-1.6-1.6-1.7-2.6
	c-0.1-1.8,1.3-3.2,3.5-3.2c0.8,0,1.5,0.2,1.8,0.4l-0.4,1.2c-0.3-0.2-0.9-0.3-1.4-0.3c-1.2,0-1.8,0.7-1.8,1.6c0,0.8,0.6,1.3,1.2,1.8
	c1,0.7,1.7,1.7,1.8,2.8c0.1,2.3-1.5,3.4-3.7,3.4c-0.9,0-1.8-0.3-2.2-0.6L115.8,108.7z"/>
<path class="st0" d="M127.5,110.3l2.3-15.4h1.8l-2.4,15.4H127.5z"/>
<path class="st0" d="M140.4,102.9c0.1,2.7-1.1,7.6-4.7,7.6c-2.2,0-2.9-1.7-3-3.7c-0.1-2.9,1.3-7.5,4.9-7.5
	C139.9,99.4,140.4,101.5,140.4,102.9z M134.4,106.7c0.1,1.2,0.2,2.5,1.5,2.5c2.1,0,2.8-4.6,2.7-6.4c-0.1-1.1-0.3-2-1.3-2
	C135.3,100.7,134.3,104.7,134.4,106.7z"/>
<path class="st0" d="M142.5,113c0.5,0.2,1.3,0.5,1.9,0.5c1.8,0,2.4-1.2,2.8-3.1l0.3-1.7l0,0c-0.9,1.5-1.9,1.8-2.7,1.8
	c-1.4,0-2.2-1.1-2.4-3.1c-0.2-3.1,1.4-7.9,5.7-7.9c0.9,0,1.9,0.2,2.5,0.5l-1.4,9.3c-0.3,2.2-0.8,3.7-1.6,4.4c-0.8,0.8-1.8,1.1-3,1.1
	c-0.9,0-1.8-0.2-2.3-0.5L142.5,113z M148.7,100.9c-0.2-0.1-0.5-0.2-1-0.2c-2.4,0-3.5,3.9-3.4,6.1c0,1.3,0.3,2.3,1.3,2.3
	c1.3,0,2.2-2,2.4-3.4L148.7,100.9z"/>
<path class="st0" d="M152.2,110.3l1.7-10.7h1.7l-1.7,10.7H152.2z M154.1,96.8c0-0.6,0.4-1.1,1.1-1.1s1,0.5,1,1
	c0,0.7-0.5,1.1-1.1,1.1C154.4,97.9,154.1,97.5,154.1,96.8z"/>
<path class="st0" d="M162.7,110.1c-0.4,0.2-1.1,0.3-1.9,0.3c-2.3,0-3.3-1.7-3.4-3.9c-0.2-3.1,1.6-7.2,5.5-7.2c0.5,0,0.9,0.1,1.2,0.2
	l-0.4,1.4c-0.2-0.1-0.5-0.2-0.9-0.2c-2.4,0-3.8,3.2-3.7,5.7c0.1,1.6,0.6,2.6,2,2.6c0.5,0,1-0.1,1.4-0.3L162.7,110.1z"/>
<path class="st0" d="M164.8,110.3l1.7-10.7h1.7l-1.7,10.7H164.8z M166.9,96.8c0-0.6,0.4-1.1,1.1-1.1c0.7,0,1,0.5,1,1
	c0,0.7-0.5,1.1-1.1,1.1C167.2,97.9,166.8,97.5,166.9,96.8z"/>
<path class="st0" d="M176.3,109.8c-0.8,0.4-1.7,0.7-2.7,0.7c-2.5,0-3.3-1.7-3.5-3.9c-0.2-2.9,1.4-7.3,4.8-7.3c1.7,0,2.5,1.2,2.5,2.4
	c0.1,2.6-2.3,3.8-5.6,3.8c0,0.3,0,1.5,0.2,2.1c0.3,0.9,0.9,1.4,1.9,1.4c0.9,0,1.5-0.3,2-0.6L176.3,109.8z M174.7,100.8
	c-1,0-2.1,1.2-2.6,3.5c1.9,0,3.9-0.6,3.8-2.3C175.8,101.2,175.4,100.8,174.7,100.8z"/>
<path class="st0" d="M178.7,110.3l2.3-15.4h1.8l-2.4,15.4H178.7z"/>
<path class="st0" d="M183.7,108.7c0.4,0.2,1,0.5,1.8,0.5c1.2,0,1.8-0.8,1.8-1.8c0-0.9-0.6-1.5-1.3-2.1c-0.8-0.7-1.6-1.6-1.7-2.6
	c-0.1-1.8,1.3-3.2,3.5-3.2c0.8,0,1.5,0.2,1.8,0.4l-0.4,1.2c-0.3-0.2-0.9-0.3-1.4-0.3c-1.2,0-1.8,0.7-1.8,1.6c0,0.8,0.6,1.3,1.2,1.8
	c1,0.7,1.7,1.7,1.8,2.8c0.1,2.3-1.5,3.4-3.7,3.4c-0.9,0-1.8-0.3-2.2-0.6L183.7,108.7z"/>
<path class="st0" d="M204.6,94.9l-1.8,11.7c-0.2,1.2-0.3,2.7-0.3,3.8H201l0.1-1.7l0,0c-0.5,1.1-1.6,1.8-2.7,1.8
	c-1.5,0-2.4-1.3-2.5-3.2c-0.2-3.7,1.7-7.9,5.2-7.9c0.5,0,0.9,0.2,1.3,0.4l0.7-4.9L204.6,94.9L204.6,94.9z M201.7,101.2
	c-0.2-0.3-0.6-0.5-1.1-0.5c-2.2,0-3.3,4.1-3.2,6.3c0.1,1.3,0.4,2.1,1.4,2.1c0.8,0,1.9-1,2.3-3.1L201.7,101.2z"/>
<path class="st0" d="M214,99.6l-1.1,7.1c-0.2,1.5-0.3,2.8-0.3,3.7H211l0.1-1.7l0,0c-0.8,1.3-1.9,1.8-3,1.8c-1.4,0-2-1-2.1-2.2
	c0-0.6,0-1.1,0.1-1.7l1.1-7h1.7l-1,6.8c-0.1,0.6-0.1,1.1-0.1,1.7c0,0.7,0.3,1.1,1,1.1c1.2,0,2.3-1.4,2.6-3.3l0.9-6.2h1.7V99.6z"/>
<path class="st0" d="M222.2,99.6l0.5,6.1c0.1,1.1,0.1,1.8,0.1,2.6h0.1c0.2-0.8,0.5-1.5,0.9-2.5l2.4-6.2h1.8l-4.7,10.7h-1.7
	l-1.2-10.7H222.2z"/>
<path class="st0" d="M236.3,102.9c0.1,2.7-1.1,7.6-4.7,7.6c-2.2,0-2.9-1.7-3-3.7c-0.2-2.9,1.3-7.5,4.9-7.5
	C235.7,99.4,236.2,101.5,236.3,102.9z M230.3,106.7c0.1,1.2,0.2,2.5,1.5,2.5c2.1,0,2.8-4.6,2.7-6.4c-0.1-1.1-0.3-2-1.3-2
	C231.2,100.7,230.2,104.7,230.3,106.7z"/>
<path class="st0" d="M240.1,99.6l0.7,6.1c0.1,1,0.2,1.6,0.3,2.6l0,0c0.3-0.9,0.6-1.7,0.9-2.7l2.1-6h1.8l-3.5,8.7
	c-0.9,2.4-2.1,4.4-3.5,5.7c-0.7,0.5-1.3,0.9-1.8,1.1l-0.8-1.3c0.5-0.2,1.1-0.5,1.7-1c0.7-0.5,1.4-1.5,1.8-2.3
	c0.1-0.2,0.1-0.4,0.1-0.6l-1.6-10.1L240.1,99.6L240.1,99.6z"/>
<path class="st0" d="M251.8,110.3c0-0.6,0-1.2,0.1-2l0,0c-1.1,1.8-2.1,2.2-2.9,2.2c-1.3,0-2.2-1.1-2.3-3c-0.2-3.2,1.5-8.1,6.1-8.1
	c0.8,0,1.7,0.2,2.2,0.4l-1,6.2c-0.2,1.4-0.4,3.2-0.3,4.5L251.8,110.3L251.8,110.3z M252.9,100.8c-0.2,0-0.5-0.1-0.7-0.1
	c-2.6,0-3.9,4-3.9,6.3c0,1.3,0.4,2.1,1.2,2.1c1.2,0,2.3-2.1,2.7-4.3L252.9,100.8z"/>
<path class="st0" d="M256.6,113c0.5,0.2,1.3,0.5,1.9,0.5c1.8,0,2.4-1.2,2.8-3.1l0.3-1.7l0,0c-0.9,1.5-1.9,1.8-2.7,1.8
	c-1.4,0-2.2-1.1-2.4-3.1c-0.2-3.1,1.4-7.9,5.7-7.9c0.9,0,1.9,0.2,2.5,0.5l-1.4,9.3c-0.3,2.2-0.8,3.7-1.6,4.4c-0.8,0.8-1.8,1.1-3,1.1
	c-0.9,0-1.8-0.2-2.3-0.5L256.6,113z M262.8,100.9c-0.2-0.1-0.5-0.2-1-0.2c-2.4,0-3.5,3.9-3.4,6.1c0,1.3,0.3,2.3,1.3,2.3
	c1.3,0,2.2-2,2.4-3.4L262.8,100.9z"/>
<path class="st0" d="M272.6,109.8c-0.8,0.4-1.7,0.7-2.7,0.7c-2.5,0-3.3-1.7-3.4-3.9c-0.2-2.9,1.4-7.3,4.8-7.3c1.7,0,2.5,1.2,2.5,2.4
	c0.1,2.6-2.3,3.8-5.6,3.8c0,0.3,0,1.5,0.2,2.1c0.3,0.9,0.9,1.4,1.9,1.4c0.9,0,1.5-0.3,2-0.6L272.6,109.8z M271,100.8
	c-1,0-2.1,1.2-2.6,3.5c1.9,0,3.9-0.6,3.8-2.3C272.1,101.2,271.7,100.8,271,100.8z"/>
<path class="st1" d="M50.3,29.3c0,0,68.6-55.9,169-8.3C204.2,16.4,140.1-15.2,50.3,29.3z"/>
<path class="st1" d="M76.7,65.1L76.7,65.1H59.6c-1.3-0.5-2-1.6-2-3.2c0.1-4.7,1.1-8.1,2.8-12.8c0.8-1.3,1.9-2,3.3-2h12.7
	c2.6-0.7,7-2.7,8.5-8.8H60.1c-4,0.2-7,2.9-9.2,8.1c-0.3-1.6-0.7-2.9-1.4-4.1c-1.6-2.5-4.4-3.9-8.3-4.2H12.9L4,93.1
	c2.4-0.1,9.9-1.1,12.8-9.8l1.4-8.9h17.4c5.2-0.4,9.1-3.7,11.8-8.9c0.1,2.8,0.6,5,1.6,6.5c1,1.6,2.4,2.4,4.5,2.5h34
	C85.3,65.3,76.7,65.1,76.7,65.1z M40.8,55c-0.4,2.7-1.4,7.4-3,8.7c-1.3,1.1-2.9,1.6-5.7,1.6H19.4l2.8-18.5h12.2
	c1.6,0,2.8,0.2,3.7,0.5C40.4,48.4,41.4,51.2,40.8,55z"/>
<g>
	<path class="st0" d="M95.5,74.5l-5.2-41.9h5.3l3,26.9c0.5,4.3,0.7,6.7,0.8,9.4h0.2c1-2.6,2.3-5.7,4.6-10.1l13.3-26.2h5.7l-22,41.9
		H95.5z"/>
	<path class="st0" d="M145.8,56.3c0,9.2-6.6,18.9-16.6,18.9c-7.5,0-11.8-5.6-11.8-12.4c0-9.8,6.9-19.1,16.6-19.1
		C142.1,43.8,145.8,49.9,145.8,56.3z M122.8,62.7c0,4.9,2.6,8.4,7.1,8.4c6.1,0,10.6-7.8,10.6-14.8c0-3.4-1.6-8.4-7-8.4
		C127,47.9,122.6,55.8,122.8,62.7z"/>
	<path class="st0" d="M154,44.4l2.9,16.2c0.7,3.4,1,5.7,1.3,7.9h0.1c0.8-1.9,1.7-4.1,3.2-7.3l7.6-16.7h5.5l-11.2,22.8
		c-3.2,6.5-6.3,11.8-10.3,15.8c-3.3,3.4-7,4.9-8.7,5.2l-1.2-4.5c1.3-0.5,3.4-1.3,5.6-2.9c2-1.5,4.2-4,5.8-6.9
		c0.2-0.5,0.2-0.9,0.2-1.3l-6-28.3L154,44.4L154,44.4z"/>
	<path class="st0" d="M192.1,74.5c0-1.8,0.3-4.7,0.7-7.8h-0.2c-3.2,6.2-7.4,8.4-11.7,8.4c-5.3,0-8.6-4.3-8.6-9.9
		c0-10.4,7.7-21.5,20.8-21.5c2.8,0,6,0.5,8.1,1.2l-3,15.6c-1,5.2-1.4,10.5-1.3,13.9L192.1,74.5L192.1,74.5z M195.5,48.3
		c-0.7-0.2-1.8-0.4-3.7-0.4c-7.8,0-14.1,8.1-14.2,16.4c0,3.3,1.2,6.7,5.2,6.7c4.3,0,9.4-5.6,10.9-13.6L195.5,48.3z"/>
	<path class="st0" d="M203.4,81.3c1.8,1.1,4.8,2,7.9,2c5.1,0,9-2.6,10.9-10.7l1-4.5H223c-2.6,4.3-6.3,6.4-10.4,6.4
		c-6,0-9.1-5.1-9.1-10.4c-0.1-10.1,7.5-20.3,19.1-20.3c3.4,0,7.3,1,9.6,2.1l-4.6,24.8c-1.2,6.3-2.9,10.7-6.1,13.4
		c-2.9,2.6-7,3.3-10.5,3.3c-3.7,0-7.1-0.9-9-2.1L203.4,81.3z M226.4,48.9c-0.9-0.4-2.8-1-5-1c-7.5,0-12.7,7.8-12.8,15.3
		c0,3.2,1.2,7.2,5.8,7.2c4.4,0,8.9-5.6,10-11.5L226.4,48.9z"/>
	<path class="st0" d="M255.7,72.8c-2.2,1.3-5.9,2.3-9.9,2.3c-7.9,0-11.5-5.4-11.5-12.1c0-9,6.7-19.4,16.4-19.4
		c5.7,0,8.8,3.4,8.8,7.7c0,7.9-8.9,10-20,9.8c-0.2,1.3-0.1,4.1,0.6,5.7c1.2,2.6,3.7,4.1,6.7,4.1c3.5,0,6.2-1.1,8.1-2.1L255.7,72.8z
		 M250,47.8c-4.9,0-8.6,4.8-9.8,9.5c8.1,0.1,14.4-1,14.4-5.7C254.6,49.2,252.8,47.8,250,47.8z"/>
	<path class="st0" d="M260.9,69.3c1.4,0.9,4.1,1.8,6.5,1.8c3.4,0,5.7-2.2,5.7-4.9c0-2.3-1-3.8-4.2-5.6c-3.4-1.9-5.4-4.6-5.4-7.6
		c0-5.3,4.6-9.3,10.9-9.3c2.7,0,5.2,0.7,6.3,1.5l-1.4,4c-1-0.6-2.9-1.3-5.2-1.3c-3.1,0-5.4,1.9-5.4,4.6c0,2.1,1.4,3.5,4.1,5.1
		c3.3,1.9,5.7,4.6,5.7,7.9c0,6.4-5.2,9.8-11.5,9.8c-3.2,0-6.1-1-7.5-2L260.9,69.3z"/>
</g>
<g>
	<path class="st2" d="M288.1,47.7L288.1,47.7c0.4-0.1,0.6-0.4,0.6-0.7s-0.1-0.5-0.3-0.7c-0.2-0.1-0.5-0.2-1-0.2s-0.9,0-1.2,0.1v3
		h0.7V48h0.3c0.4,0,0.6,0.1,0.6,0.5c0.1,0.4,0.1,0.6,0.2,0.7h0.8c-0.1-0.1-0.1-0.3-0.2-0.8C288.6,48.1,288.5,47.8,288.1,47.7z
		 M287.2,47.5h-0.3v-0.9c0.1,0,0.2,0,0.4,0c0.4,0,0.6,0.2,0.6,0.5C287.9,47.4,287.6,47.5,287.2,47.5z"/>
	<path class="st2" d="M287.4,44.5c-1.7,0-3.1,1.3-3.1,3s1.4,3.1,3.1,3.1s3.1-1.4,3.1-3.1C290.6,45.9,289.2,44.5,287.4,44.5z
		 M287.4,50c-1.4,0-2.4-1.1-2.4-2.4s1-2.4,2.3-2.4s2.3,1.1,2.3,2.4C289.8,49,288.8,50,287.4,50z"/>
</g>
</svg>
