<?xml version="1.0" encoding="utf-8"?>
<!-- Generator: Adobe Illustrator 25.3.1, SVG Export Plug-In . SVG Version: 6.00 Build 0)  -->
<svg version="1.1" id="Layer_1" xmlns="http://www.w3.org/2000/svg" xmlns:xlink="http://www.w3.org/1999/xlink" x="0px" y="0px"
	 viewBox="0 0 300 117" style="enable-background:new 0 0 300 117;" xml:space="preserve">
<style type="text/css">
	.st0{fill:#006CB7;}
	.st1{fill:#323031;}
</style>
<path class="st0" d="M8.3,44.2H0l1.2-7.6h25.4l-1.2,7.6h-8.3l-5.6,35.9H2.7L8.3,44.2z M23.5,80.2l3.3-21.4c0.6-3.6,0.9-7.2,1.2-10.1
	h7.6c-0.1,1.6-0.1,3.3-0.3,5.2h0.2c2.3-4,5.4-5.7,8.3-5.7c0.6,0,1,0,1.5,0.2l-1.2,8c-0.3,0-1-0.1-1.5-0.1c-3.8,0-7.2,4-8,9.3
	l-2.3,14.6H23.5C23.5,80.1,23.5,80.2,23.5,80.2z M63.1,80.2v-5.3H63c-2.6,4.2-5.8,5.8-8.6,5.8c-5,0-7.7-3.9-8-9.5
	c-0.5-9.6,4-23.1,18.9-23.1c3.5,0,6.9,0.5,9.2,1.3L71.6,67c-0.7,3.7-0.9,9.8-0.7,13.3C70.8,80.2,63.1,80.2,63.1,80.2z M64.9,54.3
	c-0.7-0.2-1.4-0.2-1.9-0.2c-5.8,0-8.4,10.5-8.2,15.2c0.2,2.7,0.7,4.8,2.9,4.8c2.4,0,4.5-3.6,5.5-9.3C63.2,64.7,64.9,54.3,64.9,54.3z
	 M88.7,48.6L89,63.1c-0.1,4.4,0,6,0,9h0.2c0.8-2.9,1.4-4.6,2.6-8.5l5.2-15h8.8l-14,31.6H83l-3.6-31.6H88.7L88.7,48.6z M128.8,78.8
	c-3,1.2-5.9,1.7-9.9,1.7c-8.5,0-12-5.1-12.4-11.9C105.9,59.5,110.9,48,122,48c6.3,0,9.3,4.3,9.7,8.6c0.4,8.7-7,11.9-16.7,11.7
	c0,0.9,0.2,2.5,0.9,3.7c0.9,1.3,2.6,2.2,5,2.2c2.9,0,5-0.7,6.9-1.5C127.8,72.6,128.8,78.8,128.8,78.8z M121.2,54.5
	c-2.7,0-5,3.2-5.7,7.7c4.7,0.2,8.5-1.5,8.3-4.8C123.8,55.6,122.9,54.5,121.2,54.5z M134.5,80.2l7-44.7h8.8l-7,44.7H134.5z"/>
<path class="st1" d="M158.4,80.2l-2.1-43.6h5.2l1,25.8c0,4.4-0.2,7.4-0.3,11h0.2c0.9-3.5,1.9-6.7,3.3-10.6l9.6-26.1h4.8l1.3,25.7
	c0.2,4.3,0,7.4-0.1,11h0.2c0.9-3.5,1.8-6.9,3.1-10.8l9-26h5.1L183,80.1h-5.1l-1.5-24.6c-0.2-3.3-0.1-6.9,0-11h-0.2
	c-1.2,4.1-2.1,7.6-3.7,11.4l-9.2,24.2L158.4,80.2L158.4,80.2z M220.3,58.6c0.4,7.9-3.1,22.1-13.6,22.1c-6.3,0-8.6-5.1-8.9-10.6
	c-0.4-8.4,3.9-21.7,14.1-21.7C218.8,48.4,220.2,54.4,220.3,58.6z M203,69.7c0.2,3.5,0.7,7.2,4.3,7.2c6.2,0,8.1-13.3,7.9-18.6
	c-0.2-3.3-0.9-6-3.9-6C205.6,52.3,202.7,63.5,203,69.7z M225.2,80.2l3.3-21c0.6-4.2,0.9-8,0.9-10.3h4.5c0,1.7,0,3.3-0.3,5.9h0.2
	c1.9-3.8,4.8-6.4,8.2-6.4c0.3,0,0.6,0.1,0.9,0.1l-0.8,4.9c-0.2,0-0.4-0.1-0.6-0.1c-4.5,0-8.1,5.8-8.8,10.5l-2.6,16.5L225.2,80.2
	L225.2,80.2z M244.4,80.2l6.9-44.7h5l-4.2,27h0.2c0.8-0.9,1.5-2.2,2.1-3l8.2-10.5h5.9l-11,13.2l7.6,18.1h-5.2L254,64.8l-2.5,3
	l-2,12.5L244.4,80.2L244.4,80.2L244.4,80.2z M270.3,75.3c1.1,0.7,2.8,1.5,5.4,1.5c3.4-0.1,5.4-2.3,5.2-5.3c-0.2-2.7-1.7-4.4-3.8-6.1
	c-2.4-2-4.7-4.6-4.9-7.6c-0.3-5.3,3.8-9.4,10.2-9.4c2.2,0,4.3,0.5,5.4,1.2l-1.2,3.6c-1-0.5-2.6-0.9-4-0.9c-3.5,0-5.4,2.1-5.3,4.9
	c0.2,2.5,1.8,3.8,3.4,5.2c2.8,2.1,5,5,5.2,8.2c0.3,6.7-4.3,10.1-10.7,10.1c-2.6,0-5.4-0.9-6.4-1.7L270.3,75.3L270.3,75.3z
	 M60.2,94.5h-3l0.3-1.7h7.8L65,94.5h-3l-2.8,15.1h-1.8L60.2,94.5z M63.9,109.5l1.5-8.1c0.3-1.6,0.4-3,0.5-3.9h1.6
	c0,0.6-0.1,1.3-0.2,2.2h0.1c0.8-1.5,1.8-2.4,3-2.4c0.1,0,0.2,0,0.3,0l-0.3,1.9c-0.1,0-0.2,0-0.2,0c-1.6,0-2.9,2.2-3.3,4l-1.2,6.3
	H63.9L63.9,109.5z M76.2,109.5c0-0.7,0.1-1.3,0.2-2.3h-0.1c-1.2,2-2.2,2.5-3.1,2.5c-1.4,0-2.2-1.2-2.2-3.4c0-3.7,1.9-9,6.6-9
	c0.8,0,1.7,0.2,2.2,0.4l-1.4,6.9c-0.3,1.6-0.5,3.6-0.5,4.9H76.2L76.2,109.5z M77.8,98.9c-0.2-0.1-0.5-0.1-0.7-0.1
	c-2.7,0-4.2,4.4-4.2,7c0,1.5,0.3,2.4,1.1,2.4c1.2,0,2.5-2.4,3-4.8L77.8,98.9z M84.2,97.5l0.2,6.8c0,1.3,0,2.1,0,2.9h0.1
	c0.3-0.8,0.6-1.7,1.1-2.9l2.8-6.9h1.8l-5.3,12H83l-0.7-12L84.2,97.5L84.2,97.5z M97,108.9c-0.9,0.5-1.8,0.8-2.8,0.8
	c-2.5,0-3.4-1.9-3.4-4.2c0-3.3,1.8-8.1,5.2-8.1c1.8,0,2.5,1.3,2.5,2.7c0,2.9-2.6,4.2-5.9,4.2c-0.1,0.3-0.1,1.7,0.1,2.4
	c0.3,1,0.9,1.6,1.8,1.6s1.6-0.3,2.1-0.7L97,108.9z M95.8,98.8c-1.1,0-2.2,1.3-2.9,3.9c1.9,0,3.9-0.7,3.9-2.6
	C96.8,99.3,96.5,98.8,95.8,98.8z M99.9,109.5l3.2-17.2h1.8l-3.3,17.2H99.9z M115.1,94.5h-3l0.3-1.7h7.8l-0.3,1.7h-3l-2.8,15.1h-1.8
	L115.1,94.5z M125.2,108.9c-0.9,0.5-1.8,0.8-2.8,0.8c-2.5,0-3.4-1.9-3.4-4.2c0-3.3,1.8-8.1,5.2-8.1c1.8,0,2.5,1.3,2.5,2.7
	c0,2.9-2.6,4.2-5.9,4.2c-0.1,0.3-0.1,1.7,0.1,2.4c0.3,1,0.9,1.6,1.8,1.6s1.6-0.3,2.1-0.7L125.2,108.9z M124,98.8
	c-1.1,0-2.2,1.3-2.9,3.9c1.9,0,3.9-0.7,3.9-2.6C125.1,99.3,124.7,98.8,124,98.8z M133.8,109.3c-0.4,0.2-1.1,0.3-2,0.3
	c-2.4,0-3.3-2-3.3-4.3c0-3.5,2.1-8.1,6-8.1c0.5,0,0.9,0.1,1.2,0.2l-0.5,1.5c-0.2-0.1-0.5-0.2-0.9-0.2c-2.5,0-4,3.6-4,6.3
	c0,1.8,0.5,2.9,1.9,2.9c0.5,0,1-0.1,1.5-0.3L133.8,109.3z M136.4,109.5l3.2-17.2h1.8l-1.3,6.8h0.1c0.8-1.2,1.8-1.9,3-1.9
	c1.4,0,2,1.1,2,2.4c0,0.7-0.1,1.2-0.2,2l-1.5,7.8h-1.8l1.5-7.8c0.1-0.5,0.1-1,0.1-1.6c0-0.8-0.3-1.2-1-1.2c-1.2,0-2.5,1.8-2.9,3.8
	l-1.3,6.9L136.4,109.5L136.4,109.5z M147.3,109.5l1.5-7.9c0.3-1.7,0.5-3.1,0.6-4.1h1.6l-0.2,1.9h0.1c1-1.5,2-2.1,3.2-2.1
	c1.5,0,2.1,1.2,2.1,2.4c0,0.7-0.1,1.3-0.2,2l-1.5,7.8h-1.8l1.5-7.8c0.1-0.6,0.2-1,0.2-1.7s-0.3-1.2-1-1.2c-1.1,0-2.5,1.7-2.9,4
	l-1.3,6.7L147.3,109.5L147.3,109.5z M166.6,101.2c0,3-1.5,8.5-5.2,8.5c-2.2,0-2.9-1.9-2.9-4.1c0-3.2,1.7-8.3,5.3-8.3
	C166.3,97.3,166.6,99.6,166.6,101.2z M160.4,105.5c0,1.4,0.1,2.8,1.4,2.8c2.2,0,3.1-5.1,3.1-7.1c0-1.2-0.2-2.3-1.3-2.3
	C161.6,98.8,160.4,103.1,160.4,105.5z M168.4,109.5l3.2-17.2h1.8l-3.3,17.2H168.4z M182.5,101.2c0,3-1.5,8.5-5.2,8.5
	c-2.2,0-2.9-1.9-2.9-4.1c0-3.2,1.7-8.3,5.3-8.3C182.1,97.3,182.5,99.6,182.5,101.2z M176.2,105.5c0,1.4,0.1,2.8,1.4,2.8
	c2.2,0,3.1-5.1,3.1-7.1c0-1.2-0.2-2.3-1.3-2.3C177.4,98.8,176.2,103.1,176.2,105.5z M184.5,112.5c0.5,0.3,1.3,0.5,1.9,0.5
	c1.8,0,2.6-1.3,3-3.5l0.4-1.9h-0.1c-1,1.7-2,2.1-2.9,2.1c-1.4,0-2.3-1.2-2.3-3.5c0-3.6,1.9-8.8,6.2-8.8c0.9,0,1.9,0.3,2.5,0.6
	l-2,10.4c-0.5,2.5-1,4.1-1.9,4.9c-0.8,0.8-1.9,1.2-3.2,1.2c-0.9,0-1.9-0.2-2.4-0.6L184.5,112.5z M191.4,99c-0.2-0.1-0.6-0.2-1-0.2
	c-2.4,0-3.8,4.2-3.9,6.7c0,1.4,0.2,2.6,1.2,2.6c1.3,0,2.4-2.3,2.7-3.8L191.4,99z M197.8,97.5l0.4,6.7c0.1,1.1,0.1,1.8,0.1,3h0.1
	c0.3-1,0.7-2,1.1-3l2.5-6.7h1.8l-4,9.8c-1.1,2.7-2.4,4.9-4,6.3c-0.7,0.6-1.4,1-1.9,1.2l-0.7-1.5c0.5-0.2,1.2-0.6,1.8-1.2
	c0.8-0.6,1.6-1.7,1.9-2.6c0.1-0.2,0.1-0.4,0.1-0.7l-1-11.3H197.8L197.8,97.5z M209.4,107.4c0.5,0.3,1.3,0.6,2.2,0.6
	c2,0,3.1-1.5,3.1-3.2c0-1.3-0.6-2.3-1.7-3.4c-1.2-1.2-2.1-2.5-2.1-4.1c0-2.6,1.9-4.7,4.7-4.7c1,0,1.8,0.3,2.2,0.5l-0.6,1.5
	c-0.5-0.3-1-0.4-1.8-0.4c-1.6,0-2.7,1.2-2.7,2.8c0,1.2,0.7,2.1,1.8,3.2s2,2.6,2,4.2c0,3-1.9,5.2-5,5.2c-1.2,0-2.3-0.4-2.7-0.7
	L209.4,107.4z M227.4,101.2c0,3-1.5,8.5-5.2,8.5c-2.2,0-2.9-1.9-2.9-4.1c0-3.2,1.7-8.3,5.3-8.3C227,97.3,227.4,99.6,227.4,101.2z
	 M221.1,105.5c0,1.4,0.1,2.8,1.4,2.8c2.2,0,3.1-5.1,3.1-7.1c0-1.2-0.2-2.3-1.3-2.3C222.3,98.8,221.1,103.1,221.1,105.5z
	 M229.2,109.5l3.2-17.2h1.8l-3.3,17.2H229.2z M244.1,97.5l-1.5,7.9c-0.3,1.7-0.5,3.1-0.6,4.1h-1.6l0.2-1.9h-0.1
	c-0.9,1.5-2.1,2.1-3.2,2.1c-1.4,0-2-1.2-2-2.5c0-0.7,0.1-1.2,0.2-1.9l1.5-7.8h1.8l-1.4,7.6c-0.1,0.7-0.2,1.2-0.2,1.9
	c0,0.7,0.3,1.2,1,1.2c1.2,0,2.4-1.6,2.8-3.8l1.3-6.9L244.1,97.5L244.1,97.5z M250.6,94.4l-0.6,3.2h2.3L252,99h-2.3l-1.3,6.9
	c-0.1,0.6-0.2,1.2-0.2,1.5c0,0.6,0.2,0.9,0.8,0.9c0.3,0,0.5,0,0.7-0.1l-0.1,1.4c-0.4,0.1-0.9,0.2-1.3,0.2c-1.3,0-2-0.7-2-1.9
	c0-0.5,0.1-1,0.2-1.9l1.3-6.9h-1.4l0.2-1.4h1.5l0.5-2.6L250.6,94.4z M252.7,109.5l2.3-12h1.8l-2.3,12H252.7z M255.4,94.5
	c0-0.7,0.5-1.3,1.2-1.3s1,0.5,1,1.2c0,0.8-0.6,1.3-1.2,1.3C255.7,95.6,255.3,95.2,255.4,94.5z M266.7,101.2c0,3-1.5,8.5-5.2,8.5
	c-2.2,0-2.9-1.9-2.9-4.1c0-3.2,1.7-8.3,5.3-8.3C266.4,97.3,266.7,99.6,266.7,101.2z M260.4,105.5c0,1.4,0.1,2.8,1.4,2.8
	c2.2,0,3.1-5.1,3.1-7.1c0-1.2-0.2-2.3-1.3-2.3C261.6,98.8,260.4,103.1,260.4,105.5z M268.5,109.5l1.5-7.9c0.3-1.7,0.5-3.1,0.6-4.1
	h1.6l-0.2,1.9l0,0c1-1.5,2-2.1,3.2-2.1c1.5,0,2.1,1.2,2.1,2.4c0,0.7-0.1,1.3-0.2,2l-1.5,7.8h-1.8l1.5-7.8c0.1-0.6,0.2-1,0.2-1.7
	s-0.3-1.2-1-1.2c-1.1,0-2.5,1.7-2.9,4l-1.3,6.7L268.5,109.5L268.5,109.5z M279.5,107.7c0.4,0.2,1,0.6,1.9,0.6c1.2,0,2-0.9,2-2
	s-0.5-1.7-1.2-2.3c-0.8-0.7-1.6-1.8-1.6-2.9c0-2,1.5-3.6,3.7-3.6c0.8,0,1.5,0.2,1.9,0.4l-0.5,1.4c-0.4-0.2-0.9-0.4-1.4-0.4
	c-1.2,0-1.9,0.8-1.9,1.9c0,0.9,0.5,1.5,1.1,2c1,0.8,1.7,1.9,1.7,3.2c0,2.6-1.7,3.9-3.9,3.9c-1,0-1.9-0.4-2.2-0.7L279.5,107.7z"/>
<path class="st0" d="M48.2,32.8c0,0,71.9-58.6,177.2-8.7C209.5,19.3,142.4-13.9,48.2,32.8z"/>
</svg>
