<svg xmlns="http://www.w3.org/2000/svg" width="44.186" height="44.186" viewBox="0 0 44.186 44.186">
  <path id="Path_139" data-name="Path 139" d="M13161.58,909.557a22.093,22.093,0,1,0,22.093,22.093A22.094,22.094,0,0,0,13161.58,909.557Zm8.177,31.1c-3.87.265-12.49.265-16.354,0-4.19-.287-4.678-2.338-4.71-9.006.032-6.681.525-8.719,4.71-9.007,3.864-.265,12.486-.265,16.354,0,4.191.287,4.678,2.338,4.711,9.007C13174.435,938.331,13173.943,940.369,13169.757,940.656Zm-11.858-13.318,9.052,4.3-9.052,4.319Z" transform="translate(-13139.487 -909.557)" fill="#005baa"/>
</svg>
