<?xml version="1.0" encoding="UTF-8"?><svg id="Layer_2" xmlns="http://www.w3.org/2000/svg" width="303.52" height="164" viewBox="0 0 303.52 164"><defs><style>.cls-1{fill:#595959;}.cls-2{fill:#005baa;}.cls-3{fill:#c6c6c6;}</style></defs><g id="Layer_3"><g><g><path class="cls-1" d="M45.83,110.22h-3.08l2.09-17.11h3.08l-2.09,17.11Z"/><path class="cls-1" d="M53.29,93.13c.09,.01,.17,.04,.24,.07,.07,.04,.13,.08,.19,.15s.11,.15,.18,.26l6.64,11.68c.02-.23,.03-.45,.05-.67,.02-.22,.04-.42,.07-.61l1.33-10.9h2.7l-2.11,17.11h-1.57c-.24,0-.44-.04-.6-.11s-.3-.21-.41-.42l-6.6-11.68c-.02,.19-.03,.37-.05,.55-.02,.18-.03,.35-.05,.5l-1.34,11.16h-2.7l2.1-17.11h1.6c.13,0,.25,0,.34,.02Z"/><path class="cls-1" d="M83.45,93.11l-.32,2.52h-4.67l-1.79,14.59h-3.04l1.78-14.59h-4.68l.31-2.52h12.42Z"/><path class="cls-1" d="M87.09,103.48l-.83,6.75h-3.04l2.09-17.11h4.85c.98,0,1.82,.11,2.52,.31,.7,.21,1.27,.5,1.72,.88,.45,.38,.78,.82,.99,1.34,.21,.52,.32,1.09,.32,1.72,0,.66-.09,1.28-.28,1.86-.19,.58-.45,1.11-.8,1.58-.35,.47-.77,.89-1.27,1.24-.5,.35-1.07,.63-1.71,.83,.18,.11,.35,.24,.5,.4s.28,.35,.39,.57l3.04,6.38h-2.75c-.26,0-.48-.05-.65-.16s-.31-.26-.4-.46l-2.5-5.55c-.09-.21-.21-.35-.35-.44-.14-.09-.35-.14-.64-.14h-1.2Zm.99-8l-.72,5.81h1.77c.61,0,1.14-.09,1.59-.27s.81-.42,1.1-.73,.5-.68,.64-1.09c.14-.42,.21-.87,.21-1.35,0-.74-.23-1.32-.68-1.74-.46-.42-1.16-.63-2.11-.63h-1.79Z"/><path class="cls-1" d="M111.16,110.22h-2.37c-.27,0-.48-.06-.64-.19s-.26-.3-.29-.51l-.71-3.57h-6.36l-1.58,3.57c-.09,.18-.23,.34-.42,.49-.2,.14-.42,.21-.66,.21h-2.41l8.24-17.11h3.12l4.07,17.11Zm-9.41-6.44h4.96l-1.16-5.86c-.06-.28-.13-.58-.19-.9-.06-.32-.12-.67-.18-1.07-.15,.39-.3,.76-.44,1.09-.15,.34-.28,.63-.41,.88l-2.59,5.85Z"/><path class="cls-1" d="M113.13,93.11h2.45c.27,0,.48,.07,.64,.2,.16,.13,.26,.3,.29,.5l2.28,10.66c.08,.37,.15,.74,.22,1.12,.07,.38,.14,.78,.2,1.2,.13-.43,.28-.83,.45-1.22s.33-.76,.48-1.09l4.85-10.66c.08-.17,.22-.33,.42-.48,.2-.15,.43-.22,.68-.22h2.48l-8.42,17.11h-2.78l-4.23-17.11Z"/><path class="cls-1" d="M140.09,93.11l-.31,2.45h-6.86l-.59,4.86h5.39l-.29,2.36h-5.39l-.61,4.99h6.89l-.31,2.45h-9.95l2.1-17.11h9.94Z"/><path class="cls-1" d="M143.8,107.68h6.2l-.29,2.54h-9.27l2.1-17.11h3.05l-1.79,14.57Z"/><path class="cls-1" d="M166.42,96.19c-.11,.16-.22,.27-.33,.35s-.24,.11-.4,.11-.32-.06-.48-.19c-.17-.13-.36-.27-.59-.42-.23-.15-.5-.29-.81-.42s-.69-.19-1.13-.19-.81,.06-1.14,.19-.61,.3-.83,.52c-.22,.22-.39,.48-.51,.78s-.17,.62-.17,.97,.09,.66,.28,.91c.18,.24,.43,.45,.72,.63s.64,.34,1.03,.49c.38,.14,.78,.29,1.17,.45,.4,.16,.79,.34,1.17,.54s.73,.46,1.03,.76,.54,.66,.72,1.08c.18,.42,.28,.93,.28,1.53,0,.84-.14,1.63-.43,2.37s-.7,1.39-1.24,1.95c-.54,.56-1.19,1-1.96,1.33s-1.63,.49-2.59,.49c-.5,0-.98-.05-1.46-.16s-.93-.26-1.36-.46-.82-.43-1.18-.71c-.36-.28-.68-.58-.94-.92l1.08-1.47c.09-.11,.2-.2,.33-.27,.13-.07,.27-.11,.4-.11,.13,0,.25,.04,.37,.12s.26,.18,.4,.29,.3,.24,.47,.38c.17,.14,.36,.26,.58,.38,.22,.12,.47,.21,.74,.29,.27,.08,.59,.12,.96,.12,.89,0,1.58-.25,2.09-.76s.75-1.2,.75-2.09c0-.39-.09-.72-.27-.97s-.42-.47-.72-.64c-.3-.17-.64-.33-1.01-.46-.38-.13-.76-.27-1.16-.41-.4-.15-.78-.32-1.16-.51-.38-.19-.72-.44-1.01-.75-.3-.3-.54-.68-.72-1.12-.18-.44-.27-.99-.27-1.63,0-.73,.14-1.44,.41-2.12s.66-1.28,1.16-1.79,1.11-.93,1.83-1.24c.72-.31,1.53-.47,2.44-.47,.46,0,.91,.05,1.34,.14,.43,.09,.83,.23,1.2,.4,.37,.17,.71,.38,1.02,.62,.31,.24,.58,.51,.81,.8l-.91,1.29Z"/><path class="cls-1" d="M184.11,100.52c0,.95-.1,1.85-.31,2.7-.21,.86-.51,1.65-.9,2.38-.39,.73-.86,1.4-1.4,1.99-.55,.59-1.16,1.1-1.84,1.51-.68,.42-1.42,.74-2.21,.96-.79,.22-1.63,.34-2.5,.34-1.08,0-2.06-.19-2.92-.58s-1.6-.92-2.21-1.6-1.08-1.48-1.4-2.4c-.32-.92-.48-1.93-.48-3.01,0-.95,.1-1.85,.31-2.7,.21-.86,.51-1.65,.9-2.38,.39-.73,.86-1.4,1.4-1.99,.55-.59,1.16-1.1,1.84-1.52,.68-.42,1.42-.75,2.21-.97,.79-.22,1.63-.34,2.51-.34,1.08,0,2.06,.19,2.92,.58,.86,.39,1.6,.92,2.21,1.6,.61,.68,1.07,1.48,1.39,2.41,.32,.93,.48,1.93,.48,3.01Zm-3.14,.07c0-.77-.1-1.48-.29-2.11-.19-.63-.47-1.17-.84-1.62-.37-.45-.81-.8-1.34-1.04-.53-.25-1.12-.37-1.78-.37-.85,0-1.62,.17-2.32,.52-.7,.35-1.29,.84-1.79,1.48-.5,.64-.88,1.41-1.15,2.31-.27,.9-.41,1.9-.41,3,0,.77,.09,1.48,.28,2.11,.19,.63,.46,1.17,.83,1.62,.36,.45,.8,.79,1.33,1.03,.52,.24,1.12,.36,1.79,.36,.86,0,1.64-.17,2.33-.52,.7-.35,1.3-.84,1.79-1.47,.5-.63,.88-1.39,1.15-2.29s.41-1.9,.41-3Z"/><path class="cls-1" d="M196.88,95.56h-6.86l-.64,5.21h5.79l-.32,2.45h-5.77l-.86,7.01h-3.08l2.1-17.11h9.94l-.31,2.45Z"/><path class="cls-1" d="M210.55,93.11l-.32,2.52h-4.67l-1.79,14.59h-3.04l1.78-14.59h-4.68l.31-2.52h12.42Z"/><path class="cls-1" d="M210.93,93.11h2.41c.27,0,.48,.07,.64,.2,.16,.13,.26,.3,.29,.5l1.5,10.5c.04,.25,.06,.53,.08,.82,.01,.29,.03,.6,.04,.92,.2-.65,.41-1.23,.62-1.74l4.25-10.5c.07-.17,.21-.33,.41-.48,.2-.15,.43-.22,.68-.22h.71c.27,0,.48,.07,.65,.2,.17,.13,.27,.3,.31,.5l1.7,10.5c.04,.25,.08,.52,.11,.8,.04,.28,.06,.58,.08,.89,.09-.31,.17-.61,.26-.89,.09-.29,.18-.55,.27-.8l4.05-10.5c.07-.18,.21-.34,.42-.48,.21-.14,.44-.21,.69-.21h2.42l-6.97,17.11h-2.77l-1.92-11.86c-.02-.15-.05-.31-.08-.49-.03-.18-.05-.36-.07-.56-.06,.2-.13,.38-.19,.56-.07,.18-.13,.34-.19,.49l-4.82,11.86h-2.76l-2.78-17.11Z"/><path class="cls-1" d="M246.8,110.22h-2.37c-.27,0-.48-.06-.64-.19s-.26-.3-.29-.51l-.71-3.57h-6.36l-1.58,3.57c-.09,.18-.23,.34-.42,.49-.2,.14-.42,.21-.66,.21h-2.41l8.24-17.11h3.12l4.07,17.11Zm-9.41-6.44h4.96l-1.16-5.86c-.06-.28-.13-.58-.19-.9-.06-.32-.12-.67-.18-1.07-.15,.39-.3,.76-.44,1.09-.15,.34-.28,.63-.41,.88l-2.59,5.85Z"/><path class="cls-1" d="M252.12,103.48l-.83,6.75h-3.04l2.09-17.11h4.85c.98,0,1.82,.11,2.52,.31,.7,.21,1.27,.5,1.72,.88,.45,.38,.78,.82,.99,1.34,.21,.52,.32,1.09,.32,1.72,0,.66-.09,1.28-.28,1.86-.19,.58-.45,1.11-.8,1.58-.35,.47-.77,.89-1.27,1.24-.5,.35-1.07,.63-1.71,.83,.18,.11,.35,.24,.5,.4s.28,.35,.39,.57l3.04,6.38h-2.75c-.26,0-.48-.05-.65-.16s-.31-.26-.4-.46l-2.5-5.55c-.09-.21-.21-.35-.35-.44-.14-.09-.35-.14-.64-.14h-1.2Zm.99-8l-.72,5.81h1.77c.61,0,1.14-.09,1.59-.27s.81-.42,1.1-.73,.5-.68,.64-1.09c.14-.42,.21-.87,.21-1.35,0-.74-.23-1.32-.68-1.74-.46-.42-1.16-.63-2.11-.63h-1.79Z"/><path class="cls-1" d="M274.47,93.11l-.31,2.45h-6.86l-.59,4.86h5.39l-.29,2.36h-5.39l-.61,4.99h6.89l-.31,2.45h-9.95l2.1-17.11h9.94Z"/><path class="cls-1" d="M93.47,128.92c0,1.42-.23,2.73-.68,3.92-.46,1.19-1.09,2.21-1.91,3.07-.81,.86-1.78,1.52-2.89,2-1.12,.48-2.33,.72-3.66,.72h-6l2.1-17.11h6.01c1.08,0,2.06,.19,2.93,.56,.87,.37,1.61,.88,2.21,1.54,.61,.65,1.07,1.44,1.4,2.34s.49,1.9,.49,2.97Zm-3.14,.07c0-.77-.09-1.46-.28-2.08s-.46-1.15-.82-1.59c-.36-.44-.8-.78-1.32-1.01-.52-.24-1.11-.36-1.78-.36h-2.94l-1.5,12.23h2.94c.86,0,1.63-.17,2.33-.5,.7-.33,1.3-.81,1.8-1.43,.5-.62,.88-1.37,1.16-2.26s.41-1.89,.41-3Z"/><path class="cls-1" d="M106.57,121.51l-.31,2.45h-6.86l-.59,4.86h5.39l-.29,2.36h-5.39l-.61,4.99h6.89l-.31,2.45h-9.95l2.1-17.11h9.94Z"/><path class="cls-1" d="M107.52,121.51h2.45c.27,0,.48,.07,.64,.2,.16,.13,.26,.3,.29,.5l2.28,10.66c.08,.37,.15,.74,.22,1.12,.07,.38,.14,.78,.2,1.2,.13-.43,.28-.83,.45-1.22s.33-.76,.48-1.09l4.85-10.66c.08-.17,.22-.33,.42-.48,.2-.15,.43-.22,.68-.22h2.48l-8.42,17.11h-2.78l-4.23-17.11Z"/><path class="cls-1" d="M134.48,121.51l-.31,2.45h-6.86l-.59,4.86h5.39l-.29,2.36h-5.39l-.61,4.99h6.89l-.31,2.45h-9.95l2.1-17.11h9.94Z"/><path class="cls-1" d="M138.2,136.08h6.2l-.29,2.54h-9.27l2.1-17.11h3.05l-1.79,14.57Z"/><path class="cls-1" d="M162.29,128.92c0,.95-.1,1.85-.31,2.7-.21,.86-.51,1.65-.9,2.38-.39,.73-.86,1.4-1.4,1.99-.55,.59-1.16,1.1-1.84,1.51-.68,.42-1.42,.74-2.21,.96-.79,.22-1.63,.34-2.5,.34-1.08,0-2.06-.19-2.92-.58s-1.6-.92-2.21-1.6-1.08-1.48-1.4-2.4c-.32-.92-.48-1.93-.48-3.01,0-.95,.1-1.85,.31-2.7,.21-.86,.51-1.65,.9-2.38,.39-.73,.86-1.4,1.4-1.99,.55-.59,1.16-1.1,1.84-1.52,.68-.42,1.42-.75,2.21-.97,.79-.22,1.63-.34,2.51-.34,1.08,0,2.06,.19,2.92,.58,.86,.39,1.6,.92,2.21,1.6,.61,.68,1.07,1.48,1.39,2.41,.32,.93,.48,1.93,.48,3.01Zm-3.14,.07c0-.77-.1-1.48-.29-2.11-.19-.63-.47-1.17-.84-1.62-.37-.45-.81-.8-1.34-1.04-.53-.25-1.12-.37-1.78-.37-.85,0-1.62,.17-2.32,.52-.7,.35-1.29,.84-1.79,1.48-.5,.64-.88,1.41-1.15,2.31-.27,.9-.41,1.9-.41,3,0,.77,.09,1.48,.28,2.11,.19,.63,.46,1.17,.83,1.62,.36,.45,.8,.79,1.33,1.03,.52,.24,1.12,.36,1.79,.36,.86,0,1.64-.17,2.33-.52,.7-.35,1.3-.84,1.79-1.47,.5-.63,.88-1.39,1.15-2.29s.41-1.9,.41-3Z"/><path class="cls-1" d="M167.19,132.57l-.74,6.06h-3.04l2.09-17.11h5.19c.97,0,1.8,.12,2.49,.35,.7,.23,1.27,.56,1.72,.98s.78,.91,1,1.49c.22,.57,.32,1.2,.32,1.89,0,.92-.14,1.76-.43,2.54-.29,.78-.72,1.45-1.29,2.01-.57,.56-1.29,1.01-2.15,1.33-.86,.32-1.87,.48-3.01,.48h-2.13Zm1.07-8.69l-.78,6.3h2.15c.6,0,1.12-.09,1.56-.27s.81-.44,1.1-.76c.29-.33,.5-.72,.64-1.17,.14-.45,.21-.95,.21-1.49,0-.39-.06-.74-.17-1.07-.11-.32-.28-.6-.51-.82-.23-.23-.51-.4-.85-.53-.34-.13-.75-.19-1.22-.19h-2.12Z"/><path class="cls-1" d="M186.04,132.41c.05,.21,.11,.43,.17,.65,.09-.22,.2-.44,.31-.65s.23-.42,.35-.63l5.92-9.78c.07-.12,.14-.21,.22-.28,.07-.07,.15-.12,.24-.15,.08-.03,.18-.05,.28-.06,.1,0,.22-.01,.35-.01h2.32l-2.1,17.11h-2.69l1.37-11.15c.02-.21,.06-.43,.11-.67,.05-.25,.1-.49,.15-.75l-5.86,9.78c-.13,.22-.3,.39-.5,.5s-.42,.17-.65,.17h-.42c-.24,0-.44-.06-.62-.17s-.3-.28-.38-.5l-3.51-9.74c0,.24-.02,.48-.03,.71s-.03,.44-.05,.63l-1.34,11.2h-2.7l2.1-17.11h2.3c.13,0,.25,0,.35,.01s.19,.03,.27,.06c.08,.03,.15,.08,.2,.15,.05,.07,.11,.16,.15,.28l3.53,9.78c.07,.21,.13,.41,.19,.63Z"/><path class="cls-1" d="M209.21,121.51l-.31,2.45h-6.86l-.59,4.86h5.39l-.29,2.36h-5.39l-.61,4.99h6.89l-.31,2.45h-9.95l2.1-17.11h9.94Z"/><path class="cls-1" d="M213.61,121.53c.09,.01,.17,.04,.24,.07,.07,.04,.13,.08,.19,.15s.11,.15,.18,.26l6.64,11.68c.02-.23,.03-.45,.05-.67,.02-.22,.04-.42,.07-.61l1.33-10.9h2.7l-2.11,17.11h-1.57c-.24,0-.44-.04-.6-.11s-.3-.21-.41-.42l-6.6-11.68c-.02,.19-.03,.37-.05,.55-.02,.18-.03,.35-.05,.5l-1.34,11.16h-2.7l2.1-17.11h1.6c.13,0,.25,0,.34,.02Z"/><path class="cls-1" d="M239.21,121.51l-.32,2.52h-4.67l-1.79,14.59h-3.04l1.78-14.59h-4.68l.31-2.52h12.42Z"/></g><g><path class="cls-2" d="M76.38,27.88c2.35,0,4.43,.33,6.24,.98,1.81,.66,3.31,1.54,4.53,2.65s2.13,2.4,2.76,3.86c.63,1.47,.94,3.02,.94,4.67,0,1.88-.2,3.53-.59,4.94-.39,1.41-.97,2.61-1.75,3.61-.77,1-1.74,1.84-2.89,2.5-1.15,.67-2.49,1.22-4.01,1.65,2.45,1,4.28,2.37,5.49,4.1,1.21,1.73,1.82,3.82,1.82,6.28,0,1.98-.26,3.79-.78,5.44s-1.24,3.14-2.16,4.47c-.92,1.34-2.01,2.5-3.28,3.51s-2.66,1.84-4.15,2.52c-1.5,.68-3.08,1.19-4.76,1.52-1.67,.33-3.38,.5-5.11,.5-2.47,0-4.65-.27-6.52-.8-1.88-.54-3.49-1.37-4.85-2.5s-2.47-2.57-3.35-4.31c-.88-1.74-1.58-3.83-2.1-6.26l4.99-1.93c.45-.19,.88-.32,1.3-.39,.42-.07,.83-.11,1.23-.11,.74,0,1.37,.14,1.91,.43,.54,.29,.91,.7,1.12,1.25,.78,2.08,1.73,3.58,2.85,4.53,1.12,.94,2.59,1.41,4.42,1.41,1.38,0,2.6-.24,3.67-.73,1.07-.49,1.97-1.14,2.71-1.97,.74-.82,1.29-1.79,1.68-2.9,.38-1.11,.57-2.27,.57-3.49,0-.86-.13-1.64-.39-2.34-.26-.7-.77-1.31-1.51-1.81-.75-.5-1.79-.89-3.12-1.16-1.33-.27-3.08-.41-5.24-.41l1-7.37c2.16,0,3.96-.18,5.4-.55,1.44-.37,2.58-.89,3.44-1.57,.85-.68,1.46-1.51,1.82-2.5s.53-2.13,.53-3.42c0-1.79-.47-3.17-1.41-4.13-.94-.97-2.32-1.45-4.15-1.45s-3.27,.47-4.53,1.41c-1.26,.94-2.2,2.1-2.82,3.48-.48,1.02-1.04,1.76-1.69,2.21-.65,.45-1.46,.68-2.41,.68-.21,0-.45-.01-.69-.04-.25-.02-.51-.06-.77-.11l-5.49-.95c.69-2.58,1.69-4.83,2.99-6.75,1.31-1.92,2.83-3.53,4.58-4.81s3.68-2.25,5.81-2.88c2.13-.63,4.37-.95,6.72-.95Z"/><path class="cls-2" d="M115.38,27.88c2.4,0,4.58,.44,6.56,1.32,1.97,.88,3.66,2.21,5.06,3.97,1.4,1.77,2.49,3.98,3.26,6.64,.77,2.66,1.16,5.75,1.16,9.28,0,5.41-.58,10.12-1.75,14.13-1.17,4.01-2.76,7.33-4.79,9.98-2.03,2.65-4.43,4.62-7.18,5.92-2.76,1.3-5.71,1.95-8.88,1.95-2.4,0-4.59-.44-6.56-1.32-1.97-.88-3.66-2.21-5.06-3.99-1.4-1.78-2.49-3.99-3.26-6.64-.77-2.65-1.16-5.74-1.16-9.27,0-5.41,.58-10.12,1.75-14.13,1.16-4.01,2.76-7.33,4.79-9.98,2.03-2.65,4.42-4.62,7.16-5.92,2.74-1.3,5.71-1.95,8.89-1.95Zm-5.13,44.61c1.45,0,2.79-.48,4.03-1.43s2.3-2.39,3.19-4.31c.89-1.92,1.59-4.33,2.08-7.24,.5-2.91,.75-6.32,.75-10.23,0-2.53-.18-4.61-.55-6.26-.37-1.65-.85-2.96-1.44-3.94-.59-.98-1.27-1.66-2.03-2.06s-1.53-.59-2.32-.59c-1.47,0-2.82,.48-4.05,1.43-1.22,.95-2.28,2.4-3.17,4.33-.89,1.93-1.59,4.35-2.08,7.26-.5,2.91-.75,6.31-.75,10.2,0,2.53,.18,4.62,.55,6.28,.37,1.66,.85,2.97,1.44,3.94,.59,.97,1.27,1.65,2.03,2.04,.76,.39,1.53,.59,2.32,.59Z"/></g><g><path class="cls-2" d="M162.8,45.72c-.63,0-1.17,.17-1.62,.51-.43,.33-.76,.7-.99,1.11l-5.2,9.28c-.36,.63-.71,1.23-1.03,1.8-.2,.36-.39,.71-.57,1.05-.08-.33-.17-.66-.26-1-.16-.58-.34-1.18-.54-1.8l-2.94-9.29c-.17-.49-.44-.89-.8-1.19-.37-.31-.89-.47-1.53-.47h-6.45l7.98,19.26-1.47,11.89h7.34l1.47-11.9,12.74-19.25h-6.13Z"/><polygon class="cls-2" points="174.25 71.1 175.11 64 183.73 64 184.46 58.41 175.8 58.41 176.67 51.5 187.96 51.5 188.7 45.72 170 45.72 166.2 76.6 166.16 76.88 184.9 76.88 185.64 71.1 174.25 71.1"/><path class="cls-2" d="M207.36,45.72h-7.36l-14.83,31.15h5.76c.59,0,1.14-.17,1.63-.5,.49-.33,.82-.72,.99-1.15l2.2-5.36h10l.91,5.3c.08,.51,.33,.93,.73,1.24,.4,.31,.93,.46,1.57,.46h5.6l-7.16-30.96-.04-.19Zm-9.49,18.98l3.44-8.37c.07-.17,.18-.42,.34-.77,.16-.35,.33-.73,.5-1.14,.17-.41,.35-.83,.54-1.25,.04-.1,.08-.19,.12-.29,.06,.36,.14,.74,.21,1.14,.15,.75,.28,1.49,.41,2.21l1.44,8.46h-7Z"/><path class="cls-2" d="M237.84,59.99c.58-.86,1.04-1.82,1.34-2.86,.31-1.03,.46-2.14,.46-3.29s-.2-2.23-.59-3.22c-.4-1-1.04-1.87-1.91-2.59-.86-.72-1.98-1.29-3.33-1.7-1.34-.41-2.98-.61-4.86-.61h-9.49l-3.79,31.15h7.3l1.4-11.45h1.31c.45,0,.79,.07,1.01,.2,.21,.13,.38,.37,.52,.71l3.31,9.07c.17,.48,.49,.85,.93,1.1,.43,.25,.96,.37,1.57,.37h6.54l-4.59-11.14c-.22-.54-.54-.99-.93-1.35-.26-.23-.53-.44-.81-.63,.9-.4,1.72-.89,2.45-1.46,.85-.67,1.58-1.44,2.16-2.31Zm-5.76-3.04c-.18,.63-.47,1.2-.87,1.67-.4,.47-.93,.86-1.58,1.14-.65,.29-1.46,.43-2.39,.43h-2.21l1.09-8.86h2.21c.69,0,1.31,.09,1.82,.26,.5,.17,.92,.41,1.25,.72,.32,.3,.57,.67,.72,1.1,.16,.44,.24,.94,.24,1.48,0,.72-.09,1.41-.27,2.06Z"/><path class="cls-2" d="M259.36,60.8c-.54-.56-1.16-1.04-1.84-1.41-.67-.37-1.36-.7-2.06-.98-.7-.28-1.37-.54-2.03-.78-.64-.23-1.23-.49-1.74-.77-.49-.27-.89-.59-1.19-.94-.28-.34-.41-.75-.41-1.25s.08-.94,.23-1.34c.15-.4,.37-.75,.67-1.05,.3-.3,.67-.53,1.12-.7,.45-.17,.99-.26,1.6-.26,.66,0,1.25,.1,1.73,.3,.5,.2,.95,.43,1.33,.67,.4,.25,.76,.48,1.08,.69,.73,.48,1.54,.44,2.11,.09,.27-.17,.54-.44,.79-.8l2.17-2.97-.12-.15c-.42-.54-.94-1.04-1.54-1.49-.6-.45-1.27-.85-2-1.17s-1.51-.59-2.34-.77c-.83-.19-1.7-.28-2.58-.28-1.72,0-3.29,.3-4.67,.88-1.38,.59-2.57,1.38-3.54,2.37-.97,.99-1.72,2.14-2.24,3.42-.52,1.28-.78,2.63-.78,4.02,0,1.2,.16,2.24,.49,3.07,.32,.83,.76,1.54,1.29,2.12,.53,.57,1.14,1.04,1.82,1.4,.66,.35,1.35,.65,2.04,.91,.69,.25,1.36,.49,2.02,.71,.65,.21,1.22,.46,1.71,.73,.48,.26,.87,.59,1.16,.96,.28,.36,.42,.83,.42,1.41,0,1.29-.33,2.26-.96,2.91-.64,.64-1.57,.97-2.77,.97-.83,0-1.53-.13-2.09-.39-.58-.26-1.09-.56-1.52-.88l-1.23-.91c-.72-.53-1.52-.6-2.29-.2-.33,.17-.59,.39-.8,.66l-2.55,3.35,.12,.15c.5,.62,1.12,1.19,1.83,1.69,.71,.5,1.49,.93,2.32,1.3,.83,.36,1.71,.65,2.6,.85,.9,.2,1.81,.3,2.71,.3,1.8,0,3.44-.31,4.89-.91,1.44-.61,2.69-1.44,3.7-2.48,1.01-1.04,1.8-2.26,2.34-3.65,.54-1.38,.81-2.88,.81-4.45,0-1.11-.17-2.07-.49-2.87-.32-.8-.76-1.49-1.31-2.06Z"/></g><path class="cls-3" d="M92.95,164H221.52c45.22,0,82-36.79,82-82,0-21.51-8.27-41.83-23.28-57.22C266.35,10.53,247.81,1.83,228.05,.28l-1.84-.15v-.14H92.95c-24.53,0-47.98,11.22-63.51,30.21h6.6C50.64,14.18,71.33,5,92.95,5H221.63l2.01,.05c41.99,1.14,74.88,34.94,74.88,76.95s-34.54,77-77,77H92.95c-40.02,0-73.36-30.79-76.71-70.45h-5.03c3.36,42.48,38.86,75.45,81.74,75.45Z"/><path class="cls-2" d="M26.23,52.84c.87-2.62,2.71-7.66,5.7-13.4l1.14-2.19h-10.75l-.42,.81c-2.44,4.74-4.58,9.7-6.35,14.74l-12.6,.03-.33,1.06c-.8,2.6-1.53,5.27-2.16,7.93l-.46,2.01H12.26l-.29,1.18c-1.11,4.77-1.92,9.59-2.39,14.33l-.16,1.59,10.25,.39,.15-1.39c.48-4.48,1.28-9.05,2.36-13.55,.18-.74,.38-1.53,.63-2.49l13.73-.05,.31-1.08c.78-2.68,1.65-5.34,2.59-7.91l.74-2.02h-13.95Z"/></g></g></svg>