<?xml version="1.0" encoding="UTF-8"?>
<svg id="Layer_2" data-name="Layer 2" xmlns="http://www.w3.org/2000/svg" width="303.52" height="164" viewBox="0 0 303.52 164">
  <defs>
    <style>
      .cls-1 {
        fill: #fff;
      }

      .cls-2 {
        fill: #fa0;
      }
    </style>
  </defs>
  <g id="Layer_3" data-name="Layer 3">
    <g>
      <g>
        <path class="cls-2" d="M97.16,26.88c2.35,0,4.43.33,6.24.98,1.81.66,3.31,1.54,4.53,2.65s2.13,2.4,2.76,3.86c.63,1.47.94,3.02.94,4.67,0,1.88-.2,3.53-.59,4.94-.39,1.41-.97,2.61-1.75,3.61-.77,1-1.74,1.84-2.89,2.5-1.15.67-2.49,1.22-4.01,1.65,2.45,1,4.28,2.37,5.49,4.1,1.21,1.73,1.82,3.82,1.82,6.28,0,1.98-.26,3.79-.78,5.44s-1.24,3.14-2.16,4.47c-.92,1.34-2.01,2.5-3.28,3.51s-2.66,1.84-4.15,2.52c-1.5.68-3.08,1.19-4.76,1.52-1.67.33-3.38.5-5.11.5-2.47,0-4.65-.27-6.52-.8-1.88-.54-3.49-1.37-4.85-2.5s-2.47-2.57-3.35-4.31c-.88-1.74-1.58-3.83-2.1-6.26l4.99-1.93c.45-.19.88-.32,1.3-.39.42-.07.83-.11,1.23-.11.74,0,1.37.14,1.91.43.54.29.91.7,1.12,1.25.78,2.08,1.73,3.58,2.85,4.53,1.12.94,2.59,1.41,4.42,1.41,1.38,0,2.6-.24,3.67-.73,1.07-.49,1.97-1.14,2.71-1.97.74-.82,1.29-1.79,1.68-2.9.38-1.11.57-2.27.57-3.49,0-.86-.13-1.64-.39-2.34-.26-.7-.77-1.31-1.51-1.81-.75-.5-1.79-.89-3.12-1.16-1.33-.27-3.08-.41-5.24-.41l1-7.37c2.16,0,3.96-.18,5.4-.55,1.44-.37,2.58-.89,3.44-1.57.85-.68,1.46-1.51,1.82-2.5s.53-2.13.53-3.42c0-1.79-.47-3.17-1.41-4.13-.94-.97-2.32-1.45-4.15-1.45s-3.27.47-4.53,1.41c-1.26.94-2.2,2.1-2.82,3.48-.48,1.02-1.04,1.76-1.69,2.21-.65.45-1.46.68-2.41.68-.21,0-.45-.01-.69-.04-.25-.02-.51-.06-.77-.11l-5.49-.95c.69-2.58,1.69-4.83,2.99-6.75,1.31-1.92,2.83-3.53,4.58-4.81s3.68-2.25,5.81-2.88c2.13-.63,4.37-.95,6.72-.95Z"/>
        <path class="cls-2" d="M136.15,26.88c2.4,0,4.58.44,6.56,1.32,1.97.88,3.66,2.21,5.06,3.97,1.4,1.77,2.49,3.98,3.26,6.64.77,2.66,1.16,5.75,1.16,9.28,0,5.41-.58,10.12-1.75,14.13-1.17,4.01-2.76,7.33-4.79,9.98-2.03,2.65-4.43,4.62-7.18,5.92-2.76,1.3-5.71,1.95-8.88,1.95-2.4,0-4.59-.44-6.56-1.32-1.97-.88-3.66-2.21-5.06-3.99-1.4-1.78-2.49-3.99-3.26-6.64-.77-2.65-1.16-5.74-1.16-9.27,0-5.41.58-10.12,1.75-14.13,1.16-4.01,2.76-7.33,4.79-9.98,2.03-2.65,4.42-4.62,7.16-5.92,2.74-1.3,5.71-1.95,8.89-1.95ZM131.02,71.49c1.45,0,2.79-.48,4.03-1.43s2.3-2.39,3.19-4.31c.89-1.92,1.59-4.33,2.08-7.24.5-2.91.75-6.32.75-10.23,0-2.53-.18-4.61-.55-6.26-.37-1.65-.85-2.96-1.44-3.94-.59-.98-1.27-1.66-2.03-2.06s-1.53-.59-2.32-.59c-1.47,0-2.82.48-4.05,1.43-1.22.95-2.28,2.4-3.17,4.33-.89,1.93-1.59,4.35-2.08,7.26-.5,2.91-.75,6.31-.75,10.2,0,2.53.18,4.62.55,6.28.37,1.66.85,2.97,1.44,3.94.59.97,1.27,1.65,2.03,2.04.76.39,1.53.59,2.32.59Z"/>
      </g>
      <g>
        <path class="cls-2" d="M179.5,47.06h-7.36l-14.83,31.15h5.76c.59,0,1.14-.17,1.63-.5.49-.33.82-.72.99-1.15l2.2-5.36h10l.91,5.3c.08.51.33.93.73,1.24.4.31.93.46,1.57.46h5.6l-7.16-30.96-.04-.19ZM177.01,66.04h-7l3.44-8.37c.07-.17.18-.42.34-.77.16-.35.33-.73.5-1.14.17-.41.35-.83.54-1.25.04-.1.08-.19.12-.29.06.36.14.74.21,1.14.15.75.28,1.49.41,2.21l1.44,8.46Z"/>
        <path class="cls-2" d="M216.94,47.06h-6.54l-2.08,17.54c-.04.39-.09.81-.15,1.26-.02.2-.05.4-.07.6l-10.31-18.22c-.13-.24-.27-.44-.41-.59-.15-.16-.32-.29-.51-.39-.18-.09-.4-.15-.63-.17-.21-.02-.47-.03-.77-.03h-3.83l-3.8,30.87-.03.28h6.54l2.12-18.11c.03-.32.06-.66.09-1.03,0-.11.02-.21.03-.32l10.27,18.2c.28.5.62.84,1.02,1.01.38.17.86.25,1.42.25h3.78l3.8-30.87.03-.28Z"/>
        <path class="cls-2" d="M234.94,62.14c-.54-.56-1.16-1.04-1.84-1.41-.67-.37-1.36-.7-2.06-.98-.7-.28-1.37-.54-2.03-.78-.64-.23-1.23-.49-1.74-.77-.49-.27-.89-.59-1.19-.94-.28-.34-.41-.75-.41-1.25s.08-.94.23-1.34c.15-.4.37-.75.67-1.05.3-.3.67-.53,1.12-.7.45-.17.99-.26,1.6-.26.66,0,1.25.1,1.73.3.5.2.95.43,1.33.67.4.25.76.48,1.08.69.73.48,1.54.44,2.11.09.27-.17.54-.44.79-.8l2.17-2.97-.12-.15c-.42-.54-.94-1.04-1.54-1.49-.6-.45-1.27-.85-2-1.17s-1.51-.59-2.34-.77c-.83-.19-1.7-.28-2.58-.28-1.72,0-3.29.3-4.67.88-1.38.59-2.57,1.38-3.54,2.37-.97.99-1.72,2.14-2.24,3.42-.52,1.28-.78,2.63-.78,4.02,0,1.2.16,2.24.49,3.07.32.83.76,1.54,1.29,2.12.53.57,1.14,1.04,1.82,1.4.66.35,1.35.65,2.04.91.69.25,1.36.49,2.02.71.65.21,1.22.46,1.71.73.48.26.87.59,1.16.96.28.36.42.83.42,1.41,0,1.29-.33,2.26-.96,2.91-.64.64-1.57.97-2.77.97-.83,0-1.53-.13-2.09-.39-.58-.26-1.09-.56-1.52-.88l-1.23-.91c-.72-.53-1.52-.6-2.29-.2-.33.17-.59.39-.8.66l-2.55,3.35.12.15c.5.62,1.12,1.19,1.83,1.69.71.5,1.49.93,2.32,1.3.83.36,1.71.65,2.6.85.9.2,1.81.3,2.71.3,1.8,0,3.44-.31,4.89-.91,1.44-.61,2.69-1.44,3.7-2.48,1.01-1.04,1.8-2.26,2.34-3.65.54-1.38.81-2.88.81-4.45,0-1.11-.17-2.07-.49-2.87-.32-.8-.76-1.49-1.31-2.06Z"/>
      </g>
      <path class="cls-1" d="M92.95,164h128.58c45.22,0,82-36.79,82-82,0-21.51-8.27-41.83-23.28-57.22C266.35,10.53,247.81,1.83,228.05.28l-1.84-.15v-.14H92.95c-24.53,0-47.98,11.22-63.51,30.21h6.6C50.64,14.18,71.33,5,92.95,5h128.68l2.01.05c41.99,1.14,74.88,34.94,74.88,76.95s-34.54,77-77,77H92.95c-40.02,0-73.36-30.79-76.71-70.45h-5.03c3.36,42.48,38.86,75.45,81.74,75.45Z"/>
      <path class="cls-2" d="M26.23,52.84c.87-2.62,2.71-7.66,5.7-13.4l1.14-2.19h-10.75l-.42.81c-2.44,4.74-4.58,9.7-6.35,14.74l-12.6.03-.33,1.06c-.8,2.6-1.53,5.27-2.16,7.93l-.46,2.01h12.26l-.29,1.18c-1.11,4.77-1.92,9.59-2.39,14.33l-.16,1.59,10.25.39.15-1.39c.48-4.48,1.28-9.05,2.36-13.55.18-.74.38-1.53.63-2.49l13.73-.05.31-1.08c.78-2.68,1.65-5.34,2.59-7.91l.74-2.02h-13.95Z"/>
      <g>
        <path class="cls-1" d="M63.93,92.1l-.3,2.38h-6.67l-.57,4.73h5.24l-.29,2.29h-5.24l-.6,4.85h6.69l-.3,2.38h-9.67l2.04-16.63h9.66Z"/>
        <path class="cls-1" d="M68.2,92.12c.09.01.17.03.24.07.07.04.13.08.18.14.05.06.11.15.17.25l6.45,11.35c.01-.22.03-.44.05-.65.02-.21.04-.41.06-.59l1.29-10.59h2.62l-2.05,16.63h-1.52c-.23,0-.42-.04-.58-.11-.16-.07-.29-.21-.4-.41l-6.42-11.35c-.02.18-.03.36-.05.54-.02.17-.03.33-.05.49l-1.31,10.84h-2.62l2.04-16.63h1.56c.13,0,.24,0,.33.02Z"/>
        <path class="cls-1" d="M99.36,99.3c0,1.38-.22,2.65-.67,3.81-.44,1.16-1.06,2.15-1.85,2.98-.79.83-1.73,1.48-2.81,1.94-1.08.46-2.27.7-3.55.7h-5.83l2.04-16.63h5.84c1.05,0,2,.18,2.85.54.84.36,1.56.86,2.15,1.5.59.64,1.04,1.4,1.36,2.28.32.88.48,1.84.48,2.89ZM96.32,99.37c0-.74-.09-1.42-.28-2.02s-.45-1.12-.8-1.55-.77-.75-1.28-.98c-.5-.23-1.08-.34-1.73-.34h-2.85l-1.46,11.88h2.85c.83,0,1.59-.16,2.27-.48.68-.32,1.26-.78,1.75-1.39.48-.6.86-1.33,1.12-2.2.26-.86.4-1.83.4-2.92Z"/>
        <path class="cls-1" d="M112.09,92.1l-.3,2.38h-6.67l-.57,4.73h5.24l-.29,2.29h-5.24l-.6,4.85h6.69l-.3,2.38h-9.67l2.04-16.63h9.66ZM112.14,88.16l-3.25,2.37c-.18.13-.35.23-.52.29s-.35.1-.55.1h-2.21l2.34-2.32c.09-.09.18-.17.26-.22.08-.06.16-.1.25-.13.09-.03.18-.05.29-.06.1-.01.23-.02.38-.02h3.01Z"/>
        <path class="cls-1" d="M113.02,92.1h2.38c.26,0,.47.06.62.19.15.13.25.29.29.49l2.21,10.36c.08.36.15.72.22,1.09s.13.75.2,1.17c.13-.41.27-.81.43-1.19.16-.38.32-.73.47-1.06l4.71-10.36c.08-.17.21-.32.41-.47.19-.14.41-.21.66-.21h2.41l-8.18,16.63h-2.71l-4.11-16.63Z"/>
        <path class="cls-1" d="M139.22,92.1l-.3,2.38h-6.67l-.57,4.73h5.24l-.29,2.29h-5.24l-.6,4.85h6.69l-.3,2.38h-9.67l2.04-16.63h9.66Z"/>
        <path class="cls-1" d="M142.83,106.26h6.03l-.29,2.47h-9.01l2.04-16.63h2.97l-1.74,14.16Z"/>
        <path class="cls-1" d="M166.24,99.3c0,.92-.1,1.8-.3,2.63-.2.83-.49,1.6-.87,2.32-.38.71-.83,1.36-1.36,1.93s-1.13,1.07-1.79,1.47c-.66.41-1.38.72-2.15.94-.77.22-1.58.33-2.43.33-1.05,0-2-.19-2.84-.56-.84-.38-1.56-.89-2.15-1.55s-1.04-1.44-1.36-2.33c-.31-.9-.47-1.87-.47-2.92,0-.92.1-1.8.3-2.63s.49-1.6.87-2.32.83-1.36,1.36-1.93c.53-.58,1.13-1.07,1.79-1.48.66-.41,1.38-.72,2.15-.94s1.58-.33,2.44-.33c1.05,0,2,.19,2.84.56.84.38,1.55.89,2.14,1.55.59.66,1.04,1.44,1.35,2.34.31.9.47,1.88.47,2.93ZM163.19,99.37c0-.75-.09-1.43-.28-2.05-.19-.61-.46-1.14-.81-1.58-.35-.44-.79-.77-1.3-1.01-.51-.24-1.09-.36-1.73-.36-.83,0-1.58.17-2.25.51-.68.34-1.25.82-1.74,1.44-.48.62-.85,1.37-1.12,2.24s-.39,1.84-.39,2.91c0,.75.09,1.43.27,2.05.18.61.45,1.14.8,1.57.35.43.78.77,1.29,1,.51.23,1.09.35,1.74.35.83,0,1.59-.17,2.27-.51.68-.34,1.26-.81,1.74-1.43s.85-1.35,1.12-2.22.4-1.84.4-2.92Z"/>
        <path class="cls-1" d="M171,102.84l-.72,5.89h-2.96l2.03-16.63h5.04c.94,0,1.75.11,2.42.34.68.23,1.23.54,1.67.95.44.41.76.89.97,1.44s.32,1.17.32,1.83c0,.89-.14,1.71-.42,2.47-.28.75-.7,1.41-1.25,1.96s-1.25.98-2.09,1.29-1.81.47-2.93.47h-2.07ZM172.05,94.4l-.76,6.12h2.09c.58,0,1.08-.09,1.51-.26.43-.18.78-.42,1.07-.74.28-.32.49-.7.62-1.13.13-.44.2-.92.2-1.45,0-.38-.05-.72-.16-1.04-.11-.31-.27-.58-.49-.8-.22-.22-.5-.39-.83-.51-.33-.12-.73-.18-1.19-.18h-2.06Z"/>
        <path class="cls-1" d="M184.24,102.84l-.72,5.89h-2.96l2.03-16.63h5.04c.94,0,1.75.11,2.42.34.68.23,1.23.54,1.67.95.44.41.76.89.97,1.44s.32,1.17.32,1.83c0,.89-.14,1.71-.42,2.47-.28.75-.7,1.41-1.25,1.96s-1.25.98-2.09,1.29-1.81.47-2.93.47h-2.07ZM185.28,94.4l-.76,6.12h2.09c.58,0,1.08-.09,1.51-.26.43-.18.78-.42,1.07-.74.28-.32.49-.7.62-1.13.13-.44.2-.92.2-1.45,0-.38-.05-.72-.16-1.04-.11-.31-.27-.58-.49-.8-.22-.22-.5-.39-.83-.51-.33-.12-.73-.18-1.19-.18h-2.06Z"/>
        <path class="cls-1" d="M205.42,92.1l-.3,2.38h-6.67l-.57,4.73h5.24l-.29,2.29h-5.24l-.6,4.85h6.69l-.3,2.38h-9.67l2.04-16.63h9.66Z"/>
        <path class="cls-1" d="M214.59,102.69c.05.21.11.42.16.63.09-.21.19-.42.3-.63.11-.21.22-.41.34-.61l5.75-9.5c.07-.11.14-.2.21-.27s.15-.11.23-.14c.08-.03.17-.05.27-.06.1,0,.21-.01.34-.01h2.26l-2.04,16.63h-2.61l1.33-10.83c.02-.2.06-.42.1-.66s.1-.48.15-.72l-5.69,9.5c-.13.21-.29.38-.49.48-.19.11-.41.16-.64.16h-.41c-.23,0-.43-.05-.6-.16-.17-.11-.3-.27-.37-.48l-3.42-9.46c0,.24-.02.47-.03.69s-.03.42-.05.61l-1.31,10.88h-2.62l2.04-16.63h2.23c.13,0,.24,0,.34.01s.19.03.26.06c.08.03.14.08.2.14.05.07.1.16.15.27l3.43,9.5c.07.2.13.4.18.61Z"/>
        <path class="cls-1" d="M237.11,92.1l-.3,2.38h-6.67l-.57,4.73h5.24l-.29,2.29h-5.24l-.6,4.85h6.69l-.3,2.38h-9.67l2.04-16.63h9.66Z"/>
        <path class="cls-1" d="M241.38,92.12c.09.01.17.03.24.07.07.04.13.08.18.14.05.06.11.15.17.25l6.45,11.35c.01-.22.03-.44.05-.65.02-.21.04-.41.06-.59l1.29-10.59h2.62l-2.05,16.63h-1.52c-.23,0-.42-.04-.58-.11-.16-.07-.29-.21-.4-.41l-6.42-11.35c-.02.18-.03.36-.05.54-.02.17-.03.33-.05.49l-1.31,10.84h-2.62l2.04-16.63h1.56c.13,0,.24,0,.33.02Z"/>
        <path class="cls-1" d="M266.26,92.1l-.31,2.45h-4.54l-1.74,14.18h-2.96l1.73-14.18h-4.55l.3-2.45h12.07Z"/>
        <path class="cls-1" d="M65.17,126.9c0,1.38-.22,2.65-.67,3.81-.44,1.16-1.06,2.15-1.85,2.98-.79.83-1.73,1.48-2.81,1.94-1.08.46-2.27.7-3.55.7h-5.83l2.04-16.63h5.84c1.05,0,2,.18,2.85.54.84.36,1.56.86,2.15,1.5.59.64,1.04,1.4,1.36,2.28.32.88.48,1.84.48,2.89ZM62.12,126.97c0-.74-.09-1.42-.28-2.02s-.45-1.12-.8-1.55-.77-.75-1.28-.98c-.5-.23-1.08-.34-1.73-.34h-2.85l-1.46,11.88h2.85c.83,0,1.59-.16,2.27-.48.68-.32,1.26-.78,1.75-1.39.48-.6.86-1.33,1.12-2.2.26-.86.4-1.83.4-2.92Z"/>
        <path class="cls-1" d="M77.9,119.7l-.3,2.38h-6.67l-.57,4.73h5.24l-.29,2.29h-5.24l-.6,4.85h6.69l-.3,2.38h-9.67l2.04-16.63h9.66Z"/>
        <path class="cls-1" d="M85.93,133.86h6.03l-.29,2.47h-9.01l2.04-16.63h2.97l-1.74,14.16Z"/>
        <path class="cls-1" d="M109.34,126.9c0,.92-.1,1.8-.3,2.63-.2.83-.49,1.6-.87,2.32-.38.71-.83,1.36-1.36,1.93s-1.13,1.07-1.79,1.47c-.66.41-1.38.72-2.15.94-.77.22-1.58.33-2.43.33-1.05,0-2-.19-2.84-.56-.84-.38-1.56-.89-2.15-1.55s-1.04-1.44-1.36-2.33c-.31-.9-.47-1.87-.47-2.92,0-.92.1-1.8.3-2.63s.49-1.6.87-2.32.83-1.36,1.36-1.93c.53-.58,1.13-1.07,1.79-1.48.66-.41,1.38-.72,2.15-.94s1.58-.33,2.44-.33c1.05,0,2,.19,2.84.56.84.38,1.55.89,2.14,1.55.59.66,1.04,1.44,1.35,2.34.31.9.47,1.88.47,2.93ZM106.29,126.97c0-.75-.09-1.43-.28-2.05-.19-.61-.46-1.14-.81-1.58-.35-.44-.79-.77-1.3-1.01-.51-.24-1.09-.36-1.73-.36-.83,0-1.58.17-2.25.51-.68.34-1.25.82-1.74,1.44-.48.62-.85,1.37-1.12,2.24s-.39,1.84-.39,2.91c0,.75.09,1.43.27,2.05.18.61.45,1.14.8,1.57.35.43.78.77,1.29,1,.51.23,1.09.35,1.74.35.83,0,1.59-.17,2.27-.51.68-.34,1.26-.81,1.74-1.43s.85-1.35,1.12-2.22.4-1.84.4-2.92Z"/>
        <path class="cls-1" d="M117.65,134.13c.62,0,1.17-.06,1.64-.18.47-.12.93-.29,1.36-.5l.39-3.17h-1.83c-.18,0-.31-.04-.41-.13-.1-.09-.14-.2-.14-.34l.2-1.77h5.16l-.83,6.68c-.84.61-1.75,1.07-2.72,1.36-.97.29-2.08.44-3.32.44-1.02,0-1.94-.18-2.77-.55s-1.54-.88-2.13-1.54-1.05-1.43-1.37-2.33c-.32-.9-.48-1.88-.48-2.95,0-.94.1-1.82.31-2.66s.5-1.62.88-2.33.83-1.35,1.36-1.93,1.13-1.06,1.79-1.46c.66-.4,1.37-.71,2.14-.93.76-.21,1.57-.32,2.41-.32.67,0,1.28.06,1.83.18.55.12,1.05.28,1.49.49.44.21.84.45,1.19.72.35.28.67.57.94.87l-.96,1.24c-.21.27-.45.4-.73.4-.18,0-.34-.05-.5-.16-.25-.17-.5-.33-.73-.47-.24-.15-.49-.27-.76-.38s-.56-.19-.88-.25c-.32-.06-.69-.09-1.11-.09-.83,0-1.58.17-2.27.5-.69.33-1.28.8-1.78,1.41-.5.61-.88,1.34-1.16,2.2-.28.85-.41,1.81-.41,2.86,0,.8.1,1.51.3,2.14.2.63.49,1.16.85,1.6.37.44.81.77,1.32,1.01.52.23,1.09.35,1.72.35Z"/>
        <path class="cls-1" d="M128.88,136.33h-2.99l2.03-16.63h2.99l-2.03,16.63Z"/>
        <path class="cls-1" d="M139.17,133.99c.47,0,.87-.04,1.22-.11s.65-.17.91-.28c.26-.11.48-.24.66-.36.18-.13.34-.25.48-.36.14-.11.26-.21.37-.28.11-.07.21-.11.32-.11.09,0,.17.02.23.06.06.04.11.08.15.12l1.04,1.3c-.72.83-1.56,1.46-2.53,1.9-.97.44-2.09.66-3.35.66-1.02,0-1.92-.18-2.72-.55-.79-.36-1.47-.87-2.02-1.51-.55-.64-.97-1.41-1.25-2.29-.29-.88-.43-1.84-.43-2.89,0-.96.1-1.86.31-2.72.21-.85.5-1.64.88-2.37.38-.72.84-1.37,1.38-1.95.53-.57,1.13-1.07,1.78-1.47s1.35-.72,2.1-.93c.75-.21,1.54-.32,2.35-.32.6,0,1.15.06,1.65.17.5.11.95.27,1.35.47.41.2.77.44,1.09.72.32.28.61.59.87.94l-1.03,1.24c-.08.09-.17.17-.27.24s-.23.1-.38.1c-.17,0-.33-.07-.48-.21s-.35-.29-.58-.45c-.23-.17-.54-.32-.91-.45-.37-.14-.86-.21-1.46-.21-.79,0-1.53.16-2.21.49-.68.33-1.27.79-1.78,1.4s-.9,1.34-1.19,2.19c-.29.86-.43,1.82-.43,2.88,0,.77.1,1.47.29,2.08.19.61.46,1.13.81,1.56.34.43.75.75,1.23.98.47.23.99.34,1.55.34Z"/>
        <path class="cls-1" d="M149.35,136.33h-2.99l2.03-16.63h2.99l-2.03,16.63Z"/>
        <path class="cls-1" d="M164.38,119.7l-.3,2.38h-6.67l-.57,4.73h5.24l-.29,2.29h-5.24l-.6,4.85h6.69l-.3,2.38h-9.67l2.04-16.63h9.66Z"/>
        <path class="cls-1" d="M167.99,133.86h6.03l-.29,2.47h-9.01l2.04-16.63h2.97l-1.74,14.16Z"/>
        <path class="cls-1" d="M180.64,119.7h2.38c.26,0,.47.06.62.19.15.13.25.29.29.49l2.21,10.36c.08.36.15.72.22,1.09s.13.75.2,1.17c.13-.41.27-.81.43-1.19.16-.38.32-.73.47-1.06l4.71-10.36c.08-.17.21-.32.41-.47.19-.14.41-.21.66-.21h2.41l-8.18,16.63h-2.71l-4.11-16.63Z"/>
        <path class="cls-1" d="M210.9,126.9c0,.92-.1,1.8-.3,2.63-.2.83-.49,1.6-.87,2.32-.38.71-.83,1.36-1.36,1.93s-1.13,1.07-1.79,1.47c-.66.41-1.38.72-2.15.94-.77.22-1.58.33-2.43.33-1.05,0-2-.19-2.84-.56-.84-.38-1.56-.89-2.15-1.55s-1.04-1.44-1.36-2.33c-.31-.9-.47-1.87-.47-2.92,0-.92.1-1.8.3-2.63s.49-1.6.87-2.32.83-1.36,1.36-1.93c.53-.58,1.13-1.07,1.79-1.48.66-.41,1.38-.72,2.15-.94s1.58-.33,2.44-.33c1.05,0,2,.19,2.84.56.84.38,1.55.89,2.14,1.55.59.66,1.04,1.44,1.35,2.34.31.9.47,1.88.47,2.93ZM207.85,126.97c0-.75-.09-1.43-.28-2.05-.19-.61-.46-1.14-.81-1.58-.35-.44-.79-.77-1.3-1.01-.51-.24-1.09-.36-1.73-.36-.83,0-1.58.17-2.25.51-.68.34-1.25.82-1.74,1.44-.48.62-.85,1.37-1.12,2.24s-.39,1.84-.39,2.91c0,.75.09,1.43.27,2.05.18.61.45,1.14.8,1.57.35.43.78.77,1.29,1,.51.23,1.09.35,1.74.35.83,0,1.59-.17,2.27-.51.68-.34,1.26-.81,1.74-1.43s.85-1.35,1.12-2.22.4-1.84.4-2.92Z"/>
        <path class="cls-1" d="M219.64,129.86l-.8,6.47h-2.98l.8-6.49-4.31-10.14h2.65c.26,0,.46.06.6.19.14.13.24.29.32.49l2.14,5.75c.11.28.19.55.26.81.06.26.12.52.17.78.12-.25.25-.51.39-.77.14-.26.3-.53.48-.82l3.56-5.75c.11-.18.25-.33.42-.47s.38-.21.64-.21h2.46l-6.79,10.15Z"/>
        <path class="cls-1" d="M239.17,136.33h-2.3c-.26,0-.47-.06-.62-.18-.15-.12-.25-.29-.29-.5l-.69-3.47h-6.18l-1.54,3.47c-.08.18-.22.33-.41.47-.19.14-.41.21-.64.21h-2.34l8.01-16.63h3.04l3.95,16.63ZM230.02,130.08h4.82l-1.12-5.69c-.06-.28-.12-.57-.18-.87-.06-.31-.12-.65-.17-1.04-.15.38-.29.74-.43,1.06-.14.33-.27.61-.4.86l-2.52,5.68Z"/>
        <path class="cls-1" d="M247.8,134.13c.62,0,1.17-.06,1.64-.18.47-.12.93-.29,1.36-.5l.39-3.17h-1.83c-.18,0-.31-.04-.41-.13-.1-.09-.14-.2-.14-.34l.2-1.77h5.16l-.83,6.68c-.84.61-1.75,1.07-2.72,1.36-.97.29-2.08.44-3.32.44-1.02,0-1.94-.18-2.77-.55s-1.54-.88-2.13-1.54-1.05-1.43-1.37-2.33c-.32-.9-.48-1.88-.48-2.95,0-.94.1-1.82.31-2.66s.5-1.62.88-2.33.83-1.35,1.36-1.93,1.13-1.06,1.79-1.46c.66-.4,1.37-.71,2.14-.93.76-.21,1.57-.32,2.41-.32.67,0,1.28.06,1.83.18.55.12,1.05.28,1.49.49.44.21.84.45,1.19.72.35.28.67.57.94.87l-.96,1.24c-.21.27-.45.4-.73.4-.18,0-.34-.05-.5-.16-.25-.17-.5-.33-.73-.47-.24-.15-.49-.27-.76-.38s-.56-.19-.88-.25c-.32-.06-.69-.09-1.11-.09-.83,0-1.58.17-2.27.5-.69.33-1.28.8-1.78,1.41-.5.61-.88,1.34-1.16,2.2-.28.85-.41,1.81-.41,2.86,0,.8.1,1.51.3,2.14.2.63.49,1.16.85,1.6.37.44.81.77,1.32,1.01.52.23,1.09.35,1.72.35Z"/>
        <path class="cls-1" d="M267.4,119.7l-.3,2.38h-6.67l-.57,4.73h5.24l-.29,2.29h-5.24l-.6,4.85h6.69l-.3,2.38h-9.67l2.04-16.63h9.66Z"/>
      </g>
    </g>
  </g>
</svg>