<svg width="1366" height="296" viewBox="0 0 1366 296" fill="none" xmlns="http://www.w3.org/2000/svg">
<g opacity="0.42">
<mask id="mask0_161_630" style="mask-type:alpha" maskUnits="userSpaceOnUse" x="-45" y="0" width="1417" height="296">
<rect x="1372" y="296" width="1417" height="296" rx="10" transform="rotate(-180 1372 296)" fill="white"/>
</mask>
<g mask="url(#mask0_161_630)">
<g style="mix-blend-mode:multiply" opacity="0.47">
<path d="M1386.9 122.584C1331.98 154.037 1274.26 169.369 1216.61 177.537C1156.77 186.027 1096.23 189.037 1036.2 186.744C910.233 181.944 785.63 148.627 661.387 115.741C555.605 87.7271 449.484 60.1787 342.344 53.0497C246.43 46.6731 148.755 56.0947 56.2992 102.379C7.8116 126.632 -38.1296 161.739 -79.9754 207.414L-79.9754 275.873C-42.1402 235.07 -0.357997 204.871 42.2093 181.37C87.3017 156.473 133.54 139.528 180.818 132.148C249.231 121.473 318.133 128.351 386.121 143.469C512.55 171.555 636.559 224.395 762.585 256.923C876.472 286.334 992.206 302.992 1107.45 293.176C1209.12 284.471 1311.95 254.594 1405.4 184.738L1405.4 111.192C1399.27 115.168 1393.12 119.001 1386.88 122.548L1386.9 122.584Z" fill="#DDDDDD"/>
</g>
<g style="mix-blend-mode:multiply" opacity="0.47">
<path d="M-79.7244 -12.5453C21.9829 69.2761 130.799 129.102 242.968 151.348C357.789 174.096 462.955 144.004 567.697 63.5085C772.661 -93.9725 1036.02 -199.079 1244.25 -1.15324C1298.05 50.0389 1337.81 81.922 1382.06 155.576L1383.56 311.015C1308.61 210.887 1212.17 167.147 1117.53 153.426C996.701 135.908 874.601 161.128 755.685 196.307C699.897 212.822 644.428 232.167 589.002 251.726C527.209 273.543 465.629 293.998 402.478 300.769C270.193 314.955 137.08 276.767 17.4206 178.968C-25.6347 143.789 -67.1409 107.249 -105.358 59.6753L-105.358 -33.8963C-96.8489 -26.6599 -88.3185 -19.4951 -79.7032 -12.5811L-79.7244 -12.5453Z" fill="#DDDDDD"/>
</g>
<g style="mix-blend-mode:multiply">
<path d="M1361.49 125.581C1248.14 47.7006 1124.95 29.5022 1003.96 51.3905C882.601 73.3504 764.597 131.313 649.139 196.047C597.002 225.279 545.331 254.153 491.284 271.85C441.99 288.006 391.826 296.675 341.598 295.959C246.554 294.633 152.061 258.272 67.6058 183.938C3.4366 127.48 -53.157 50.853 -101.836 -38.563L-101.836 -62.5649C-55.3639 -3.38408 -4.58458 46.2318 48.8685 84.1333C96.1042 117.628 145.78 141.774 196.602 153.345C253.068 166.205 310.553 160.474 366.786 146.717C486.127 117.557 600.291 49.1694 717.086 1.05811C778.263 -24.126 840.352 -44.4738 902.421 -62.314C965.635 -80.5124 1029.32 -94.6986 1093.29 -102.401C1190.25 -114.079 1287.71 -109.852 1383.56 -84.6321L1383.56 141.595C1376.26 136.042 1368.9 130.704 1361.49 125.581Z" fill="#DDDDDD"/>
</g>
</g>
</g>
</svg>
